M48
; DRILL file {KiCad (7.0.0)} date Wed Dec 20 20:41:35 2023
; FORMAT={-:-/ absolute / inch / decimal}
; #@! TF.CreationDate,2023-12-20T20:41:35+01:00
; #@! TF.GenerationSoftware,Kicad,Pcbnew,(7.0.0)
; #@! TF.FileFunction,Plated,1,2,PTH
FMAT,2
INCH
; #@! TA.AperFunction,Plated,PTH,ComponentDrill
T1C0.0079
; #@! TA.AperFunction,Plated,PTH,ViaDrill
T2C0.0130
; #@! TA.AperFunction,Plated,PTH,ComponentDrill
T3C0.0374
%
G90
G05
T1
X7.4656Y-4.2044
X7.4656Y-4.2644
X7.4956Y-4.1744
X7.4956Y-4.2344
X7.4956Y-4.2944
X7.5256Y-4.2044
X7.5256Y-4.2644
X7.5556Y-4.1744
X7.5556Y-4.2344
X7.5556Y-4.2944
X7.5856Y-4.2044
X7.5856Y-4.2644
T2
X6.61Y-5.25
X6.67Y-5.01
X6.73Y-4.97
X6.84Y-5.2506
X6.84Y-5.3411
X6.9Y-4.55
X6.925Y-4.495
X6.96Y-4.9905
X6.98Y-5.08
X6.986Y-5.17
X6.986Y-5.23
X6.986Y-5.3
X7.07Y-4.93
X7.09Y-4.51
X7.09Y-4.79
X7.19Y-3.83
X7.27Y-4.29
X7.33Y-4.39
X7.39Y-4.39
X7.52Y-4.9334
X7.73Y-4.49
X7.76Y-3.81
X7.791Y-4.52
X7.8433Y-4.4734
X7.97Y-4.96
X7.9733Y-4.52
X8.07Y-4.465
T3
X6.66Y-3.8416
X6.66Y-3.94
X6.66Y-4.1831
X6.66Y-4.2816
X6.66Y-4.38
X6.66Y-4.64
X6.66Y-4.7384
X8.25Y-4.4131
X8.25Y-4.5116
X8.25Y-4.61
X8.25Y-4.86
X8.25Y-4.9584
X8.252Y-3.8527
X8.252Y-3.9511
X8.252Y-4.0496
X8.252Y-4.148
T0
M30
