%TF.GenerationSoftware,KiCad,Pcbnew,(7.0.0)*%
%TF.CreationDate,2023-12-20T20:41:28+01:00*%
%TF.ProjectId,board2,626f6172-6432-42e6-9b69-6361645f7063,rev?*%
%TF.SameCoordinates,Original*%
%TF.FileFunction,Copper,L2,Bot*%
%TF.FilePolarity,Positive*%
%FSLAX46Y46*%
G04 Gerber Fmt 4.6, Leading zero omitted, Abs format (unit mm)*
G04 Created by KiCad (PCBNEW (7.0.0)) date 2023-12-20 20:41:28*
%MOMM*%
%LPD*%
G01*
G04 APERTURE LIST*
G04 Aperture macros list*
%AMRoundRect*
0 Rectangle with rounded corners*
0 $1 Rounding radius*
0 $2 $3 $4 $5 $6 $7 $8 $9 X,Y pos of 4 corners*
0 Add a 4 corners polygon primitive as box body*
4,1,4,$2,$3,$4,$5,$6,$7,$8,$9,$2,$3,0*
0 Add four circle primitives for the rounded corners*
1,1,$1+$1,$2,$3*
1,1,$1+$1,$4,$5*
1,1,$1+$1,$6,$7*
1,1,$1+$1,$8,$9*
0 Add four rect primitives between the rounded corners*
20,1,$1+$1,$2,$3,$4,$5,0*
20,1,$1+$1,$4,$5,$6,$7,0*
20,1,$1+$1,$6,$7,$8,$9,0*
20,1,$1+$1,$8,$9,$2,$3,0*%
G04 Aperture macros list end*
%TA.AperFunction,ComponentPad*%
%ADD10RoundRect,0.250000X0.725000X-0.600000X0.725000X0.600000X-0.725000X0.600000X-0.725000X-0.600000X0*%
%TD*%
%TA.AperFunction,ComponentPad*%
%ADD11O,1.950000X1.700000*%
%TD*%
%TA.AperFunction,HeatsinkPad*%
%ADD12C,0.600000*%
%TD*%
%TA.AperFunction,ComponentPad*%
%ADD13RoundRect,0.250000X-0.725000X0.600000X-0.725000X-0.600000X0.725000X-0.600000X0.725000X0.600000X0*%
%TD*%
%TA.AperFunction,ViaPad*%
%ADD14C,0.685800*%
%TD*%
%TA.AperFunction,Conductor*%
%ADD15C,1.000000*%
%TD*%
%TA.AperFunction,Conductor*%
%ADD16C,0.500000*%
%TD*%
%TA.AperFunction,Conductor*%
%ADD17C,0.762000*%
%TD*%
G04 APERTURE END LIST*
D10*
%TO.P,J2,1,Pin_1*%
%TO.N,/B+*%
X209550000Y-125944000D03*
D11*
%TO.P,J2,2,Pin_2*%
%TO.N,Net-(J2-Pin_2)*%
X209549999Y-123443999D03*
%TD*%
D12*
%TO.P,U19,39,GND*%
%TO.N,GND*%
X192675000Y-108316500D03*
X192675000Y-106791500D03*
X191912500Y-109079000D03*
X191912500Y-107554000D03*
X191912500Y-106029000D03*
X191150000Y-108316500D03*
X191150000Y-106791500D03*
X190387500Y-109079000D03*
X190387500Y-107554000D03*
X190387500Y-106029000D03*
X189625000Y-108316500D03*
X189625000Y-106791500D03*
%TD*%
D13*
%TO.P,J4,1,Pin_1*%
%TO.N,/3.3v_esp*%
X209550000Y-112094000D03*
D11*
%TO.P,J4,2,Pin_2*%
%TO.N,Net-(J4-Pin_2)*%
X209549999Y-114593999D03*
%TO.P,J4,3,Pin_3*%
%TO.N,GND*%
X209549999Y-117093999D03*
%TD*%
D10*
%TO.P,J3,1,Pin_1*%
%TO.N,GND*%
X169164000Y-120356000D03*
D11*
%TO.P,J3,2,Pin_2*%
%TO.N,/B+*%
X169163999Y-117855999D03*
%TD*%
D13*
%TO.P,J7,1,Pin_1*%
%TO.N,/TXD0*%
X169164000Y-106252000D03*
D11*
%TO.P,J7,2,Pin_2*%
%TO.N,/RXD0*%
X169163999Y-108751999D03*
%TO.P,J7,3,Pin_3*%
%TO.N,GND*%
X169163999Y-111251999D03*
%TD*%
D10*
%TO.P,J5,1,Pin_1*%
%TO.N,4*%
X169164000Y-100076000D03*
D11*
%TO.P,J5,2,Pin_2*%
%TO.N,GND*%
X169163999Y-97575999D03*
%TD*%
D10*
%TO.P,J1,1,Pin_1*%
%TO.N,+5V*%
X209600800Y-105359200D03*
D11*
%TO.P,J1,2,Pin_2*%
%TO.N,Net-(J1-Pin_2)*%
X209600799Y-102859199D03*
%TO.P,J1,3,Pin_3*%
%TO.N,Net-(J1-Pin_3)*%
X209600799Y-100359199D03*
%TO.P,J1,4,Pin_4*%
%TO.N,GND*%
X209600799Y-97859199D03*
%TD*%
D14*
%TO.N,GND*%
X202522000Y-114808000D03*
X177444000Y-134620000D03*
X169418000Y-127254000D03*
X202438000Y-125984000D03*
X180086000Y-114554000D03*
X177292000Y-129032000D03*
X197104000Y-96774000D03*
X177444000Y-131318000D03*
X197890900Y-114808000D03*
X173736000Y-135664000D03*
X177444000Y-132842000D03*
X191008000Y-125308000D03*
X170942000Y-126238000D03*
X176784000Y-126759000D03*
%TO.N,+5V*%
X173736000Y-133364000D03*
X167894000Y-133350000D03*
%TO.N,/3.3v_esp*%
X180086000Y-121666000D03*
X196342000Y-114046000D03*
X182626000Y-97282000D03*
X179578000Y-125222000D03*
X199220000Y-113624000D03*
X204978000Y-113412000D03*
X184658000Y-108966000D03*
%TO.N,/BVOL*%
X175895000Y-114173000D03*
X175260000Y-115570000D03*
X186182000Y-111506000D03*
X187706000Y-111506000D03*
%TD*%
D15*
%TO.N,+5V*%
X173722000Y-133350000D02*
X173736000Y-133364000D01*
X197612000Y-110490000D02*
X195326000Y-112776000D01*
X178413900Y-129779946D02*
X177845746Y-130348100D01*
X195326000Y-112776000D02*
X180492354Y-112776000D01*
X209600800Y-105359200D02*
X205968054Y-105359200D01*
X176751900Y-130348100D02*
X173736000Y-133364000D01*
X167894000Y-133350000D02*
X173722000Y-133350000D01*
X205968054Y-105359200D02*
X200837254Y-110490000D01*
X177845746Y-130348100D02*
X176751900Y-130348100D01*
X178413900Y-114854454D02*
X178413900Y-129779946D01*
X180492354Y-112776000D02*
X178413900Y-114854454D01*
X200837254Y-110490000D02*
X197612000Y-110490000D01*
D16*
%TO.N,/3.3v_esp*%
X199304000Y-113624000D02*
X198542000Y-113624000D01*
X204978000Y-113412000D02*
X199516000Y-113412000D01*
X180086000Y-124714000D02*
X179578000Y-125222000D01*
X198542000Y-113624000D02*
X199220000Y-113624000D01*
X198120000Y-114046000D02*
X198542000Y-113624000D01*
X180086000Y-121666000D02*
X180086000Y-124714000D01*
X182626000Y-97282000D02*
X184658000Y-99314000D01*
X196342000Y-114046000D02*
X198120000Y-114046000D01*
X184658000Y-99314000D02*
X184658000Y-108966000D01*
X199516000Y-113412000D02*
X199304000Y-113624000D01*
D17*
%TO.N,/BVOL*%
X176530000Y-113538000D02*
X175895000Y-114173000D01*
X175260000Y-114808000D02*
X175260000Y-115570000D01*
X178562000Y-111506000D02*
X176530000Y-113538000D01*
X186182000Y-111506000D02*
X183134000Y-111506000D01*
X183134000Y-111506000D02*
X178562000Y-111506000D01*
X176530000Y-113538000D02*
X175260000Y-114808000D01*
X183134000Y-111506000D02*
X187706000Y-111506000D01*
%TD*%
%TA.AperFunction,Conductor*%
%TO.N,GND*%
G36*
X213541500Y-94210313D02*
G01*
X213586887Y-94255700D01*
X213603500Y-94317700D01*
X213603500Y-138549500D01*
X213586887Y-138611500D01*
X213541500Y-138656887D01*
X213479500Y-138673500D01*
X165285300Y-138673500D01*
X165223300Y-138656887D01*
X165177913Y-138611500D01*
X165161300Y-138549500D01*
X165161300Y-136168000D01*
X209558829Y-136168000D01*
X209577483Y-136405025D01*
X209578618Y-136409754D01*
X209578619Y-136409758D01*
X209631849Y-136631477D01*
X209631851Y-136631485D01*
X209632987Y-136636214D01*
X209723973Y-136855873D01*
X209726520Y-136860030D01*
X209726521Y-136860031D01*
X209845653Y-137054438D01*
X209845656Y-137054443D01*
X209848201Y-137058595D01*
X209851362Y-137062297D01*
X209851365Y-137062300D01*
X209999451Y-137235687D01*
X210002612Y-137239388D01*
X210183405Y-137393799D01*
X210386127Y-137518027D01*
X210605786Y-137609013D01*
X210836975Y-137664517D01*
X211074000Y-137683171D01*
X211311025Y-137664517D01*
X211542214Y-137609013D01*
X211761873Y-137518027D01*
X211964595Y-137393799D01*
X212145388Y-137239388D01*
X212299799Y-137058595D01*
X212424027Y-136855873D01*
X212515013Y-136636214D01*
X212570517Y-136405025D01*
X212589171Y-136168000D01*
X212570517Y-135930975D01*
X212515013Y-135699786D01*
X212424027Y-135480127D01*
X212299799Y-135277405D01*
X212145388Y-135096612D01*
X211964595Y-134942201D01*
X211960443Y-134939656D01*
X211960438Y-134939653D01*
X211766031Y-134820521D01*
X211766030Y-134820520D01*
X211761873Y-134817973D01*
X211542214Y-134726987D01*
X211537485Y-134725851D01*
X211537477Y-134725849D01*
X211315758Y-134672619D01*
X211315754Y-134672618D01*
X211311025Y-134671483D01*
X211306174Y-134671101D01*
X211306173Y-134671101D01*
X211078854Y-134653211D01*
X211074000Y-134652829D01*
X211069146Y-134653211D01*
X210841826Y-134671101D01*
X210841823Y-134671101D01*
X210836975Y-134671483D01*
X210832247Y-134672617D01*
X210832241Y-134672619D01*
X210610522Y-134725849D01*
X210610510Y-134725852D01*
X210605786Y-134726987D01*
X210601289Y-134728849D01*
X210601285Y-134728851D01*
X210390631Y-134816107D01*
X210390627Y-134816109D01*
X210386127Y-134817973D01*
X210381974Y-134820517D01*
X210381968Y-134820521D01*
X210187561Y-134939653D01*
X210187550Y-134939660D01*
X210183405Y-134942201D01*
X210179708Y-134945358D01*
X210179699Y-134945365D01*
X210006312Y-135093451D01*
X210006305Y-135093457D01*
X210002612Y-135096612D01*
X209999457Y-135100305D01*
X209999451Y-135100312D01*
X209851365Y-135273699D01*
X209851358Y-135273708D01*
X209848201Y-135277405D01*
X209845660Y-135281550D01*
X209845653Y-135281561D01*
X209726521Y-135475968D01*
X209726517Y-135475974D01*
X209723973Y-135480127D01*
X209722109Y-135484627D01*
X209722107Y-135484631D01*
X209639377Y-135684360D01*
X209632987Y-135699786D01*
X209631852Y-135704510D01*
X209631849Y-135704522D01*
X209578619Y-135926241D01*
X209578617Y-135926247D01*
X209577483Y-135930975D01*
X209558829Y-136168000D01*
X165161300Y-136168000D01*
X165161300Y-133350000D01*
X167088435Y-133350000D01*
X167108632Y-133529255D01*
X167110928Y-133535819D01*
X167110930Y-133535824D01*
X167165913Y-133692956D01*
X167168211Y-133699522D01*
X167264184Y-133852262D01*
X167391738Y-133979816D01*
X167544478Y-134075789D01*
X167714745Y-134135368D01*
X167849046Y-134150500D01*
X173570497Y-134150500D01*
X173598088Y-134153608D01*
X173645806Y-134164500D01*
X173819232Y-134164500D01*
X173826194Y-134164500D01*
X174002061Y-134124360D01*
X174164587Y-134046091D01*
X174247693Y-133979816D01*
X174270252Y-133961826D01*
X174270255Y-133961822D01*
X174305620Y-133933620D01*
X174329484Y-133903694D01*
X174338741Y-133893335D01*
X177047157Y-131184919D01*
X177087386Y-131158039D01*
X177134839Y-131148600D01*
X177928979Y-131148600D01*
X177935940Y-131148600D01*
X177973269Y-131140079D01*
X177986943Y-131137755D01*
X178025001Y-131133468D01*
X178061149Y-131120818D01*
X178074472Y-131116981D01*
X178111807Y-131108460D01*
X178146292Y-131091852D01*
X178159144Y-131086529D01*
X178195268Y-131073889D01*
X178227685Y-131053518D01*
X178239832Y-131046805D01*
X178274333Y-131030191D01*
X178304265Y-131006320D01*
X178315599Y-130998279D01*
X178348008Y-130977916D01*
X178475562Y-130850362D01*
X178475562Y-130850361D01*
X179011726Y-130314198D01*
X179011725Y-130314198D01*
X179043716Y-130282208D01*
X179064080Y-130249796D01*
X179072120Y-130238465D01*
X179095991Y-130208533D01*
X179112605Y-130174032D01*
X179119318Y-130161885D01*
X179139689Y-130129468D01*
X179152329Y-130093343D01*
X179157652Y-130080493D01*
X179158149Y-130079459D01*
X179174260Y-130046007D01*
X179182781Y-130008672D01*
X179186618Y-129995349D01*
X179199268Y-129959201D01*
X179203555Y-129921143D01*
X179205879Y-129907469D01*
X179214400Y-129870140D01*
X179214400Y-129689752D01*
X179214400Y-126587102D01*
X208274500Y-126587102D01*
X208274940Y-126590767D01*
X208274941Y-126590781D01*
X208284174Y-126667668D01*
X208284175Y-126667674D01*
X208285123Y-126675564D01*
X208340639Y-126816342D01*
X208432078Y-126936922D01*
X208552658Y-127028361D01*
X208693436Y-127083877D01*
X208781898Y-127094500D01*
X210314401Y-127094500D01*
X210318102Y-127094500D01*
X210406564Y-127083877D01*
X210547342Y-127028361D01*
X210667922Y-126936922D01*
X210759361Y-126816342D01*
X210814877Y-126675564D01*
X210825500Y-126587102D01*
X210825500Y-125300898D01*
X210814877Y-125212436D01*
X210759361Y-125071658D01*
X210667922Y-124951078D01*
X210656772Y-124942623D01*
X210595064Y-124895828D01*
X210547342Y-124859639D01*
X210406564Y-124804123D01*
X210398674Y-124803175D01*
X210398668Y-124803174D01*
X210321781Y-124793941D01*
X210321767Y-124793940D01*
X210318102Y-124793500D01*
X210025002Y-124793500D01*
X209968028Y-124779636D01*
X209923794Y-124741144D01*
X209902191Y-124686632D01*
X209908051Y-124628288D01*
X209940062Y-124579160D01*
X209991067Y-124550234D01*
X210009557Y-124544973D01*
X210092389Y-124521405D01*
X210283255Y-124426366D01*
X210453407Y-124297872D01*
X210597052Y-124140302D01*
X210709298Y-123959019D01*
X210786321Y-123760198D01*
X210825500Y-123550610D01*
X210825500Y-123337390D01*
X210786321Y-123127802D01*
X210709298Y-122928981D01*
X210597052Y-122747698D01*
X210453407Y-122590128D01*
X210283255Y-122461634D01*
X210092389Y-122366595D01*
X210086876Y-122365026D01*
X210086870Y-122365024D01*
X209892831Y-122309814D01*
X209892821Y-122309812D01*
X209887310Y-122308244D01*
X209881597Y-122307714D01*
X209881594Y-122307714D01*
X209731054Y-122293765D01*
X209731053Y-122293764D01*
X209728194Y-122293500D01*
X209371806Y-122293500D01*
X209368947Y-122293764D01*
X209368945Y-122293765D01*
X209218405Y-122307714D01*
X209218400Y-122307714D01*
X209212690Y-122308244D01*
X209207179Y-122309811D01*
X209207168Y-122309814D01*
X209013129Y-122365024D01*
X209013119Y-122365027D01*
X209007611Y-122366595D01*
X209002476Y-122369151D01*
X209002473Y-122369153D01*
X208821875Y-122459079D01*
X208821870Y-122459082D01*
X208816745Y-122461634D01*
X208812177Y-122465083D01*
X208812173Y-122465086D01*
X208651164Y-122586675D01*
X208651156Y-122586681D01*
X208646593Y-122590128D01*
X208642739Y-122594354D01*
X208642734Y-122594360D01*
X208506803Y-122743468D01*
X208506797Y-122743475D01*
X208502948Y-122747698D01*
X208499940Y-122752555D01*
X208499934Y-122752564D01*
X208393718Y-122924109D01*
X208393715Y-122924114D01*
X208390702Y-122928981D01*
X208388636Y-122934313D01*
X208388632Y-122934322D01*
X208315750Y-123122454D01*
X208315747Y-123122461D01*
X208313679Y-123127802D01*
X208274500Y-123337390D01*
X208274500Y-123550610D01*
X208313679Y-123760198D01*
X208315748Y-123765540D01*
X208315750Y-123765545D01*
X208388632Y-123953677D01*
X208388634Y-123953681D01*
X208390702Y-123959019D01*
X208502948Y-124140302D01*
X208646593Y-124297872D01*
X208816745Y-124426366D01*
X209007611Y-124521405D01*
X209013129Y-124522975D01*
X209108933Y-124550234D01*
X209159938Y-124579160D01*
X209191949Y-124628288D01*
X209197809Y-124686632D01*
X209176206Y-124741144D01*
X209131972Y-124779636D01*
X209074998Y-124793500D01*
X208781898Y-124793500D01*
X208778233Y-124793940D01*
X208778218Y-124793941D01*
X208701331Y-124803174D01*
X208701324Y-124803175D01*
X208693436Y-124804123D01*
X208686040Y-124807039D01*
X208686038Y-124807040D01*
X208560551Y-124856526D01*
X208560548Y-124856527D01*
X208552658Y-124859639D01*
X208545899Y-124864764D01*
X208545898Y-124864765D01*
X208438835Y-124945953D01*
X208438830Y-124945957D01*
X208432078Y-124951078D01*
X208426957Y-124957830D01*
X208426953Y-124957835D01*
X208345765Y-125064898D01*
X208340639Y-125071658D01*
X208285123Y-125212436D01*
X208284175Y-125220324D01*
X208284174Y-125220331D01*
X208274941Y-125297218D01*
X208274940Y-125297233D01*
X208274500Y-125300898D01*
X208274500Y-126587102D01*
X179214400Y-126587102D01*
X179214400Y-125953311D01*
X179226913Y-125899028D01*
X179261927Y-125855700D01*
X179312375Y-125832073D01*
X179368075Y-125832914D01*
X179423879Y-125846668D01*
X179499877Y-125865400D01*
X179648623Y-125865400D01*
X179656123Y-125865400D01*
X179807829Y-125828008D01*
X179946178Y-125755397D01*
X180063129Y-125651787D01*
X180151887Y-125523199D01*
X180201446Y-125392523D01*
X180229703Y-125348819D01*
X180467130Y-125111392D01*
X180470115Y-125108507D01*
X180517044Y-125064680D01*
X180538395Y-125029568D01*
X180545535Y-125019079D01*
X180565234Y-124993103D01*
X180570361Y-124986343D01*
X180576943Y-124969650D01*
X180586351Y-124950708D01*
X180595672Y-124935382D01*
X180606755Y-124895822D01*
X180610802Y-124883789D01*
X180618304Y-124864765D01*
X180625876Y-124845565D01*
X180627710Y-124827713D01*
X180631659Y-124806941D01*
X180634211Y-124797833D01*
X180634210Y-124797833D01*
X180636500Y-124789665D01*
X180636500Y-124748575D01*
X180637150Y-124735895D01*
X180640483Y-124703468D01*
X180641351Y-124695029D01*
X180638302Y-124677349D01*
X180636500Y-124656282D01*
X180636500Y-122039721D01*
X180642114Y-122002833D01*
X180653003Y-121980466D01*
X180652140Y-121980013D01*
X180655622Y-121973377D01*
X180659887Y-121967199D01*
X180715293Y-121821107D01*
X180734126Y-121666000D01*
X180715293Y-121510893D01*
X180659887Y-121364801D01*
X180571129Y-121236213D01*
X180507016Y-121179413D01*
X180459793Y-121137577D01*
X180459790Y-121137575D01*
X180454178Y-121132603D01*
X180447538Y-121129118D01*
X180322468Y-121063476D01*
X180322465Y-121063474D01*
X180315829Y-121059992D01*
X180290568Y-121053765D01*
X180171404Y-121024394D01*
X180171399Y-121024393D01*
X180164123Y-121022600D01*
X180007877Y-121022600D01*
X180000601Y-121024393D01*
X180000595Y-121024394D01*
X179863453Y-121058197D01*
X179863451Y-121058197D01*
X179856171Y-121059992D01*
X179849537Y-121063473D01*
X179849531Y-121063476D01*
X179724461Y-121129118D01*
X179724457Y-121129120D01*
X179717822Y-121132603D01*
X179712212Y-121137572D01*
X179712206Y-121137577D01*
X179606484Y-121231240D01*
X179600871Y-121236213D01*
X179596616Y-121242377D01*
X179596611Y-121242383D01*
X179516376Y-121358624D01*
X179516373Y-121358628D01*
X179512113Y-121364801D01*
X179509453Y-121371812D01*
X179509451Y-121371818D01*
X179459367Y-121503876D01*
X179459367Y-121503878D01*
X179457689Y-121508301D01*
X179457688Y-121508305D01*
X179456707Y-121510893D01*
X179456392Y-121510773D01*
X179431215Y-121558745D01*
X179382371Y-121592459D01*
X179323453Y-121599613D01*
X179267960Y-121578567D01*
X179228603Y-121534143D01*
X179214400Y-121476517D01*
X179214400Y-116215400D01*
X181278200Y-116215400D01*
X181278200Y-122372600D01*
X199560200Y-122448800D01*
X199560200Y-117261176D01*
X208084468Y-117261176D01*
X208089959Y-117323932D01*
X208091830Y-117334543D01*
X208150168Y-117552263D01*
X208153856Y-117562397D01*
X208249110Y-117766667D01*
X208254508Y-117776017D01*
X208383784Y-117960642D01*
X208390719Y-117968907D01*
X208550092Y-118128280D01*
X208558357Y-118135215D01*
X208742982Y-118264491D01*
X208752332Y-118269889D01*
X208956602Y-118365143D01*
X208966736Y-118368831D01*
X209184446Y-118427166D01*
X209195078Y-118429041D01*
X209363354Y-118443763D01*
X209368764Y-118444000D01*
X209383674Y-118444000D01*
X209396549Y-118440549D01*
X209400000Y-118427674D01*
X209700000Y-118427674D01*
X209703450Y-118440549D01*
X209716326Y-118444000D01*
X209731236Y-118444000D01*
X209736645Y-118443763D01*
X209904921Y-118429041D01*
X209915553Y-118427166D01*
X210133263Y-118368831D01*
X210143397Y-118365143D01*
X210347667Y-118269889D01*
X210357017Y-118264491D01*
X210541642Y-118135215D01*
X210549907Y-118128280D01*
X210709278Y-117968909D01*
X210716215Y-117960643D01*
X210845498Y-117776008D01*
X210850886Y-117766676D01*
X210946143Y-117562397D01*
X210949831Y-117552263D01*
X211008169Y-117334543D01*
X211010040Y-117323932D01*
X211015531Y-117261176D01*
X211012959Y-117247734D01*
X210999791Y-117244000D01*
X209716326Y-117244000D01*
X209703450Y-117247450D01*
X209700000Y-117260326D01*
X209700000Y-118427674D01*
X209400000Y-118427674D01*
X209400000Y-117260326D01*
X209396549Y-117247450D01*
X209383674Y-117244000D01*
X208100209Y-117244000D01*
X208087040Y-117247734D01*
X208084468Y-117261176D01*
X199560200Y-117261176D01*
X199560200Y-116926823D01*
X208084468Y-116926823D01*
X208087040Y-116940265D01*
X208100209Y-116944000D01*
X210999791Y-116944000D01*
X211012959Y-116940265D01*
X211015531Y-116926823D01*
X211010040Y-116864067D01*
X211008169Y-116853456D01*
X210949831Y-116635736D01*
X210946143Y-116625602D01*
X210850889Y-116421332D01*
X210845491Y-116411982D01*
X210716215Y-116227357D01*
X210709280Y-116219092D01*
X210549907Y-116059719D01*
X210541642Y-116052784D01*
X210357017Y-115923508D01*
X210347667Y-115918110D01*
X210193133Y-115846049D01*
X210141387Y-115800961D01*
X210121548Y-115735257D01*
X210139695Y-115669066D01*
X210190264Y-115622669D01*
X210283255Y-115576366D01*
X210453407Y-115447872D01*
X210597052Y-115290302D01*
X210709298Y-115109019D01*
X210786321Y-114910198D01*
X210825500Y-114700610D01*
X210825500Y-114487390D01*
X210786321Y-114277802D01*
X210709298Y-114078981D01*
X210597052Y-113897698D01*
X210590848Y-113890893D01*
X210457265Y-113744360D01*
X210453407Y-113740128D01*
X210408454Y-113706181D01*
X210316858Y-113637010D01*
X210283255Y-113611634D01*
X210092389Y-113516595D01*
X210086876Y-113515026D01*
X210086870Y-113515024D01*
X209991067Y-113487766D01*
X209940062Y-113458840D01*
X209908051Y-113409712D01*
X209902191Y-113351368D01*
X209923794Y-113296856D01*
X209968028Y-113258364D01*
X210025002Y-113244500D01*
X210314401Y-113244500D01*
X210318102Y-113244500D01*
X210406564Y-113233877D01*
X210547342Y-113178361D01*
X210667922Y-113086922D01*
X210759361Y-112966342D01*
X210814877Y-112825564D01*
X210825500Y-112737102D01*
X210825500Y-111450898D01*
X210814877Y-111362436D01*
X210759361Y-111221658D01*
X210667922Y-111101078D01*
X210547342Y-111009639D01*
X210406564Y-110954123D01*
X210398674Y-110953175D01*
X210398668Y-110953174D01*
X210321781Y-110943941D01*
X210321767Y-110943940D01*
X210318102Y-110943500D01*
X208781898Y-110943500D01*
X208778233Y-110943940D01*
X208778218Y-110943941D01*
X208701331Y-110953174D01*
X208701324Y-110953175D01*
X208693436Y-110954123D01*
X208686040Y-110957039D01*
X208686038Y-110957040D01*
X208560551Y-111006526D01*
X208560548Y-111006527D01*
X208552658Y-111009639D01*
X208545899Y-111014764D01*
X208545898Y-111014765D01*
X208438835Y-111095953D01*
X208438830Y-111095957D01*
X208432078Y-111101078D01*
X208426957Y-111107830D01*
X208426953Y-111107835D01*
X208345765Y-111214898D01*
X208340639Y-111221658D01*
X208337527Y-111229548D01*
X208337526Y-111229551D01*
X208299169Y-111326819D01*
X208285123Y-111362436D01*
X208284175Y-111370324D01*
X208284174Y-111370331D01*
X208274941Y-111447218D01*
X208274940Y-111447233D01*
X208274500Y-111450898D01*
X208274500Y-112737102D01*
X208274940Y-112740767D01*
X208274941Y-112740781D01*
X208284174Y-112817668D01*
X208284175Y-112817674D01*
X208285123Y-112825564D01*
X208340639Y-112966342D01*
X208386607Y-113026960D01*
X208420403Y-113071527D01*
X208432078Y-113086922D01*
X208552658Y-113178361D01*
X208693436Y-113233877D01*
X208781898Y-113244500D01*
X208785599Y-113244500D01*
X209074998Y-113244500D01*
X209131972Y-113258364D01*
X209176206Y-113296856D01*
X209197809Y-113351368D01*
X209191949Y-113409712D01*
X209159938Y-113458840D01*
X209108933Y-113487766D01*
X209013129Y-113515024D01*
X209013119Y-113515027D01*
X209007611Y-113516595D01*
X209002476Y-113519151D01*
X209002473Y-113519153D01*
X208821875Y-113609079D01*
X208821870Y-113609082D01*
X208816745Y-113611634D01*
X208812177Y-113615083D01*
X208812173Y-113615086D01*
X208651164Y-113736675D01*
X208651156Y-113736681D01*
X208646593Y-113740128D01*
X208642739Y-113744354D01*
X208642734Y-113744360D01*
X208506803Y-113893468D01*
X208506797Y-113893475D01*
X208502948Y-113897698D01*
X208499940Y-113902555D01*
X208499934Y-113902564D01*
X208393718Y-114074109D01*
X208393715Y-114074114D01*
X208390702Y-114078981D01*
X208388636Y-114084313D01*
X208388632Y-114084322D01*
X208315750Y-114272454D01*
X208315747Y-114272461D01*
X208313679Y-114277802D01*
X208312625Y-114283436D01*
X208312625Y-114283439D01*
X208275740Y-114480759D01*
X208274500Y-114487390D01*
X208274500Y-114700610D01*
X208275551Y-114706236D01*
X208275552Y-114706239D01*
X208285447Y-114759173D01*
X208313679Y-114910198D01*
X208315748Y-114915540D01*
X208315750Y-114915545D01*
X208388632Y-115103677D01*
X208388634Y-115103681D01*
X208390702Y-115109019D01*
X208393717Y-115113889D01*
X208393718Y-115113890D01*
X208470188Y-115237394D01*
X208502948Y-115290302D01*
X208646593Y-115447872D01*
X208816745Y-115576366D01*
X208909735Y-115622669D01*
X208960304Y-115669066D01*
X208978451Y-115735257D01*
X208958612Y-115800961D01*
X208906866Y-115846049D01*
X208752332Y-115918109D01*
X208742982Y-115923508D01*
X208558357Y-116052784D01*
X208550092Y-116059719D01*
X208390721Y-116219090D01*
X208383784Y-116227356D01*
X208254501Y-116411991D01*
X208249113Y-116421323D01*
X208153856Y-116625602D01*
X208150168Y-116635736D01*
X208091830Y-116853456D01*
X208089959Y-116864067D01*
X208084468Y-116926823D01*
X199560200Y-116926823D01*
X199560200Y-116291600D01*
X199543919Y-116291532D01*
X181294566Y-116215468D01*
X181278200Y-116215400D01*
X179214400Y-116215400D01*
X179214400Y-115237394D01*
X179223839Y-115189941D01*
X179250719Y-115149713D01*
X180787613Y-113612819D01*
X180827841Y-113585939D01*
X180875294Y-113576500D01*
X195409233Y-113576500D01*
X195416194Y-113576500D01*
X195453523Y-113567979D01*
X195467197Y-113565655D01*
X195505255Y-113561368D01*
X195541403Y-113548718D01*
X195554726Y-113544881D01*
X195592061Y-113536360D01*
X195626546Y-113519752D01*
X195639396Y-113514430D01*
X195659589Y-113507364D01*
X195720997Y-113502103D01*
X195777353Y-113527058D01*
X195814732Y-113576062D01*
X195823902Y-113637010D01*
X195802595Y-113694843D01*
X195772378Y-113738621D01*
X195772375Y-113738625D01*
X195768113Y-113744801D01*
X195765453Y-113751812D01*
X195765451Y-113751818D01*
X195715367Y-113883878D01*
X195712707Y-113890893D01*
X195711803Y-113898333D01*
X195711802Y-113898340D01*
X195702288Y-113976703D01*
X195693874Y-114046000D01*
X195695015Y-114055400D01*
X195711802Y-114193659D01*
X195711803Y-114193664D01*
X195712707Y-114201107D01*
X195715366Y-114208120D01*
X195715367Y-114208121D01*
X195755533Y-114314030D01*
X195768113Y-114347199D01*
X195772376Y-114353375D01*
X195850546Y-114466625D01*
X195856871Y-114475787D01*
X195911474Y-114524161D01*
X195960028Y-114567177D01*
X195973822Y-114579397D01*
X196112171Y-114652008D01*
X196263877Y-114689400D01*
X196412623Y-114689400D01*
X196420123Y-114689400D01*
X196571829Y-114652008D01*
X196650529Y-114610702D01*
X196708155Y-114596500D01*
X198108478Y-114596500D01*
X198112710Y-114596571D01*
X198176826Y-114598762D01*
X198185068Y-114596753D01*
X198185071Y-114596753D01*
X198216739Y-114589035D01*
X198229196Y-114586666D01*
X198269920Y-114581070D01*
X198286380Y-114573919D01*
X198306423Y-114567179D01*
X198323852Y-114562933D01*
X198359688Y-114542783D01*
X198371023Y-114537153D01*
X198408720Y-114520780D01*
X198422637Y-114509456D01*
X198440120Y-114497558D01*
X198455759Y-114488766D01*
X198472695Y-114471830D01*
X198484811Y-114459713D01*
X198494227Y-114451213D01*
X198526108Y-114425278D01*
X198536456Y-114410616D01*
X198550068Y-114394454D01*
X198733707Y-114210816D01*
X198773934Y-114183939D01*
X198821386Y-114174500D01*
X198853845Y-114174500D01*
X198911470Y-114188702D01*
X198990171Y-114230008D01*
X199141877Y-114267400D01*
X199290623Y-114267400D01*
X199298123Y-114267400D01*
X199449829Y-114230008D01*
X199588178Y-114157397D01*
X199705129Y-114053787D01*
X199731170Y-114016059D01*
X199775594Y-113976703D01*
X199833220Y-113962500D01*
X204611845Y-113962500D01*
X204669470Y-113976702D01*
X204748171Y-114018008D01*
X204899877Y-114055400D01*
X205048623Y-114055400D01*
X205056123Y-114055400D01*
X205207829Y-114018008D01*
X205346178Y-113945397D01*
X205463129Y-113841787D01*
X205551887Y-113713199D01*
X205607293Y-113567107D01*
X205626126Y-113412000D01*
X205607293Y-113256893D01*
X205551887Y-113110801D01*
X205490230Y-113021476D01*
X205467388Y-112988383D01*
X205467387Y-112988382D01*
X205463129Y-112982213D01*
X205387491Y-112915203D01*
X205351793Y-112883577D01*
X205351790Y-112883575D01*
X205346178Y-112878603D01*
X205309281Y-112859238D01*
X205214468Y-112809476D01*
X205214465Y-112809474D01*
X205207829Y-112805992D01*
X205182568Y-112799765D01*
X205063404Y-112770394D01*
X205063399Y-112770393D01*
X205056123Y-112768600D01*
X204899877Y-112768600D01*
X204892601Y-112770393D01*
X204892595Y-112770394D01*
X204755453Y-112804197D01*
X204755451Y-112804197D01*
X204748171Y-112805992D01*
X204741537Y-112809473D01*
X204741531Y-112809476D01*
X204669471Y-112847297D01*
X204611845Y-112861500D01*
X199527522Y-112861500D01*
X199523289Y-112861428D01*
X199467648Y-112859527D01*
X199467644Y-112859527D01*
X199459174Y-112859238D01*
X199450940Y-112861244D01*
X199450934Y-112861245D01*
X199419256Y-112868965D01*
X199406785Y-112871335D01*
X199374479Y-112875775D01*
X199374475Y-112875776D01*
X199366080Y-112876930D01*
X199358308Y-112880305D01*
X199358300Y-112880308D01*
X199349609Y-112884083D01*
X199329581Y-112890817D01*
X199320395Y-112893056D01*
X199320387Y-112893059D01*
X199312148Y-112895067D01*
X199304757Y-112899222D01*
X199304753Y-112899224D01*
X199276333Y-112915203D01*
X199264969Y-112920847D01*
X199235061Y-112933839D01*
X199235055Y-112933842D01*
X199227280Y-112937220D01*
X199220704Y-112942569D01*
X199220702Y-112942571D01*
X199213358Y-112948546D01*
X199195878Y-112960442D01*
X199184385Y-112966904D01*
X199142570Y-112980600D01*
X199141877Y-112980600D01*
X199134603Y-112982392D01*
X199134601Y-112982393D01*
X198997453Y-113016197D01*
X198997451Y-113016197D01*
X198990171Y-113017992D01*
X198983537Y-113021473D01*
X198983531Y-113021476D01*
X198911471Y-113059297D01*
X198853845Y-113073500D01*
X198553522Y-113073500D01*
X198549289Y-113073428D01*
X198493648Y-113071527D01*
X198493644Y-113071527D01*
X198485174Y-113071238D01*
X198476940Y-113073244D01*
X198476934Y-113073245D01*
X198445256Y-113080965D01*
X198432785Y-113083335D01*
X198400479Y-113087775D01*
X198400475Y-113087776D01*
X198392080Y-113088930D01*
X198384308Y-113092305D01*
X198384300Y-113092308D01*
X198375609Y-113096083D01*
X198355581Y-113102817D01*
X198346395Y-113105056D01*
X198346387Y-113105059D01*
X198338148Y-113107067D01*
X198330757Y-113111222D01*
X198330753Y-113111224D01*
X198302333Y-113127203D01*
X198290969Y-113132847D01*
X198261061Y-113145839D01*
X198261055Y-113145842D01*
X198253280Y-113149220D01*
X198246704Y-113154569D01*
X198246702Y-113154571D01*
X198239358Y-113160546D01*
X198221883Y-113172439D01*
X198213635Y-113177076D01*
X198213627Y-113177081D01*
X198206241Y-113181235D01*
X198200250Y-113187225D01*
X198200239Y-113187234D01*
X198177183Y-113210290D01*
X198167763Y-113218792D01*
X198149222Y-113233877D01*
X198135892Y-113244722D01*
X198131005Y-113251644D01*
X198131002Y-113251648D01*
X198125539Y-113259388D01*
X198111920Y-113275554D01*
X197928294Y-113459181D01*
X197888066Y-113486061D01*
X197840613Y-113495500D01*
X196708155Y-113495500D01*
X196650529Y-113481297D01*
X196578468Y-113443476D01*
X196578465Y-113443474D01*
X196571829Y-113439992D01*
X196530823Y-113429885D01*
X196427404Y-113404394D01*
X196427399Y-113404393D01*
X196420123Y-113402600D01*
X196263877Y-113402600D01*
X196256602Y-113404392D01*
X196256594Y-113404394D01*
X196121922Y-113437588D01*
X196058228Y-113436433D01*
X196003512Y-113403806D01*
X195972217Y-113348318D01*
X195972602Y-113284615D01*
X196004564Y-113229512D01*
X197907258Y-111326819D01*
X197947487Y-111299939D01*
X197994940Y-111290500D01*
X200920487Y-111290500D01*
X200927448Y-111290500D01*
X200964777Y-111281979D01*
X200978451Y-111279655D01*
X201016509Y-111275368D01*
X201052657Y-111262718D01*
X201065980Y-111258881D01*
X201103315Y-111250360D01*
X201137800Y-111233752D01*
X201150652Y-111228429D01*
X201186776Y-111215789D01*
X201219193Y-111195418D01*
X201231340Y-111188705D01*
X201265841Y-111172091D01*
X201295773Y-111148220D01*
X201307107Y-111140179D01*
X201339516Y-111119816D01*
X201467070Y-110992262D01*
X201467069Y-110992262D01*
X206263312Y-106196019D01*
X206303541Y-106169139D01*
X206350994Y-106159700D01*
X208279834Y-106159700D01*
X208342445Y-106176668D01*
X208387920Y-106222927D01*
X208388327Y-106223651D01*
X208391439Y-106231542D01*
X208482878Y-106352122D01*
X208603458Y-106443561D01*
X208744236Y-106499077D01*
X208832698Y-106509700D01*
X210365201Y-106509700D01*
X210368902Y-106509700D01*
X210457364Y-106499077D01*
X210598142Y-106443561D01*
X210718722Y-106352122D01*
X210810161Y-106231542D01*
X210865677Y-106090764D01*
X210876300Y-106002302D01*
X210876300Y-104716098D01*
X210865677Y-104627636D01*
X210810161Y-104486858D01*
X210718722Y-104366278D01*
X210598142Y-104274839D01*
X210457364Y-104219323D01*
X210449474Y-104218375D01*
X210449468Y-104218374D01*
X210372581Y-104209141D01*
X210372567Y-104209140D01*
X210368902Y-104208700D01*
X210075802Y-104208700D01*
X210018828Y-104194836D01*
X209974594Y-104156344D01*
X209952991Y-104101832D01*
X209958851Y-104043488D01*
X209990862Y-103994360D01*
X210041867Y-103965434D01*
X210143189Y-103936605D01*
X210334055Y-103841566D01*
X210504207Y-103713072D01*
X210647852Y-103555502D01*
X210760098Y-103374219D01*
X210837121Y-103175398D01*
X210876300Y-102965810D01*
X210876300Y-102752590D01*
X210837121Y-102543002D01*
X210760098Y-102344181D01*
X210647852Y-102162898D01*
X210504207Y-102005328D01*
X210334055Y-101876834D01*
X210143189Y-101781795D01*
X210137676Y-101780226D01*
X210137670Y-101780224D01*
X209955760Y-101728466D01*
X209901207Y-101696067D01*
X209869822Y-101640924D01*
X209869822Y-101577476D01*
X209901207Y-101522333D01*
X209955760Y-101489934D01*
X210143189Y-101436605D01*
X210334055Y-101341566D01*
X210504207Y-101213072D01*
X210647852Y-101055502D01*
X210760098Y-100874219D01*
X210837121Y-100675398D01*
X210876300Y-100465810D01*
X210876300Y-100252590D01*
X210837121Y-100043002D01*
X210760098Y-99844181D01*
X210647852Y-99662898D01*
X210504207Y-99505328D01*
X210334055Y-99376834D01*
X210241066Y-99330531D01*
X210190495Y-99284132D01*
X210172348Y-99217941D01*
X210192187Y-99152237D01*
X210243934Y-99107150D01*
X210398463Y-99035092D01*
X210407817Y-99029691D01*
X210592442Y-98900415D01*
X210600707Y-98893480D01*
X210760078Y-98734109D01*
X210767015Y-98725843D01*
X210896298Y-98541208D01*
X210901686Y-98531876D01*
X210996943Y-98327597D01*
X211000631Y-98317463D01*
X211058969Y-98099743D01*
X211060840Y-98089132D01*
X211066331Y-98026376D01*
X211063759Y-98012934D01*
X211050591Y-98009200D01*
X208151009Y-98009200D01*
X208137840Y-98012934D01*
X208135268Y-98026376D01*
X208140759Y-98089132D01*
X208142630Y-98099743D01*
X208200968Y-98317463D01*
X208204656Y-98327597D01*
X208299910Y-98531867D01*
X208305308Y-98541217D01*
X208434584Y-98725842D01*
X208441519Y-98734107D01*
X208600892Y-98893480D01*
X208609157Y-98900415D01*
X208793782Y-99029691D01*
X208803132Y-99035089D01*
X208957666Y-99107150D01*
X209009412Y-99152237D01*
X209029251Y-99217941D01*
X209011105Y-99284132D01*
X208960533Y-99330532D01*
X208872671Y-99374281D01*
X208872666Y-99374283D01*
X208867545Y-99376834D01*
X208862977Y-99380283D01*
X208862973Y-99380286D01*
X208701964Y-99501875D01*
X208701956Y-99501881D01*
X208697393Y-99505328D01*
X208693539Y-99509554D01*
X208693534Y-99509560D01*
X208557603Y-99658668D01*
X208557597Y-99658675D01*
X208553748Y-99662898D01*
X208550740Y-99667755D01*
X208550734Y-99667764D01*
X208444518Y-99839309D01*
X208444515Y-99839314D01*
X208441502Y-99844181D01*
X208439436Y-99849513D01*
X208439432Y-99849522D01*
X208366550Y-100037654D01*
X208366547Y-100037661D01*
X208364479Y-100043002D01*
X208325300Y-100252590D01*
X208325300Y-100465810D01*
X208364479Y-100675398D01*
X208366548Y-100680740D01*
X208366550Y-100680745D01*
X208439432Y-100868877D01*
X208439434Y-100868881D01*
X208441502Y-100874219D01*
X208553748Y-101055502D01*
X208697393Y-101213072D01*
X208867545Y-101341566D01*
X209058411Y-101436605D01*
X209063929Y-101438175D01*
X209245839Y-101489934D01*
X209300392Y-101522333D01*
X209331777Y-101577476D01*
X209331777Y-101640924D01*
X209300392Y-101696067D01*
X209245839Y-101728466D01*
X209063929Y-101780224D01*
X209063919Y-101780227D01*
X209058411Y-101781795D01*
X209053276Y-101784351D01*
X209053273Y-101784353D01*
X208872675Y-101874279D01*
X208872670Y-101874282D01*
X208867545Y-101876834D01*
X208862977Y-101880283D01*
X208862973Y-101880286D01*
X208701964Y-102001875D01*
X208701956Y-102001881D01*
X208697393Y-102005328D01*
X208693539Y-102009554D01*
X208693534Y-102009560D01*
X208557603Y-102158668D01*
X208557597Y-102158675D01*
X208553748Y-102162898D01*
X208550740Y-102167755D01*
X208550734Y-102167764D01*
X208444518Y-102339309D01*
X208444515Y-102339314D01*
X208441502Y-102344181D01*
X208439436Y-102349513D01*
X208439432Y-102349522D01*
X208366550Y-102537654D01*
X208366547Y-102537661D01*
X208364479Y-102543002D01*
X208325300Y-102752590D01*
X208325300Y-102965810D01*
X208364479Y-103175398D01*
X208366548Y-103180740D01*
X208366550Y-103180745D01*
X208439432Y-103368877D01*
X208439434Y-103368881D01*
X208441502Y-103374219D01*
X208553748Y-103555502D01*
X208697393Y-103713072D01*
X208867545Y-103841566D01*
X209058411Y-103936605D01*
X209063929Y-103938175D01*
X209159733Y-103965434D01*
X209210738Y-103994360D01*
X209242749Y-104043488D01*
X209248609Y-104101832D01*
X209227006Y-104156344D01*
X209182772Y-104194836D01*
X209125798Y-104208700D01*
X208832698Y-104208700D01*
X208829033Y-104209140D01*
X208829018Y-104209141D01*
X208752131Y-104218374D01*
X208752124Y-104218375D01*
X208744236Y-104219323D01*
X208736840Y-104222239D01*
X208736838Y-104222240D01*
X208611351Y-104271726D01*
X208611348Y-104271727D01*
X208603458Y-104274839D01*
X208596699Y-104279964D01*
X208596698Y-104279965D01*
X208489635Y-104361153D01*
X208489630Y-104361157D01*
X208482878Y-104366278D01*
X208477757Y-104373030D01*
X208477753Y-104373035D01*
X208396563Y-104480100D01*
X208396560Y-104480103D01*
X208391439Y-104486858D01*
X208388327Y-104494748D01*
X208387920Y-104495473D01*
X208342445Y-104541732D01*
X208279834Y-104558700D01*
X206058248Y-104558700D01*
X205877860Y-104558700D01*
X205871074Y-104560248D01*
X205871062Y-104560250D01*
X205840533Y-104567217D01*
X205826835Y-104569545D01*
X205795719Y-104573052D01*
X205795717Y-104573052D01*
X205788799Y-104573832D01*
X205752673Y-104586472D01*
X205739322Y-104590318D01*
X205708780Y-104597289D01*
X205708765Y-104597294D01*
X205701993Y-104598840D01*
X205695731Y-104601855D01*
X205695718Y-104601860D01*
X205667494Y-104615452D01*
X205654655Y-104620770D01*
X205618532Y-104633411D01*
X205612642Y-104637111D01*
X205612629Y-104637118D01*
X205586122Y-104653773D01*
X205573960Y-104660495D01*
X205545743Y-104674084D01*
X205545732Y-104674090D01*
X205539467Y-104677108D01*
X205534022Y-104681449D01*
X205534022Y-104681450D01*
X205509535Y-104700977D01*
X205498204Y-104709016D01*
X205465792Y-104729384D01*
X205460875Y-104734300D01*
X205460871Y-104734304D01*
X205433798Y-104761377D01*
X200541995Y-109653181D01*
X200501767Y-109680061D01*
X200454314Y-109689500D01*
X197702194Y-109689500D01*
X197521806Y-109689500D01*
X197515020Y-109691048D01*
X197515008Y-109691050D01*
X197484479Y-109698017D01*
X197470781Y-109700345D01*
X197439665Y-109703852D01*
X197439663Y-109703852D01*
X197432745Y-109704632D01*
X197396619Y-109717272D01*
X197383268Y-109721118D01*
X197352728Y-109728089D01*
X197352717Y-109728092D01*
X197345939Y-109729640D01*
X197339671Y-109732657D01*
X197339666Y-109732660D01*
X197311451Y-109746247D01*
X197298613Y-109751565D01*
X197269047Y-109761911D01*
X197269037Y-109761915D01*
X197262478Y-109764211D01*
X197256589Y-109767910D01*
X197256587Y-109767912D01*
X197230064Y-109784577D01*
X197217900Y-109791299D01*
X197189693Y-109804883D01*
X197189682Y-109804889D01*
X197183413Y-109807909D01*
X197177967Y-109812251D01*
X197177965Y-109812253D01*
X197153487Y-109831773D01*
X197142152Y-109839816D01*
X197115635Y-109856478D01*
X197115631Y-109856480D01*
X197109738Y-109860184D01*
X197104817Y-109865104D01*
X197104813Y-109865108D01*
X197077744Y-109892177D01*
X195030741Y-111939181D01*
X194990513Y-111966061D01*
X194943060Y-111975500D01*
X188434368Y-111975500D01*
X188373453Y-111959506D01*
X188328251Y-111915650D01*
X188310425Y-111855246D01*
X188324571Y-111793875D01*
X188326921Y-111789396D01*
X188347893Y-111749438D01*
X188387500Y-111588749D01*
X188387500Y-111423251D01*
X188347893Y-111262562D01*
X188270983Y-111116021D01*
X188258561Y-111102000D01*
X188199968Y-111035862D01*
X188161237Y-110992144D01*
X188155068Y-110987885D01*
X188155066Y-110987884D01*
X188031211Y-110902393D01*
X188031210Y-110902392D01*
X188025035Y-110898130D01*
X188018020Y-110895469D01*
X188018017Y-110895468D01*
X187877307Y-110842104D01*
X187877301Y-110842102D01*
X187870291Y-110839444D01*
X187862846Y-110838539D01*
X187862842Y-110838539D01*
X187750939Y-110824951D01*
X187750927Y-110824950D01*
X187747219Y-110824500D01*
X187743470Y-110824500D01*
X178586332Y-110824500D01*
X178578846Y-110824274D01*
X178528037Y-110821200D01*
X178528029Y-110821200D01*
X178520550Y-110820748D01*
X178489780Y-110826386D01*
X178463103Y-110831274D01*
X178455707Y-110832399D01*
X178405158Y-110838538D01*
X178405146Y-110838540D01*
X178397709Y-110839444D01*
X178390702Y-110842100D01*
X178390698Y-110842102D01*
X178389244Y-110842653D01*
X178388767Y-110842834D01*
X178367173Y-110848854D01*
X178365145Y-110849225D01*
X178365137Y-110849227D01*
X178357763Y-110850579D01*
X178350923Y-110853657D01*
X178350921Y-110853658D01*
X178304488Y-110874555D01*
X178297572Y-110877419D01*
X178249978Y-110895469D01*
X178249969Y-110895473D01*
X178242965Y-110898130D01*
X178236799Y-110902385D01*
X178236791Y-110902390D01*
X178235093Y-110903563D01*
X178215565Y-110914576D01*
X178213695Y-110915417D01*
X178213682Y-110915424D01*
X178206845Y-110918502D01*
X178200944Y-110923124D01*
X178200934Y-110923131D01*
X178160853Y-110954532D01*
X178154824Y-110958968D01*
X178112936Y-110987882D01*
X178112930Y-110987886D01*
X178106763Y-110992144D01*
X178101794Y-110997751D01*
X178101790Y-110997756D01*
X178068030Y-111035862D01*
X178062898Y-111041313D01*
X176077253Y-113026959D01*
X176077250Y-113026962D01*
X175396813Y-113707400D01*
X174795313Y-114308898D01*
X174789862Y-114314030D01*
X174751756Y-114347790D01*
X174751751Y-114347794D01*
X174746144Y-114352763D01*
X174741886Y-114358930D01*
X174741882Y-114358936D01*
X174712968Y-114400824D01*
X174708532Y-114406853D01*
X174677131Y-114446934D01*
X174677124Y-114446944D01*
X174672502Y-114452845D01*
X174669424Y-114459682D01*
X174669417Y-114459695D01*
X174668576Y-114461565D01*
X174657563Y-114481093D01*
X174656390Y-114482791D01*
X174656385Y-114482799D01*
X174652130Y-114488965D01*
X174649473Y-114495969D01*
X174649469Y-114495978D01*
X174631419Y-114543572D01*
X174628555Y-114550488D01*
X174607815Y-114596572D01*
X174604579Y-114603763D01*
X174603227Y-114611137D01*
X174603225Y-114611145D01*
X174602854Y-114613173D01*
X174596834Y-114634770D01*
X174596102Y-114636698D01*
X174596100Y-114636702D01*
X174593444Y-114643709D01*
X174592540Y-114651146D01*
X174592538Y-114651158D01*
X174586399Y-114701707D01*
X174585274Y-114709103D01*
X174582007Y-114726933D01*
X174574748Y-114766550D01*
X174575201Y-114774036D01*
X174578274Y-114824846D01*
X174578500Y-114832332D01*
X174578500Y-115611219D01*
X174578950Y-115614927D01*
X174578951Y-115614939D01*
X174592539Y-115726842D01*
X174592539Y-115726846D01*
X174593444Y-115734291D01*
X174596102Y-115741301D01*
X174596104Y-115741307D01*
X174649468Y-115882017D01*
X174652130Y-115889035D01*
X174746144Y-116025237D01*
X174777238Y-116052784D01*
X174864406Y-116130009D01*
X174864408Y-116130010D01*
X174870021Y-116134983D01*
X175016562Y-116211893D01*
X175177251Y-116251500D01*
X175335250Y-116251500D01*
X175342749Y-116251500D01*
X175503438Y-116211893D01*
X175649979Y-116134983D01*
X175773856Y-116025237D01*
X175867870Y-115889035D01*
X175926556Y-115734291D01*
X175941500Y-115611219D01*
X175941500Y-115141649D01*
X175950939Y-115094196D01*
X175977819Y-115053968D01*
X176507626Y-114524161D01*
X177041040Y-113990747D01*
X177041040Y-113990746D01*
X178807967Y-112223819D01*
X178848196Y-112196939D01*
X178895649Y-112187500D01*
X179649414Y-112187500D01*
X179705709Y-112201015D01*
X179749732Y-112238615D01*
X179771887Y-112292102D01*
X179767345Y-112349818D01*
X179737095Y-112399181D01*
X177789009Y-114347266D01*
X177789005Y-114347270D01*
X177784084Y-114352192D01*
X177780379Y-114358086D01*
X177780379Y-114358088D01*
X177763716Y-114384606D01*
X177755673Y-114395941D01*
X177736153Y-114420419D01*
X177736151Y-114420421D01*
X177731809Y-114425867D01*
X177728789Y-114432136D01*
X177728783Y-114432147D01*
X177715199Y-114460354D01*
X177708477Y-114472518D01*
X177692747Y-114497554D01*
X177688111Y-114504932D01*
X177685815Y-114511491D01*
X177685811Y-114511501D01*
X177675465Y-114541067D01*
X177670147Y-114553905D01*
X177656560Y-114582120D01*
X177656557Y-114582125D01*
X177653540Y-114588393D01*
X177651992Y-114595171D01*
X177651989Y-114595182D01*
X177645018Y-114625722D01*
X177641172Y-114639073D01*
X177628532Y-114675199D01*
X177627752Y-114682117D01*
X177627752Y-114682119D01*
X177624245Y-114713235D01*
X177621917Y-114726933D01*
X177614950Y-114757462D01*
X177614948Y-114757474D01*
X177613400Y-114764260D01*
X177613400Y-114771226D01*
X177613400Y-129397006D01*
X177603961Y-129444459D01*
X177577081Y-129484687D01*
X177550487Y-129511281D01*
X177510259Y-129538161D01*
X177462806Y-129547600D01*
X176842095Y-129547600D01*
X176661706Y-129547600D01*
X176654920Y-129549148D01*
X176654908Y-129549150D01*
X176624379Y-129556117D01*
X176610681Y-129558445D01*
X176579565Y-129561952D01*
X176579563Y-129561952D01*
X176572645Y-129562732D01*
X176536519Y-129575372D01*
X176523168Y-129579218D01*
X176492626Y-129586189D01*
X176492611Y-129586194D01*
X176485839Y-129587740D01*
X176479572Y-129590757D01*
X176479574Y-129590757D01*
X176451341Y-129604352D01*
X176438503Y-129609669D01*
X176408946Y-129620012D01*
X176408941Y-129620014D01*
X176402378Y-129622311D01*
X176396492Y-129626008D01*
X176396482Y-129626014D01*
X176369966Y-129642675D01*
X176357803Y-129649397D01*
X176329595Y-129662982D01*
X176329587Y-129662986D01*
X176323314Y-129666008D01*
X176293378Y-129689879D01*
X176282055Y-129697913D01*
X176273126Y-129703524D01*
X176255533Y-129714579D01*
X176255528Y-129714582D01*
X176249638Y-129718284D01*
X176244715Y-129723206D01*
X176244711Y-129723210D01*
X173454741Y-132513181D01*
X173414513Y-132540061D01*
X173367060Y-132549500D01*
X167849046Y-132549500D01*
X167845588Y-132549889D01*
X167845581Y-132549890D01*
X167721666Y-132563852D01*
X167721664Y-132563852D01*
X167714745Y-132564632D01*
X167708176Y-132566930D01*
X167708174Y-132566931D01*
X167551043Y-132621913D01*
X167551036Y-132621915D01*
X167544478Y-132624211D01*
X167538590Y-132627910D01*
X167538587Y-132627912D01*
X167397638Y-132716476D01*
X167397633Y-132716479D01*
X167391738Y-132720184D01*
X167386813Y-132725108D01*
X167386809Y-132725112D01*
X167269112Y-132842809D01*
X167269108Y-132842813D01*
X167264184Y-132847738D01*
X167260479Y-132853633D01*
X167260476Y-132853638D01*
X167171912Y-132994587D01*
X167171910Y-132994590D01*
X167168211Y-133000478D01*
X167165915Y-133007036D01*
X167165913Y-133007043D01*
X167110930Y-133164175D01*
X167110928Y-133164182D01*
X167108632Y-133170745D01*
X167088435Y-133350000D01*
X165161300Y-133350000D01*
X165161300Y-121002829D01*
X167689001Y-121002829D01*
X167689321Y-121009111D01*
X167698805Y-121101959D01*
X167701623Y-121115122D01*
X167752370Y-121268267D01*
X167758432Y-121281266D01*
X167842890Y-121418194D01*
X167851794Y-121429455D01*
X167965544Y-121543205D01*
X167976805Y-121552109D01*
X168113733Y-121636567D01*
X168126732Y-121642629D01*
X168279874Y-121693375D01*
X168293041Y-121696194D01*
X168385890Y-121705680D01*
X168392168Y-121706000D01*
X168997674Y-121706000D01*
X169010549Y-121702549D01*
X169014000Y-121689674D01*
X169014000Y-121689673D01*
X169314000Y-121689673D01*
X169317450Y-121702548D01*
X169330326Y-121705999D01*
X169935829Y-121705999D01*
X169942111Y-121705678D01*
X170034959Y-121696194D01*
X170048122Y-121693376D01*
X170201267Y-121642629D01*
X170214266Y-121636567D01*
X170351194Y-121552109D01*
X170362455Y-121543205D01*
X170476205Y-121429455D01*
X170485109Y-121418194D01*
X170569567Y-121281266D01*
X170575629Y-121268267D01*
X170626375Y-121115125D01*
X170629194Y-121101958D01*
X170638680Y-121009109D01*
X170639000Y-121002832D01*
X170639000Y-120522326D01*
X170635549Y-120509450D01*
X170622674Y-120506000D01*
X169330326Y-120506000D01*
X169317450Y-120509450D01*
X169314000Y-120522326D01*
X169314000Y-121689673D01*
X169014000Y-121689673D01*
X169014000Y-120522326D01*
X169010549Y-120509450D01*
X168997674Y-120506000D01*
X167705327Y-120506000D01*
X167692451Y-120509450D01*
X167689001Y-120522326D01*
X167689001Y-121002829D01*
X165161300Y-121002829D01*
X165161300Y-120189674D01*
X167689000Y-120189674D01*
X167692450Y-120202549D01*
X167705326Y-120206000D01*
X170622673Y-120206000D01*
X170635548Y-120202549D01*
X170638999Y-120189674D01*
X170638999Y-119709171D01*
X170638678Y-119702888D01*
X170629194Y-119610040D01*
X170626376Y-119596877D01*
X170575629Y-119443732D01*
X170569567Y-119430733D01*
X170485109Y-119293805D01*
X170476205Y-119282544D01*
X170362455Y-119168794D01*
X170351194Y-119159890D01*
X170214266Y-119075432D01*
X170201267Y-119069370D01*
X170048125Y-119018624D01*
X170034958Y-119015805D01*
X170020722Y-119014351D01*
X169965328Y-118994686D01*
X169925215Y-118951719D01*
X169909395Y-118895107D01*
X169921425Y-118837571D01*
X169958597Y-118792041D01*
X170067407Y-118709872D01*
X170211052Y-118552302D01*
X170323298Y-118371019D01*
X170400321Y-118172198D01*
X170439500Y-117962610D01*
X170439500Y-117749390D01*
X170400321Y-117539802D01*
X170323298Y-117340981D01*
X170211052Y-117159698D01*
X170067407Y-117002128D01*
X169897255Y-116873634D01*
X169706389Y-116778595D01*
X169700876Y-116777026D01*
X169700870Y-116777024D01*
X169506831Y-116721814D01*
X169506821Y-116721812D01*
X169501310Y-116720244D01*
X169495597Y-116719714D01*
X169495594Y-116719714D01*
X169345054Y-116705765D01*
X169345053Y-116705764D01*
X169342194Y-116705500D01*
X168985806Y-116705500D01*
X168982947Y-116705764D01*
X168982945Y-116705765D01*
X168832405Y-116719714D01*
X168832400Y-116719714D01*
X168826690Y-116720244D01*
X168821179Y-116721811D01*
X168821168Y-116721814D01*
X168627129Y-116777024D01*
X168627119Y-116777027D01*
X168621611Y-116778595D01*
X168616476Y-116781151D01*
X168616473Y-116781153D01*
X168435875Y-116871079D01*
X168435870Y-116871082D01*
X168430745Y-116873634D01*
X168426177Y-116877083D01*
X168426173Y-116877086D01*
X168265164Y-116998675D01*
X168265156Y-116998681D01*
X168260593Y-117002128D01*
X168256739Y-117006354D01*
X168256734Y-117006360D01*
X168120803Y-117155468D01*
X168120797Y-117155475D01*
X168116948Y-117159698D01*
X168113940Y-117164555D01*
X168113934Y-117164564D01*
X168007718Y-117336109D01*
X168007715Y-117336114D01*
X168004702Y-117340981D01*
X168002636Y-117346313D01*
X168002632Y-117346322D01*
X167929750Y-117534454D01*
X167929747Y-117534461D01*
X167927679Y-117539802D01*
X167926625Y-117545436D01*
X167926625Y-117545439D01*
X167925350Y-117552263D01*
X167888500Y-117749390D01*
X167888500Y-117962610D01*
X167927679Y-118172198D01*
X167929748Y-118177540D01*
X167929750Y-118177545D01*
X168002632Y-118365677D01*
X168002634Y-118365681D01*
X168004702Y-118371019D01*
X168116948Y-118552302D01*
X168260593Y-118709872D01*
X168265163Y-118713323D01*
X168265164Y-118713324D01*
X168369399Y-118792039D01*
X168406574Y-118837571D01*
X168418604Y-118895107D01*
X168402785Y-118951719D01*
X168362672Y-118994685D01*
X168307279Y-119014350D01*
X168293046Y-119015804D01*
X168279877Y-119018623D01*
X168126732Y-119069370D01*
X168113733Y-119075432D01*
X167976805Y-119159890D01*
X167965544Y-119168794D01*
X167851794Y-119282544D01*
X167842890Y-119293805D01*
X167758432Y-119430733D01*
X167752370Y-119443732D01*
X167701624Y-119596874D01*
X167698805Y-119610041D01*
X167689319Y-119702890D01*
X167689000Y-119709168D01*
X167689000Y-120189674D01*
X165161300Y-120189674D01*
X165161300Y-111419176D01*
X167698468Y-111419176D01*
X167703959Y-111481932D01*
X167705830Y-111492543D01*
X167764168Y-111710263D01*
X167767856Y-111720397D01*
X167863110Y-111924667D01*
X167868508Y-111934017D01*
X167997784Y-112118642D01*
X168004719Y-112126907D01*
X168164092Y-112286280D01*
X168172357Y-112293215D01*
X168356982Y-112422491D01*
X168366332Y-112427889D01*
X168570602Y-112523143D01*
X168580736Y-112526831D01*
X168798446Y-112585166D01*
X168809078Y-112587041D01*
X168977354Y-112601763D01*
X168982764Y-112602000D01*
X168997674Y-112602000D01*
X169010549Y-112598549D01*
X169014000Y-112585674D01*
X169314000Y-112585674D01*
X169317450Y-112598549D01*
X169330326Y-112602000D01*
X169345236Y-112602000D01*
X169350645Y-112601763D01*
X169518921Y-112587041D01*
X169529553Y-112585166D01*
X169747263Y-112526831D01*
X169757397Y-112523143D01*
X169961667Y-112427889D01*
X169971017Y-112422491D01*
X170155642Y-112293215D01*
X170163907Y-112286280D01*
X170323278Y-112126909D01*
X170330215Y-112118643D01*
X170459498Y-111934008D01*
X170464886Y-111924676D01*
X170560143Y-111720397D01*
X170563831Y-111710263D01*
X170622169Y-111492543D01*
X170624040Y-111481932D01*
X170629531Y-111419176D01*
X170626959Y-111405734D01*
X170613791Y-111402000D01*
X169330326Y-111402000D01*
X169317450Y-111405450D01*
X169314000Y-111418326D01*
X169314000Y-112585674D01*
X169014000Y-112585674D01*
X169014000Y-111418326D01*
X169010549Y-111405450D01*
X168997674Y-111402000D01*
X167714209Y-111402000D01*
X167701040Y-111405734D01*
X167698468Y-111419176D01*
X165161300Y-111419176D01*
X165161300Y-111084823D01*
X167698468Y-111084823D01*
X167701040Y-111098265D01*
X167714209Y-111102000D01*
X170613791Y-111102000D01*
X170626959Y-111098265D01*
X170629531Y-111084823D01*
X170624040Y-111022067D01*
X170622169Y-111011456D01*
X170563831Y-110793736D01*
X170560143Y-110783602D01*
X170464889Y-110579332D01*
X170459491Y-110569982D01*
X170330215Y-110385357D01*
X170323280Y-110377092D01*
X170163907Y-110217719D01*
X170155642Y-110210784D01*
X169971017Y-110081508D01*
X169961667Y-110076110D01*
X169807133Y-110004049D01*
X169755387Y-109958961D01*
X169735548Y-109893257D01*
X169753695Y-109827066D01*
X169804264Y-109780669D01*
X169884645Y-109740645D01*
X189941492Y-109740645D01*
X189949368Y-109748521D01*
X190032304Y-109800633D01*
X190044765Y-109806634D01*
X190201782Y-109861576D01*
X190215280Y-109864657D01*
X190380577Y-109883282D01*
X190394423Y-109883282D01*
X190559719Y-109864657D01*
X190573217Y-109861576D01*
X190730234Y-109806634D01*
X190742694Y-109800633D01*
X190825629Y-109748522D01*
X190833506Y-109740645D01*
X191466492Y-109740645D01*
X191474368Y-109748521D01*
X191557304Y-109800633D01*
X191569765Y-109806634D01*
X191726782Y-109861576D01*
X191740280Y-109864657D01*
X191905577Y-109883282D01*
X191919423Y-109883282D01*
X192084719Y-109864657D01*
X192098217Y-109861576D01*
X192255234Y-109806634D01*
X192267694Y-109800633D01*
X192350629Y-109748522D01*
X192358506Y-109740645D01*
X192352577Y-109731209D01*
X191924042Y-109302674D01*
X191912500Y-109296010D01*
X191900956Y-109302675D01*
X191472421Y-109731209D01*
X191466492Y-109740645D01*
X190833506Y-109740645D01*
X190827577Y-109731209D01*
X190399042Y-109302674D01*
X190387500Y-109296010D01*
X190375956Y-109302675D01*
X189947421Y-109731209D01*
X189941492Y-109740645D01*
X169884645Y-109740645D01*
X169897255Y-109734366D01*
X170067407Y-109605872D01*
X170211052Y-109448302D01*
X170323298Y-109267019D01*
X170400321Y-109068198D01*
X170439500Y-108858610D01*
X170439500Y-108645390D01*
X170400321Y-108435802D01*
X170323298Y-108236981D01*
X170211052Y-108055698D01*
X170067407Y-107898128D01*
X170041243Y-107878370D01*
X169939835Y-107801789D01*
X169897255Y-107769634D01*
X169706389Y-107674595D01*
X169700876Y-107673026D01*
X169700870Y-107673024D01*
X169605067Y-107645766D01*
X169554062Y-107616840D01*
X169522051Y-107567712D01*
X169516191Y-107509368D01*
X169537794Y-107454856D01*
X169582028Y-107416364D01*
X169639002Y-107402500D01*
X169928401Y-107402500D01*
X169932102Y-107402500D01*
X170020564Y-107391877D01*
X170161342Y-107336361D01*
X170281922Y-107244922D01*
X170373361Y-107124342D01*
X170428877Y-106983564D01*
X170439500Y-106895102D01*
X170439500Y-105608898D01*
X170428877Y-105520436D01*
X170373361Y-105379658D01*
X170281922Y-105259078D01*
X170161342Y-105167639D01*
X170020564Y-105112123D01*
X170012674Y-105111175D01*
X170012668Y-105111174D01*
X169935781Y-105101941D01*
X169935767Y-105101940D01*
X169932102Y-105101500D01*
X168395898Y-105101500D01*
X168392233Y-105101940D01*
X168392218Y-105101941D01*
X168315331Y-105111174D01*
X168315324Y-105111175D01*
X168307436Y-105112123D01*
X168300040Y-105115039D01*
X168300038Y-105115040D01*
X168174551Y-105164526D01*
X168174548Y-105164527D01*
X168166658Y-105167639D01*
X168159899Y-105172764D01*
X168159898Y-105172765D01*
X168052835Y-105253953D01*
X168052830Y-105253957D01*
X168046078Y-105259078D01*
X168040957Y-105265830D01*
X168040953Y-105265835D01*
X167963969Y-105367354D01*
X167954639Y-105379658D01*
X167899123Y-105520436D01*
X167898175Y-105528324D01*
X167898174Y-105528331D01*
X167888941Y-105605218D01*
X167888940Y-105605233D01*
X167888500Y-105608898D01*
X167888500Y-106895102D01*
X167888940Y-106898767D01*
X167888941Y-106898781D01*
X167898174Y-106975668D01*
X167898175Y-106975674D01*
X167899123Y-106983564D01*
X167954639Y-107124342D01*
X168046078Y-107244922D01*
X168166658Y-107336361D01*
X168307436Y-107391877D01*
X168395898Y-107402500D01*
X168399599Y-107402500D01*
X168688998Y-107402500D01*
X168745972Y-107416364D01*
X168790206Y-107454856D01*
X168811809Y-107509368D01*
X168805949Y-107567712D01*
X168773938Y-107616840D01*
X168722933Y-107645766D01*
X168627129Y-107673024D01*
X168627119Y-107673027D01*
X168621611Y-107674595D01*
X168616476Y-107677151D01*
X168616473Y-107677153D01*
X168435875Y-107767079D01*
X168435870Y-107767082D01*
X168430745Y-107769634D01*
X168426177Y-107773083D01*
X168426173Y-107773086D01*
X168265164Y-107894675D01*
X168265156Y-107894681D01*
X168260593Y-107898128D01*
X168256739Y-107902354D01*
X168256734Y-107902360D01*
X168120803Y-108051468D01*
X168120797Y-108051475D01*
X168116948Y-108055698D01*
X168113940Y-108060555D01*
X168113934Y-108060564D01*
X168007718Y-108232109D01*
X168007715Y-108232114D01*
X168004702Y-108236981D01*
X168002636Y-108242313D01*
X168002632Y-108242322D01*
X167929750Y-108430454D01*
X167929747Y-108430461D01*
X167927679Y-108435802D01*
X167926625Y-108441436D01*
X167926625Y-108441439D01*
X167891533Y-108629167D01*
X167888500Y-108645390D01*
X167888500Y-108858610D01*
X167889551Y-108864236D01*
X167889552Y-108864239D01*
X167922059Y-109038133D01*
X167927679Y-109068198D01*
X167929748Y-109073540D01*
X167929750Y-109073545D01*
X168002632Y-109261677D01*
X168002634Y-109261681D01*
X168004702Y-109267019D01*
X168007717Y-109271889D01*
X168007718Y-109271890D01*
X168108214Y-109434197D01*
X168116948Y-109448302D01*
X168120801Y-109452529D01*
X168120803Y-109452531D01*
X168181468Y-109519077D01*
X168260593Y-109605872D01*
X168430745Y-109734366D01*
X168523735Y-109780669D01*
X168574304Y-109827066D01*
X168592451Y-109893257D01*
X168572612Y-109958961D01*
X168520866Y-110004049D01*
X168366332Y-110076109D01*
X168356982Y-110081508D01*
X168172357Y-110210784D01*
X168164092Y-110217719D01*
X168004721Y-110377090D01*
X167997784Y-110385356D01*
X167868501Y-110569991D01*
X167863113Y-110579323D01*
X167767856Y-110783602D01*
X167764168Y-110793736D01*
X167705830Y-111011456D01*
X167703959Y-111022067D01*
X167698468Y-111084823D01*
X165161300Y-111084823D01*
X165161300Y-97743176D01*
X167698468Y-97743176D01*
X167703959Y-97805932D01*
X167705830Y-97816543D01*
X167764168Y-98034263D01*
X167767856Y-98044397D01*
X167863110Y-98248667D01*
X167868508Y-98258017D01*
X167997784Y-98442642D01*
X168004719Y-98450907D01*
X168164092Y-98610280D01*
X168172352Y-98617211D01*
X168323428Y-98722996D01*
X168365469Y-98773878D01*
X168375447Y-98839122D01*
X168350537Y-98900244D01*
X168297794Y-98939925D01*
X168174551Y-98988526D01*
X168174548Y-98988527D01*
X168166658Y-98991639D01*
X168159899Y-98996764D01*
X168159898Y-98996765D01*
X168052835Y-99077953D01*
X168052830Y-99077957D01*
X168046078Y-99083078D01*
X168040957Y-99089830D01*
X168040953Y-99089835D01*
X167959765Y-99196898D01*
X167954639Y-99203658D01*
X167951527Y-99211548D01*
X167951526Y-99211551D01*
X167906582Y-99325522D01*
X167899123Y-99344436D01*
X167898175Y-99352324D01*
X167898174Y-99352331D01*
X167888941Y-99429218D01*
X167888940Y-99429233D01*
X167888500Y-99432898D01*
X167888500Y-100719102D01*
X167888940Y-100722767D01*
X167888941Y-100722781D01*
X167898174Y-100799668D01*
X167898175Y-100799674D01*
X167899123Y-100807564D01*
X167954639Y-100948342D01*
X168046078Y-101068922D01*
X168166658Y-101160361D01*
X168307436Y-101215877D01*
X168395898Y-101226500D01*
X169928401Y-101226500D01*
X169932102Y-101226500D01*
X170020564Y-101215877D01*
X170161342Y-101160361D01*
X170281922Y-101068922D01*
X170373361Y-100948342D01*
X170428877Y-100807564D01*
X170439500Y-100719102D01*
X170439500Y-99432898D01*
X170428877Y-99344436D01*
X170373361Y-99203658D01*
X170281922Y-99083078D01*
X170270391Y-99074334D01*
X170205704Y-99025280D01*
X170161342Y-98991639D01*
X170030204Y-98939924D01*
X169977462Y-98900244D01*
X169952552Y-98839122D01*
X169962531Y-98773878D01*
X170004572Y-98722996D01*
X170155642Y-98617215D01*
X170163907Y-98610280D01*
X170323278Y-98450909D01*
X170330215Y-98442643D01*
X170459498Y-98258008D01*
X170464886Y-98248676D01*
X170560143Y-98044397D01*
X170563831Y-98034263D01*
X170622169Y-97816543D01*
X170624040Y-97805932D01*
X170629531Y-97743176D01*
X170626959Y-97729734D01*
X170613791Y-97726000D01*
X167714209Y-97726000D01*
X167701040Y-97729734D01*
X167698468Y-97743176D01*
X165161300Y-97743176D01*
X165161300Y-97408823D01*
X167698468Y-97408823D01*
X167701040Y-97422265D01*
X167714209Y-97426000D01*
X168997674Y-97426000D01*
X169010549Y-97422549D01*
X169014000Y-97409674D01*
X169314000Y-97409674D01*
X169317450Y-97422549D01*
X169330326Y-97426000D01*
X170613791Y-97426000D01*
X170626959Y-97422265D01*
X170629531Y-97408823D01*
X170624040Y-97346067D01*
X170622169Y-97335456D01*
X170563831Y-97117736D01*
X170560143Y-97107602D01*
X170464889Y-96903332D01*
X170459491Y-96893982D01*
X170427376Y-96848117D01*
X174506829Y-96848117D01*
X174507211Y-96852971D01*
X174518196Y-96992557D01*
X174525483Y-97085142D01*
X174526618Y-97089871D01*
X174526619Y-97089875D01*
X174579849Y-97311594D01*
X174579851Y-97311602D01*
X174580987Y-97316331D01*
X174671973Y-97535990D01*
X174674520Y-97540147D01*
X174674521Y-97540148D01*
X174793653Y-97734555D01*
X174793656Y-97734560D01*
X174796201Y-97738712D01*
X174799362Y-97742414D01*
X174799365Y-97742417D01*
X174923711Y-97888008D01*
X174950612Y-97919505D01*
X174954312Y-97922665D01*
X175096842Y-98044397D01*
X175131405Y-98073916D01*
X175334127Y-98198144D01*
X175553786Y-98289130D01*
X175784975Y-98344634D01*
X176022000Y-98363288D01*
X176259025Y-98344634D01*
X176490214Y-98289130D01*
X176709873Y-98198144D01*
X176912595Y-98073916D01*
X177093388Y-97919505D01*
X177247799Y-97738712D01*
X177372027Y-97535990D01*
X177463013Y-97316331D01*
X177471255Y-97282000D01*
X181977874Y-97282000D01*
X181978778Y-97289445D01*
X181995802Y-97429659D01*
X181995803Y-97429664D01*
X181996707Y-97437107D01*
X181999366Y-97444120D01*
X181999367Y-97444121D01*
X182035785Y-97540148D01*
X182052113Y-97583199D01*
X182056376Y-97589375D01*
X182127228Y-97692023D01*
X182140871Y-97711787D01*
X182257822Y-97815397D01*
X182396171Y-97888008D01*
X182403451Y-97889802D01*
X182403453Y-97889803D01*
X182419712Y-97893810D01*
X182438664Y-97898481D01*
X182496672Y-97931197D01*
X184071181Y-99505706D01*
X184098061Y-99545934D01*
X184107500Y-99593387D01*
X184107500Y-108592279D01*
X184101886Y-108629167D01*
X184090996Y-108651533D01*
X184091860Y-108651987D01*
X184088375Y-108658625D01*
X184084113Y-108664801D01*
X184081453Y-108671812D01*
X184081451Y-108671818D01*
X184031367Y-108803878D01*
X184028707Y-108810893D01*
X184027803Y-108818333D01*
X184027802Y-108818340D01*
X184011451Y-108953010D01*
X184009874Y-108966000D01*
X184010778Y-108973445D01*
X184027802Y-109113659D01*
X184027803Y-109113664D01*
X184028707Y-109121107D01*
X184031366Y-109128120D01*
X184031367Y-109128121D01*
X184078055Y-109251227D01*
X184084113Y-109267199D01*
X184172871Y-109395787D01*
X184289822Y-109499397D01*
X184428171Y-109572008D01*
X184579877Y-109609400D01*
X184728623Y-109609400D01*
X184736123Y-109609400D01*
X184887829Y-109572008D01*
X185026178Y-109499397D01*
X185143129Y-109395787D01*
X185231887Y-109267199D01*
X185287293Y-109121107D01*
X185304651Y-108978145D01*
X189178992Y-108978145D01*
X189186868Y-108986021D01*
X189269804Y-109038133D01*
X189282265Y-109044134D01*
X189439284Y-109099077D01*
X189452771Y-109102155D01*
X189488481Y-109106178D01*
X189540569Y-109124404D01*
X189579591Y-109163425D01*
X189597819Y-109215513D01*
X189601843Y-109251219D01*
X189604923Y-109264717D01*
X189659865Y-109421734D01*
X189665867Y-109434197D01*
X189717975Y-109517128D01*
X189725854Y-109525006D01*
X189735288Y-109519078D01*
X190163825Y-109090542D01*
X190170488Y-109079000D01*
X190604510Y-109079000D01*
X190611174Y-109090542D01*
X191039709Y-109519077D01*
X191049144Y-109525005D01*
X191062316Y-109511834D01*
X191117904Y-109479740D01*
X191182092Y-109479739D01*
X191237680Y-109511833D01*
X191250853Y-109525006D01*
X191260288Y-109519078D01*
X191688825Y-109090542D01*
X191695488Y-109079000D01*
X192129510Y-109079000D01*
X192136174Y-109090542D01*
X192564709Y-109519077D01*
X192574145Y-109525006D01*
X192582022Y-109517129D01*
X192634133Y-109434194D01*
X192640134Y-109421734D01*
X192695077Y-109264715D01*
X192698155Y-109251227D01*
X192702178Y-109215518D01*
X192720405Y-109163428D01*
X192759428Y-109124405D01*
X192811518Y-109106178D01*
X192847227Y-109102155D01*
X192860715Y-109099077D01*
X193017734Y-109044134D01*
X193030194Y-109038133D01*
X193113129Y-108986022D01*
X193121006Y-108978145D01*
X193115077Y-108968709D01*
X192686542Y-108540174D01*
X192675000Y-108533510D01*
X192663457Y-108540174D01*
X192136174Y-109067457D01*
X192129510Y-109079000D01*
X191695488Y-109079000D01*
X191695489Y-109078999D01*
X191688825Y-109067457D01*
X191161542Y-108540174D01*
X191150000Y-108533510D01*
X191138457Y-108540174D01*
X190611174Y-109067457D01*
X190604510Y-109079000D01*
X190170488Y-109079000D01*
X190170489Y-109078999D01*
X190163825Y-109067457D01*
X189636542Y-108540174D01*
X189625000Y-108533510D01*
X189613456Y-108540175D01*
X189184921Y-108968709D01*
X189178992Y-108978145D01*
X185304651Y-108978145D01*
X185306126Y-108966000D01*
X185287293Y-108810893D01*
X185231887Y-108664801D01*
X185227623Y-108658623D01*
X185224140Y-108651987D01*
X185225003Y-108651533D01*
X185214114Y-108629167D01*
X185208500Y-108592279D01*
X185208500Y-108323423D01*
X188820718Y-108323423D01*
X188839342Y-108488719D01*
X188842423Y-108502217D01*
X188897365Y-108659234D01*
X188903367Y-108671697D01*
X188955475Y-108754628D01*
X188963354Y-108762506D01*
X188972788Y-108756578D01*
X189401325Y-108328042D01*
X189407989Y-108316500D01*
X189842010Y-108316500D01*
X189848674Y-108328042D01*
X190375957Y-108855325D01*
X190387500Y-108861989D01*
X190399042Y-108855325D01*
X190926325Y-108328042D01*
X190932989Y-108316500D01*
X191367010Y-108316500D01*
X191373674Y-108328042D01*
X191900957Y-108855325D01*
X191912500Y-108861989D01*
X191924042Y-108855325D01*
X192451325Y-108328042D01*
X192457989Y-108316500D01*
X192892010Y-108316500D01*
X192898674Y-108328042D01*
X193327209Y-108756577D01*
X193336645Y-108762506D01*
X193344522Y-108754629D01*
X193396633Y-108671694D01*
X193402634Y-108659234D01*
X193457576Y-108502217D01*
X193460657Y-108488719D01*
X193479282Y-108323423D01*
X193479282Y-108309577D01*
X193460657Y-108144280D01*
X193457576Y-108130782D01*
X193402634Y-107973765D01*
X193396633Y-107961304D01*
X193344521Y-107878368D01*
X193336645Y-107870492D01*
X193327209Y-107876421D01*
X192898675Y-108304956D01*
X192892010Y-108316500D01*
X192457989Y-108316500D01*
X192451325Y-108304957D01*
X191924042Y-107777674D01*
X191912500Y-107771010D01*
X191900957Y-107777674D01*
X191373674Y-108304957D01*
X191367010Y-108316500D01*
X190932989Y-108316500D01*
X190926325Y-108304957D01*
X190399042Y-107777674D01*
X190387500Y-107771010D01*
X190375957Y-107777674D01*
X189848674Y-108304957D01*
X189842010Y-108316500D01*
X189407989Y-108316500D01*
X189401325Y-108304957D01*
X188972788Y-107876420D01*
X188963354Y-107870492D01*
X188955476Y-107878370D01*
X188903367Y-107961302D01*
X188897365Y-107973765D01*
X188842423Y-108130782D01*
X188839342Y-108144280D01*
X188820718Y-108309577D01*
X188820718Y-108323423D01*
X185208500Y-108323423D01*
X185208500Y-107654854D01*
X189178992Y-107654854D01*
X189184920Y-107664288D01*
X189613457Y-108092825D01*
X189624999Y-108099489D01*
X189636542Y-108092825D01*
X190163825Y-107565542D01*
X190170489Y-107554000D01*
X190604510Y-107554000D01*
X190611174Y-107565542D01*
X191138457Y-108092825D01*
X191149999Y-108099489D01*
X191161542Y-108092825D01*
X191688825Y-107565542D01*
X191695489Y-107554000D01*
X192129510Y-107554000D01*
X192136174Y-107565542D01*
X192663457Y-108092825D01*
X192674999Y-108099489D01*
X192686542Y-108092825D01*
X193115078Y-107664288D01*
X193121006Y-107654853D01*
X193107833Y-107641680D01*
X193075739Y-107586092D01*
X193075740Y-107521904D01*
X193107834Y-107466316D01*
X193121005Y-107453144D01*
X193115077Y-107443709D01*
X192686542Y-107015174D01*
X192675000Y-107008510D01*
X192663457Y-107015174D01*
X192136174Y-107542457D01*
X192129510Y-107554000D01*
X191695489Y-107554000D01*
X191688825Y-107542457D01*
X191161542Y-107015174D01*
X191150000Y-107008510D01*
X191138457Y-107015174D01*
X190611174Y-107542457D01*
X190604510Y-107554000D01*
X190170489Y-107554000D01*
X190163825Y-107542457D01*
X189636542Y-107015174D01*
X189625000Y-107008510D01*
X189613456Y-107015175D01*
X189184921Y-107443709D01*
X189178992Y-107453145D01*
X189192165Y-107466318D01*
X189224259Y-107521905D01*
X189224259Y-107586091D01*
X189192167Y-107641679D01*
X189178992Y-107654854D01*
X185208500Y-107654854D01*
X185208500Y-106798423D01*
X188820718Y-106798423D01*
X188839342Y-106963719D01*
X188842423Y-106977217D01*
X188897365Y-107134234D01*
X188903367Y-107146697D01*
X188955475Y-107229628D01*
X188963354Y-107237506D01*
X188972788Y-107231578D01*
X189401325Y-106803042D01*
X189407989Y-106791500D01*
X189842010Y-106791500D01*
X189848674Y-106803042D01*
X190375957Y-107330325D01*
X190387500Y-107336989D01*
X190399042Y-107330325D01*
X190926325Y-106803042D01*
X190932989Y-106791500D01*
X191367010Y-106791500D01*
X191373674Y-106803042D01*
X191900957Y-107330325D01*
X191912500Y-107336989D01*
X191924042Y-107330325D01*
X192451325Y-106803042D01*
X192457989Y-106791500D01*
X192892010Y-106791500D01*
X192898674Y-106803042D01*
X193327209Y-107231577D01*
X193336645Y-107237506D01*
X193344522Y-107229629D01*
X193396633Y-107146694D01*
X193402634Y-107134234D01*
X193457576Y-106977217D01*
X193460657Y-106963719D01*
X193479282Y-106798423D01*
X193479282Y-106784577D01*
X193460657Y-106619280D01*
X193457576Y-106605782D01*
X193402634Y-106448765D01*
X193396633Y-106436304D01*
X193344521Y-106353368D01*
X193336645Y-106345492D01*
X193327209Y-106351421D01*
X192898675Y-106779956D01*
X192892010Y-106791500D01*
X192457989Y-106791500D01*
X192451325Y-106779957D01*
X191924042Y-106252674D01*
X191912499Y-106246010D01*
X191900957Y-106252674D01*
X191373674Y-106779957D01*
X191367010Y-106791500D01*
X190932989Y-106791500D01*
X190926325Y-106779957D01*
X190399042Y-106252674D01*
X190387499Y-106246010D01*
X190375957Y-106252674D01*
X189848674Y-106779957D01*
X189842010Y-106791500D01*
X189407989Y-106791500D01*
X189401325Y-106779957D01*
X188972788Y-106351420D01*
X188963354Y-106345492D01*
X188955476Y-106353370D01*
X188903367Y-106436302D01*
X188897365Y-106448765D01*
X188842423Y-106605782D01*
X188839342Y-106619280D01*
X188820718Y-106784577D01*
X188820718Y-106798423D01*
X185208500Y-106798423D01*
X185208500Y-106129854D01*
X189178992Y-106129854D01*
X189184920Y-106139288D01*
X189613457Y-106567825D01*
X189625000Y-106574489D01*
X189636542Y-106567825D01*
X190163825Y-106040542D01*
X190170489Y-106029000D01*
X190604510Y-106029000D01*
X190611174Y-106040542D01*
X191138457Y-106567825D01*
X191150000Y-106574489D01*
X191161542Y-106567825D01*
X191688825Y-106040542D01*
X191695489Y-106029000D01*
X192129510Y-106029000D01*
X192136174Y-106040542D01*
X192663457Y-106567825D01*
X192675000Y-106574489D01*
X192686542Y-106567825D01*
X193115078Y-106139288D01*
X193121006Y-106129854D01*
X193113128Y-106121975D01*
X193030197Y-106069867D01*
X193017734Y-106063865D01*
X192860717Y-106008923D01*
X192847219Y-106005843D01*
X192811513Y-106001819D01*
X192759425Y-105983591D01*
X192720404Y-105944569D01*
X192702178Y-105892481D01*
X192698155Y-105856771D01*
X192695077Y-105843284D01*
X192640134Y-105686265D01*
X192634133Y-105673804D01*
X192582021Y-105590868D01*
X192574145Y-105582992D01*
X192564709Y-105588921D01*
X192136175Y-106017456D01*
X192129510Y-106029000D01*
X191695489Y-106029000D01*
X191688825Y-106017457D01*
X191260288Y-105588920D01*
X191250854Y-105582992D01*
X191237679Y-105596167D01*
X191182091Y-105628259D01*
X191117905Y-105628259D01*
X191062318Y-105596165D01*
X191049145Y-105582992D01*
X191039709Y-105588921D01*
X190611175Y-106017456D01*
X190604510Y-106029000D01*
X190170489Y-106029000D01*
X190163825Y-106017457D01*
X189735288Y-105588920D01*
X189725854Y-105582992D01*
X189717976Y-105590870D01*
X189665867Y-105673802D01*
X189659865Y-105686265D01*
X189604923Y-105843282D01*
X189601843Y-105856779D01*
X189597819Y-105892486D01*
X189579592Y-105944572D01*
X189540572Y-105983592D01*
X189488486Y-106001819D01*
X189452779Y-106005843D01*
X189439282Y-106008923D01*
X189282265Y-106063865D01*
X189269802Y-106069867D01*
X189186870Y-106121976D01*
X189178992Y-106129854D01*
X185208500Y-106129854D01*
X185208500Y-105367354D01*
X189941492Y-105367354D01*
X189947420Y-105376788D01*
X190375957Y-105805325D01*
X190387500Y-105811989D01*
X190399042Y-105805325D01*
X190827578Y-105376788D01*
X190833506Y-105367354D01*
X191466492Y-105367354D01*
X191472420Y-105376788D01*
X191900957Y-105805325D01*
X191912500Y-105811989D01*
X191924042Y-105805325D01*
X192352578Y-105376788D01*
X192358506Y-105367354D01*
X192350628Y-105359475D01*
X192267697Y-105307367D01*
X192255234Y-105301365D01*
X192098217Y-105246423D01*
X192084719Y-105243342D01*
X191919423Y-105224718D01*
X191905577Y-105224718D01*
X191740280Y-105243342D01*
X191726782Y-105246423D01*
X191569765Y-105301365D01*
X191557302Y-105307367D01*
X191474370Y-105359476D01*
X191466492Y-105367354D01*
X190833506Y-105367354D01*
X190825628Y-105359475D01*
X190742697Y-105307367D01*
X190730234Y-105301365D01*
X190573217Y-105246423D01*
X190559719Y-105243342D01*
X190394423Y-105224718D01*
X190380577Y-105224718D01*
X190215280Y-105243342D01*
X190201782Y-105246423D01*
X190044765Y-105301365D01*
X190032302Y-105307367D01*
X189949370Y-105359476D01*
X189941492Y-105367354D01*
X185208500Y-105367354D01*
X185208500Y-99325522D01*
X185208572Y-99321289D01*
X185210472Y-99265652D01*
X185210762Y-99257174D01*
X185201032Y-99217252D01*
X185198667Y-99204809D01*
X185193070Y-99164080D01*
X185187926Y-99152237D01*
X185185920Y-99147619D01*
X185179178Y-99127570D01*
X185176941Y-99118389D01*
X185174933Y-99110148D01*
X185154796Y-99074334D01*
X185149149Y-99062965D01*
X185137042Y-99035092D01*
X185132780Y-99025280D01*
X185127023Y-99018203D01*
X185121456Y-99011360D01*
X185109558Y-98993878D01*
X185104922Y-98985633D01*
X185100766Y-98978241D01*
X185071711Y-98949186D01*
X185063204Y-98939760D01*
X185060245Y-98936123D01*
X185037278Y-98907892D01*
X185026686Y-98900415D01*
X185022615Y-98897541D01*
X185006444Y-98883919D01*
X183814548Y-97692023D01*
X208135268Y-97692023D01*
X208137840Y-97705465D01*
X208151009Y-97709200D01*
X209434474Y-97709200D01*
X209447349Y-97705749D01*
X209450800Y-97692874D01*
X209750800Y-97692874D01*
X209754250Y-97705749D01*
X209767126Y-97709200D01*
X211050591Y-97709200D01*
X211063759Y-97705465D01*
X211066331Y-97692023D01*
X211060840Y-97629267D01*
X211058969Y-97618656D01*
X211000631Y-97400936D01*
X210996943Y-97390802D01*
X210901689Y-97186532D01*
X210896291Y-97177182D01*
X210767015Y-96992557D01*
X210760080Y-96984292D01*
X210600707Y-96824919D01*
X210592442Y-96817984D01*
X210407817Y-96688708D01*
X210398467Y-96683310D01*
X210194197Y-96588056D01*
X210184063Y-96584368D01*
X209966353Y-96526033D01*
X209955721Y-96524158D01*
X209787445Y-96509436D01*
X209782036Y-96509200D01*
X209767126Y-96509200D01*
X209754250Y-96512650D01*
X209750800Y-96525526D01*
X209750800Y-97692874D01*
X209450800Y-97692874D01*
X209450800Y-96525526D01*
X209447349Y-96512650D01*
X209434474Y-96509200D01*
X209419564Y-96509200D01*
X209414154Y-96509436D01*
X209245878Y-96524158D01*
X209235246Y-96526033D01*
X209017536Y-96584368D01*
X209007402Y-96588056D01*
X208803132Y-96683310D01*
X208793782Y-96688708D01*
X208609157Y-96817984D01*
X208600892Y-96824919D01*
X208441521Y-96984290D01*
X208434584Y-96992556D01*
X208305301Y-97177191D01*
X208299913Y-97186523D01*
X208204656Y-97390802D01*
X208200968Y-97400936D01*
X208142630Y-97618656D01*
X208140759Y-97629267D01*
X208135268Y-97692023D01*
X183814548Y-97692023D01*
X183277704Y-97155179D01*
X183249443Y-97111469D01*
X183247976Y-97107602D01*
X183199887Y-96980801D01*
X183111129Y-96852213D01*
X183047016Y-96795413D01*
X182999793Y-96753577D01*
X182999790Y-96753575D01*
X182994178Y-96748603D01*
X182919399Y-96709356D01*
X182862468Y-96679476D01*
X182862465Y-96679474D01*
X182855829Y-96675992D01*
X182830568Y-96669765D01*
X182711404Y-96640394D01*
X182711399Y-96640393D01*
X182704123Y-96638600D01*
X182547877Y-96638600D01*
X182540601Y-96640393D01*
X182540595Y-96640394D01*
X182403453Y-96674197D01*
X182403451Y-96674197D01*
X182396171Y-96675992D01*
X182389537Y-96679473D01*
X182389531Y-96679476D01*
X182264461Y-96745118D01*
X182264457Y-96745120D01*
X182257822Y-96748603D01*
X182252212Y-96753572D01*
X182252206Y-96753577D01*
X182179507Y-96817984D01*
X182140871Y-96852213D01*
X182136616Y-96858377D01*
X182136611Y-96858383D01*
X182056376Y-96974624D01*
X182056373Y-96974628D01*
X182052113Y-96980801D01*
X182049453Y-96987812D01*
X182049451Y-96987818D01*
X181999367Y-97119878D01*
X181996707Y-97126893D01*
X181995803Y-97134333D01*
X181995802Y-97134340D01*
X181979451Y-97269010D01*
X181977874Y-97282000D01*
X177471255Y-97282000D01*
X177518517Y-97085142D01*
X177537171Y-96848117D01*
X177518517Y-96611092D01*
X177463013Y-96379903D01*
X177372027Y-96160244D01*
X177247799Y-95957522D01*
X177093388Y-95776729D01*
X176912595Y-95622318D01*
X176908443Y-95619773D01*
X176908438Y-95619770D01*
X176714031Y-95500638D01*
X176714030Y-95500637D01*
X176709873Y-95498090D01*
X176490214Y-95407104D01*
X176485485Y-95405968D01*
X176485477Y-95405966D01*
X176263758Y-95352736D01*
X176263754Y-95352735D01*
X176259025Y-95351600D01*
X176254174Y-95351218D01*
X176254173Y-95351218D01*
X176026854Y-95333328D01*
X176022000Y-95332946D01*
X176017146Y-95333328D01*
X175789826Y-95351218D01*
X175789823Y-95351218D01*
X175784975Y-95351600D01*
X175780247Y-95352734D01*
X175780241Y-95352736D01*
X175558522Y-95405966D01*
X175558510Y-95405969D01*
X175553786Y-95407104D01*
X175549289Y-95408966D01*
X175549285Y-95408968D01*
X175338631Y-95496224D01*
X175338627Y-95496226D01*
X175334127Y-95498090D01*
X175329974Y-95500634D01*
X175329968Y-95500638D01*
X175135561Y-95619770D01*
X175135550Y-95619777D01*
X175131405Y-95622318D01*
X175127708Y-95625475D01*
X175127699Y-95625482D01*
X174954312Y-95773568D01*
X174954305Y-95773574D01*
X174950612Y-95776729D01*
X174947457Y-95780422D01*
X174947451Y-95780429D01*
X174799365Y-95953816D01*
X174799358Y-95953825D01*
X174796201Y-95957522D01*
X174793660Y-95961667D01*
X174793653Y-95961678D01*
X174674521Y-96156085D01*
X174674517Y-96156091D01*
X174671973Y-96160244D01*
X174670109Y-96164744D01*
X174670107Y-96164748D01*
X174587377Y-96364477D01*
X174580987Y-96379903D01*
X174579852Y-96384627D01*
X174579849Y-96384639D01*
X174526619Y-96606358D01*
X174526617Y-96606364D01*
X174525483Y-96611092D01*
X174525101Y-96615940D01*
X174525101Y-96615943D01*
X174517749Y-96709357D01*
X174506829Y-96848117D01*
X170427376Y-96848117D01*
X170330215Y-96709357D01*
X170323280Y-96701092D01*
X170163907Y-96541719D01*
X170155642Y-96534784D01*
X169971017Y-96405508D01*
X169961667Y-96400110D01*
X169757397Y-96304856D01*
X169747263Y-96301168D01*
X169529553Y-96242833D01*
X169518921Y-96240958D01*
X169350645Y-96226236D01*
X169345236Y-96226000D01*
X169330326Y-96226000D01*
X169317450Y-96229450D01*
X169314000Y-96242326D01*
X169314000Y-97409674D01*
X169014000Y-97409674D01*
X169014000Y-96242326D01*
X169010549Y-96229450D01*
X168997674Y-96226000D01*
X168982764Y-96226000D01*
X168977354Y-96226236D01*
X168809078Y-96240958D01*
X168798446Y-96242833D01*
X168580736Y-96301168D01*
X168570602Y-96304856D01*
X168366332Y-96400110D01*
X168356982Y-96405508D01*
X168172357Y-96534784D01*
X168164092Y-96541719D01*
X168004721Y-96701090D01*
X167997784Y-96709356D01*
X167868501Y-96893991D01*
X167863113Y-96903323D01*
X167767856Y-97107602D01*
X167764168Y-97117736D01*
X167705830Y-97335456D01*
X167703959Y-97346067D01*
X167698468Y-97408823D01*
X165161300Y-97408823D01*
X165161300Y-94317700D01*
X165177913Y-94255700D01*
X165223300Y-94210313D01*
X165285300Y-94193700D01*
X213479500Y-94193700D01*
X213541500Y-94210313D01*
G37*
%TD.AperFunction*%
%TD*%
M02*
