%TF.GenerationSoftware,KiCad,Pcbnew,(7.0.0)*%
%TF.CreationDate,2023-12-20T20:41:28+01:00*%
%TF.ProjectId,board2,626f6172-6432-42e6-9b69-6361645f7063,rev?*%
%TF.SameCoordinates,Original*%
%TF.FileFunction,Copper,L1,Top*%
%TF.FilePolarity,Positive*%
%FSLAX46Y46*%
G04 Gerber Fmt 4.6, Leading zero omitted, Abs format (unit mm)*
G04 Created by KiCad (PCBNEW (7.0.0)) date 2023-12-20 20:41:28*
%MOMM*%
%LPD*%
G01*
G04 APERTURE LIST*
G04 Aperture macros list*
%AMRoundRect*
0 Rectangle with rounded corners*
0 $1 Rounding radius*
0 $2 $3 $4 $5 $6 $7 $8 $9 X,Y pos of 4 corners*
0 Add a 4 corners polygon primitive as box body*
4,1,4,$2,$3,$4,$5,$6,$7,$8,$9,$2,$3,0*
0 Add four circle primitives for the rounded corners*
1,1,$1+$1,$2,$3*
1,1,$1+$1,$4,$5*
1,1,$1+$1,$6,$7*
1,1,$1+$1,$8,$9*
0 Add four rect primitives between the rounded corners*
20,1,$1+$1,$2,$3,$4,$5,0*
20,1,$1+$1,$4,$5,$6,$7,0*
20,1,$1+$1,$6,$7,$8,$9,0*
20,1,$1+$1,$8,$9,$2,$3,0*%
G04 Aperture macros list end*
%TA.AperFunction,SMDPad,CuDef*%
%ADD10RoundRect,0.225000X0.250000X-0.225000X0.250000X0.225000X-0.250000X0.225000X-0.250000X-0.225000X0*%
%TD*%
%TA.AperFunction,SMDPad,CuDef*%
%ADD11R,1.200000X1.000000*%
%TD*%
%TA.AperFunction,SMDPad,CuDef*%
%ADD12RoundRect,0.200000X-0.200000X-0.275000X0.200000X-0.275000X0.200000X0.275000X-0.200000X0.275000X0*%
%TD*%
%TA.AperFunction,SMDPad,CuDef*%
%ADD13RoundRect,0.225000X0.225000X0.250000X-0.225000X0.250000X-0.225000X-0.250000X0.225000X-0.250000X0*%
%TD*%
%TA.AperFunction,ComponentPad*%
%ADD14RoundRect,0.250000X0.725000X-0.600000X0.725000X0.600000X-0.725000X0.600000X-0.725000X-0.600000X0*%
%TD*%
%TA.AperFunction,ComponentPad*%
%ADD15O,1.950000X1.700000*%
%TD*%
%TA.AperFunction,SMDPad,CuDef*%
%ADD16RoundRect,0.150000X-0.587500X-0.150000X0.587500X-0.150000X0.587500X0.150000X-0.587500X0.150000X0*%
%TD*%
%TA.AperFunction,SMDPad,CuDef*%
%ADD17RoundRect,0.200000X0.200000X0.275000X-0.200000X0.275000X-0.200000X-0.275000X0.200000X-0.275000X0*%
%TD*%
%TA.AperFunction,SMDPad,CuDef*%
%ADD18RoundRect,0.225000X-0.225000X-0.250000X0.225000X-0.250000X0.225000X0.250000X-0.225000X0.250000X0*%
%TD*%
%TA.AperFunction,SMDPad,CuDef*%
%ADD19R,1.500000X0.900000*%
%TD*%
%TA.AperFunction,SMDPad,CuDef*%
%ADD20R,0.900000X1.500000*%
%TD*%
%TA.AperFunction,SMDPad,CuDef*%
%ADD21R,1.050000X1.050000*%
%TD*%
%TA.AperFunction,HeatsinkPad*%
%ADD22C,0.600000*%
%TD*%
%TA.AperFunction,SMDPad,CuDef*%
%ADD23R,4.200000X4.200000*%
%TD*%
%TA.AperFunction,SMDPad,CuDef*%
%ADD24RoundRect,0.200000X0.275000X-0.200000X0.275000X0.200000X-0.275000X0.200000X-0.275000X-0.200000X0*%
%TD*%
%TA.AperFunction,ComponentPad*%
%ADD25RoundRect,0.250000X-0.725000X0.600000X-0.725000X-0.600000X0.725000X-0.600000X0.725000X0.600000X0*%
%TD*%
%TA.AperFunction,SMDPad,CuDef*%
%ADD26RoundRect,0.150000X-0.512500X-0.150000X0.512500X-0.150000X0.512500X0.150000X-0.512500X0.150000X0*%
%TD*%
%TA.AperFunction,SMDPad,CuDef*%
%ADD27RoundRect,0.200000X-0.275000X0.200000X-0.275000X-0.200000X0.275000X-0.200000X0.275000X0.200000X0*%
%TD*%
%TA.AperFunction,SMDPad,CuDef*%
%ADD28R,2.000000X1.500000*%
%TD*%
%TA.AperFunction,SMDPad,CuDef*%
%ADD29R,2.000000X3.800000*%
%TD*%
%TA.AperFunction,SMDPad,CuDef*%
%ADD30RoundRect,0.225000X-0.250000X0.225000X-0.250000X-0.225000X0.250000X-0.225000X0.250000X0.225000X0*%
%TD*%
%TA.AperFunction,ViaPad*%
%ADD31C,0.685800*%
%TD*%
%TA.AperFunction,Conductor*%
%ADD32C,0.254000*%
%TD*%
%TA.AperFunction,Conductor*%
%ADD33C,0.127000*%
%TD*%
%TA.AperFunction,Conductor*%
%ADD34C,0.762000*%
%TD*%
%TA.AperFunction,Conductor*%
%ADD35C,0.508000*%
%TD*%
%TA.AperFunction,Conductor*%
%ADD36C,0.500000*%
%TD*%
%TA.AperFunction,Conductor*%
%ADD37C,1.000000*%
%TD*%
%TA.AperFunction,Conductor*%
%ADD38C,0.200000*%
%TD*%
G04 APERTURE END LIST*
D10*
%TO.P,C6,1*%
%TO.N,GND*%
X176276000Y-126759000D03*
%TO.P,C6,2*%
%TO.N,/3.3v_esp*%
X176276000Y-125209000D03*
%TD*%
D11*
%TO.P,SW1,1,1*%
%TO.N,Net-(U19-EN)*%
X199363999Y-125307999D03*
%TO.P,SW1,2,2*%
%TO.N,GND*%
X191963999Y-125307999D03*
%TD*%
D12*
%TO.P,R39,1*%
%TO.N,GND*%
X174880000Y-120142000D03*
%TO.P,R39,2*%
%TO.N,/BVOL*%
X176530000Y-120142000D03*
%TD*%
D13*
%TO.P,C1,1*%
%TO.N,GND*%
X177457000Y-133735500D03*
%TO.P,C1,2*%
%TO.N,+5V*%
X175907000Y-133735500D03*
%TD*%
D14*
%TO.P,J2,1,Pin_1*%
%TO.N,/B+*%
X209550000Y-125944000D03*
D15*
%TO.P,J2,2,Pin_2*%
%TO.N,Net-(J2-Pin_2)*%
X209549999Y-123443999D03*
%TD*%
D16*
%TO.P,Q1,1,G*%
%TO.N,Net-(Q1-G)*%
X202438000Y-123444000D03*
%TO.P,Q1,2,S*%
%TO.N,GND*%
X202438000Y-125344000D03*
%TO.P,Q1,3,D*%
%TO.N,Net-(J2-Pin_2)*%
X204313000Y-124394000D03*
%TD*%
D10*
%TO.P,C8,1*%
%TO.N,GND*%
X178308000Y-126759000D03*
%TO.P,C8,2*%
%TO.N,/3.3v_esp*%
X178308000Y-125209000D03*
%TD*%
D17*
%TO.P,R38,1*%
%TO.N,/BVOL*%
X176530000Y-118364000D03*
%TO.P,R38,2*%
%TO.N,/B+*%
X174880000Y-118364000D03*
%TD*%
D18*
%TO.P,C53,1*%
%TO.N,/3.3v_esp*%
X200985000Y-115824000D03*
%TO.P,C53,2*%
%TO.N,GND*%
X202535000Y-115824000D03*
%TD*%
D19*
%TO.P,U19,1,GND*%
%TO.N,GND*%
X199219999Y-114893999D03*
%TO.P,U19,2,VDD*%
%TO.N,/3.3v_esp*%
X199219999Y-113623999D03*
%TO.P,U19,3,EN*%
%TO.N,Net-(U19-EN)*%
X199219999Y-112353999D03*
%TO.P,U19,4,SENSOR_VP*%
%TO.N,unconnected-(U19-SENSOR_VP-Pad4)*%
X199219999Y-111083999D03*
%TO.P,U19,5,SENSOR_VN*%
%TO.N,unconnected-(U19-SENSOR_VN-Pad5)*%
X199219999Y-109813999D03*
%TO.P,U19,6,IO34*%
%TO.N,unconnected-(U19-IO34-Pad6)*%
X199219999Y-108543999D03*
%TO.P,U19,7,IO35*%
%TO.N,/BVOL*%
X199219999Y-107273999D03*
%TO.P,U19,8,IO32*%
%TO.N,unconnected-(U19-IO32-Pad8)*%
X199219999Y-106003999D03*
%TO.P,U19,9,IO33*%
%TO.N,unconnected-(U19-IO33-Pad9)*%
X199219999Y-104733999D03*
%TO.P,U19,10,IO25*%
%TO.N,Net-(J1-Pin_2)*%
X199219999Y-103463999D03*
%TO.P,U19,11,IO26*%
%TO.N,Net-(J1-Pin_3)*%
X199219999Y-102193999D03*
%TO.P,U19,12,IO27*%
%TO.N,unconnected-(U19-IO27-Pad12)*%
X199219999Y-100923999D03*
%TO.P,U19,13,IO14*%
%TO.N,unconnected-(U19-IO14-Pad13)*%
X199219999Y-99653999D03*
%TO.P,U19,14,IO12*%
%TO.N,unconnected-(U19-IO12-Pad14)*%
X199219999Y-98383999D03*
D20*
%TO.P,U19,15,GND*%
%TO.N,GND*%
X196179999Y-97133999D03*
%TO.P,U19,16,IO13*%
%TO.N,unconnected-(U19-IO13-Pad16)*%
X194909999Y-97133999D03*
%TO.P,U19,17,SHD/SD2*%
%TO.N,unconnected-(U19-SHD{slash}SD2-Pad17)*%
X193639999Y-97133999D03*
%TO.P,U19,18,SWP/SD3*%
%TO.N,unconnected-(U19-SWP{slash}SD3-Pad18)*%
X192369999Y-97133999D03*
%TO.P,U19,19,SCS/CMD*%
%TO.N,unconnected-(U19-SCS{slash}CMD-Pad19)*%
X191099999Y-97133999D03*
%TO.P,U19,20,SCK/CLK*%
%TO.N,unconnected-(U19-SCK{slash}CLK-Pad20)*%
X189829999Y-97133999D03*
%TO.P,U19,21,SDO/SD0*%
%TO.N,unconnected-(U19-SDO{slash}SD0-Pad21)*%
X188559999Y-97133999D03*
%TO.P,U19,22,SDI/SD1*%
%TO.N,unconnected-(U19-SDI{slash}SD1-Pad22)*%
X187289999Y-97133999D03*
%TO.P,U19,23,IO15*%
%TO.N,unconnected-(U19-IO15-Pad23)*%
X186019999Y-97133999D03*
%TO.P,U19,24,IO2*%
%TO.N,unconnected-(U19-IO2-Pad24)*%
X184749999Y-97133999D03*
D19*
%TO.P,U19,25,IO0*%
%TO.N,Net-(U19-IO0)*%
X181719999Y-98383999D03*
%TO.P,U19,26,IO4*%
%TO.N,4*%
X181719999Y-99653999D03*
%TO.P,U19,27,IO16*%
%TO.N,Net-(J4-Pin_2)*%
X181719999Y-100923999D03*
%TO.P,U19,28,IO17*%
%TO.N,Net-(U19-IO17)*%
X181719999Y-102193999D03*
%TO.P,U19,29,IO5*%
%TO.N,unconnected-(U19-IO5-Pad29)*%
X181719999Y-103463999D03*
%TO.P,U19,30,IO18*%
%TO.N,unconnected-(U19-IO18-Pad30)*%
X181719999Y-104733999D03*
%TO.P,U19,31,IO19*%
%TO.N,unconnected-(U19-IO19-Pad31)*%
X181719999Y-106003999D03*
%TO.P,U19,32,NC*%
%TO.N,unconnected-(U19-NC-Pad32)*%
X181719999Y-107273999D03*
%TO.P,U19,33,IO21*%
%TO.N,unconnected-(U19-IO21-Pad33)*%
X181719999Y-108543999D03*
%TO.P,U19,34,RXD0/IO3*%
%TO.N,/RXD0*%
X181719999Y-109813999D03*
%TO.P,U19,35,TXD0/IO1*%
%TO.N,/TXD0*%
X181719999Y-111083999D03*
%TO.P,U19,36,IO22*%
%TO.N,unconnected-(U19-IO22-Pad36)*%
X181719999Y-112353999D03*
%TO.P,U19,37,IO23*%
%TO.N,unconnected-(U19-IO23-Pad37)*%
X181719999Y-113623999D03*
%TO.P,U19,38,GND*%
%TO.N,GND*%
X181719999Y-114893999D03*
D21*
%TO.P,U19,39,GND*%
X192674999Y-109078999D03*
D22*
X192675000Y-108316500D03*
D21*
X192674999Y-107553999D03*
D22*
X192675000Y-106791500D03*
D21*
X192674999Y-106028999D03*
D22*
X191912500Y-109079000D03*
X191912500Y-107554000D03*
X191912500Y-106029000D03*
D21*
X191149999Y-109078999D03*
D22*
X191150000Y-108316500D03*
D21*
X191149999Y-107553999D03*
D23*
X191149999Y-107553999D03*
D22*
X191150000Y-106791500D03*
D21*
X191149999Y-106028999D03*
D22*
X190387500Y-109079000D03*
X190387500Y-107554000D03*
X190387500Y-106029000D03*
D21*
X189624999Y-109078999D03*
D22*
X189625000Y-108316500D03*
D21*
X189624999Y-107553999D03*
D22*
X189625000Y-106791500D03*
D21*
X189624999Y-106028999D03*
%TD*%
D11*
%TO.P,SW3,1,1*%
%TO.N,Net-(U19-IO0)*%
X182565999Y-125307999D03*
%TO.P,SW3,2,2*%
%TO.N,GND*%
X189965999Y-125307999D03*
%TD*%
D13*
%TO.P,C7,1*%
%TO.N,GND*%
X177444000Y-135361100D03*
%TO.P,C7,2*%
%TO.N,+5V*%
X175894000Y-135361100D03*
%TD*%
D24*
%TO.P,R86,1*%
%TO.N,/3.3v_esp*%
X200998000Y-113941000D03*
%TO.P,R86,2*%
%TO.N,Net-(U19-EN)*%
X200998000Y-112291000D03*
%TD*%
D25*
%TO.P,J4,1,Pin_1*%
%TO.N,/3.3v_esp*%
X209550000Y-112094000D03*
D15*
%TO.P,J4,2,Pin_2*%
%TO.N,Net-(J4-Pin_2)*%
X209549999Y-114593999D03*
%TO.P,J4,3,Pin_3*%
%TO.N,GND*%
X209549999Y-117093999D03*
%TD*%
D13*
%TO.P,C4,1*%
%TO.N,GND*%
X177470000Y-132160700D03*
%TO.P,C4,2*%
%TO.N,/B+*%
X175920000Y-132160700D03*
%TD*%
%TO.P,C51,1*%
%TO.N,GND*%
X175781000Y-128778000D03*
%TO.P,C51,2*%
%TO.N,Net-(U20-BP)*%
X174231000Y-128778000D03*
%TD*%
D14*
%TO.P,J3,1,Pin_1*%
%TO.N,GND*%
X169164000Y-120356000D03*
D15*
%TO.P,J3,2,Pin_2*%
%TO.N,/B+*%
X169163999Y-117855999D03*
%TD*%
D25*
%TO.P,J7,1,Pin_1*%
%TO.N,/TXD0*%
X169164000Y-106252000D03*
D15*
%TO.P,J7,2,Pin_2*%
%TO.N,/RXD0*%
X169163999Y-108751999D03*
%TO.P,J7,3,Pin_3*%
%TO.N,GND*%
X169163999Y-111251999D03*
%TD*%
D10*
%TO.P,C3,1*%
%TO.N,GND*%
X168656000Y-126759000D03*
%TO.P,C3,2*%
%TO.N,/B+*%
X168656000Y-125209000D03*
%TD*%
D26*
%TO.P,U20,1,IN*%
%TO.N,/B+*%
X171969000Y-125222000D03*
%TO.P,U20,2,GND*%
%TO.N,GND*%
X171969000Y-126172000D03*
%TO.P,U20,3,EN*%
%TO.N,/B+*%
X171969000Y-127122000D03*
%TO.P,U20,4,BP*%
%TO.N,Net-(U20-BP)*%
X174244000Y-127122000D03*
%TO.P,U20,5,OUT*%
%TO.N,/3.3v_esp*%
X174244000Y-125222000D03*
%TD*%
D13*
%TO.P,C2,1*%
%TO.N,GND*%
X177457000Y-130535100D03*
%TO.P,C2,2*%
%TO.N,/B+*%
X175907000Y-130535100D03*
%TD*%
D27*
%TO.P,R87,1*%
%TO.N,/3.3v_esp*%
X179832000Y-96457000D03*
%TO.P,R87,2*%
%TO.N,Net-(U19-IO0)*%
X179832000Y-98107000D03*
%TD*%
D28*
%TO.P,U1,1,GND*%
%TO.N,GND*%
X173735999Y-135663999D03*
%TO.P,U1,2,VO*%
%TO.N,+5V*%
X173735999Y-133363999D03*
D29*
X167435999Y-133363999D03*
D28*
%TO.P,U1,3,VI*%
%TO.N,/B+*%
X173735999Y-131063999D03*
%TD*%
D10*
%TO.P,C5,1*%
%TO.N,GND*%
X170180000Y-126759000D03*
%TO.P,C5,2*%
%TO.N,/B+*%
X170180000Y-125209000D03*
%TD*%
D14*
%TO.P,J5,1,Pin_1*%
%TO.N,4*%
X169164000Y-100076000D03*
D15*
%TO.P,J5,2,Pin_2*%
%TO.N,GND*%
X169163999Y-97575999D03*
%TD*%
D17*
%TO.P,R1,1*%
%TO.N,Net-(U19-IO17)*%
X203771000Y-121920000D03*
%TO.P,R1,2*%
%TO.N,Net-(Q1-G)*%
X202121000Y-121920000D03*
%TD*%
D27*
%TO.P,R2,1*%
%TO.N,/3.3v_esp*%
X204978000Y-113412000D03*
%TO.P,R2,2*%
%TO.N,Net-(J4-Pin_2)*%
X204978000Y-115062000D03*
%TD*%
D30*
%TO.P,C52,1*%
%TO.N,Net-(U19-EN)*%
X202522000Y-112328000D03*
%TO.P,C52,2*%
%TO.N,GND*%
X202522000Y-113878000D03*
%TD*%
D14*
%TO.P,J1,1,Pin_1*%
%TO.N,+5V*%
X209600800Y-105359200D03*
D15*
%TO.P,J1,2,Pin_2*%
%TO.N,Net-(J1-Pin_2)*%
X209600799Y-102859199D03*
%TO.P,J1,3,Pin_3*%
%TO.N,Net-(J1-Pin_3)*%
X209600799Y-100359199D03*
%TO.P,J1,4,Pin_4*%
%TO.N,GND*%
X209600799Y-97859199D03*
%TD*%
D31*
%TO.N,GND*%
X202522000Y-114808000D03*
X177444000Y-134620000D03*
X169418000Y-127254000D03*
X202438000Y-125984000D03*
X180086000Y-114554000D03*
X177292000Y-129032000D03*
X197104000Y-96774000D03*
X177444000Y-131318000D03*
X197890900Y-114808000D03*
X173736000Y-135664000D03*
X177444000Y-132842000D03*
X191008000Y-125308000D03*
X170942000Y-126238000D03*
X176784000Y-126759000D03*
%TO.N,+5V*%
X173736000Y-133364000D03*
X167894000Y-133350000D03*
%TO.N,/3.3v_esp*%
X180086000Y-121666000D03*
X196342000Y-114046000D03*
X182626000Y-97282000D03*
X179578000Y-125222000D03*
X199220000Y-113624000D03*
X204978000Y-113412000D03*
X184658000Y-108966000D03*
%TO.N,/BVOL*%
X175895000Y-114173000D03*
X175260000Y-115570000D03*
X186182000Y-111506000D03*
X187706000Y-111506000D03*
%TD*%
D32*
%TO.N,GND*%
X180426000Y-114894000D02*
X180086000Y-114554000D01*
X177457000Y-130535100D02*
X177457000Y-129197000D01*
X196180000Y-97134000D02*
X196744000Y-97134000D01*
X189966000Y-125308000D02*
X191964000Y-125308000D01*
D33*
X202522000Y-114808000D02*
X202535000Y-114821000D01*
D32*
X169418000Y-126759000D02*
X169418000Y-127254000D01*
X176022000Y-126759000D02*
X178308000Y-126759000D01*
X175781000Y-128778000D02*
X177038000Y-128778000D01*
X202438000Y-125344000D02*
X202438000Y-125984000D01*
X177038000Y-128778000D02*
X177292000Y-129032000D01*
X169418000Y-126759000D02*
X170180000Y-126759000D01*
X176022000Y-128537000D02*
X176022000Y-126759000D01*
D33*
X169164000Y-120356000D02*
X174666000Y-120356000D01*
D32*
X170942000Y-126172000D02*
X170767000Y-126172000D01*
X171969000Y-126172000D02*
X170942000Y-126172000D01*
D33*
X202522000Y-115389000D02*
X202522000Y-113878000D01*
D32*
X199220000Y-114894000D02*
X197952000Y-114894000D01*
X168656000Y-126759000D02*
X169418000Y-126759000D01*
X170942000Y-126172000D02*
X170942000Y-126238000D01*
X197952000Y-114894000D02*
X197890900Y-114832900D01*
X181720000Y-114894000D02*
X180426000Y-114894000D01*
X196744000Y-97134000D02*
X197104000Y-96774000D01*
X170767000Y-126172000D02*
X170180000Y-126759000D01*
X177457000Y-129197000D02*
X177292000Y-129032000D01*
X177444000Y-135361100D02*
X177444000Y-130548100D01*
D33*
X202535000Y-114821000D02*
X202535000Y-115402000D01*
X202535000Y-115402000D02*
X202522000Y-115389000D01*
D32*
X197890900Y-114832900D02*
X197890900Y-114808000D01*
%TO.N,Net-(J4-Pin_2)*%
X211074000Y-95758000D02*
X199264000Y-95758000D01*
X212852000Y-97536000D02*
X211074000Y-95758000D01*
X209550000Y-114594000D02*
X212852000Y-111292000D01*
X209550000Y-114594000D02*
X204978000Y-114594000D01*
X212852000Y-111292000D02*
X212852000Y-97536000D01*
X199264000Y-95758000D02*
X193930000Y-101092000D01*
X193930000Y-101092000D02*
X181888000Y-101092000D01*
D34*
%TO.N,Net-(Q1-G)*%
X202121000Y-121920000D02*
X202121000Y-123127000D01*
X202121000Y-123127000D02*
X202438000Y-123444000D01*
%TO.N,Net-(J2-Pin_2)*%
X204313000Y-124394000D02*
X206822000Y-124394000D01*
X206822000Y-124394000D02*
X207772000Y-123444000D01*
X207772000Y-123444000D02*
X209550000Y-123444000D01*
D32*
%TO.N,Net-(U19-IO17)*%
X209042000Y-110490000D02*
X211836000Y-107696000D01*
X199390000Y-96520000D02*
X193716000Y-102194000D01*
X210820000Y-96520000D02*
X199390000Y-96520000D01*
X203962000Y-111252000D02*
X204724000Y-110490000D01*
X193716000Y-102194000D02*
X181720000Y-102194000D01*
X203708000Y-121857000D02*
X203962000Y-121603000D01*
X203962000Y-121603000D02*
X203962000Y-111252000D01*
X211836000Y-107696000D02*
X211836000Y-97536000D01*
X211836000Y-97536000D02*
X210820000Y-96520000D01*
X204724000Y-110490000D02*
X209042000Y-110490000D01*
D35*
%TO.N,Net-(J1-Pin_2)*%
X207528800Y-102859200D02*
X209600800Y-102859200D01*
X206924000Y-103464000D02*
X207528800Y-102859200D01*
X199220000Y-103464000D02*
X206924000Y-103464000D01*
%TO.N,Net-(J1-Pin_3)*%
X199220000Y-102194000D02*
X206416000Y-102194000D01*
X208250800Y-100359200D02*
X209600800Y-100359200D01*
X206416000Y-102194000D02*
X208250800Y-100359200D01*
%TO.N,4*%
X169672000Y-100584000D02*
X170180000Y-100076000D01*
X179238000Y-99654000D02*
X181720000Y-99654000D01*
X178816000Y-100076000D02*
X179238000Y-99654000D01*
X170180000Y-100076000D02*
X178816000Y-100076000D01*
D32*
%TO.N,+5V*%
X175894000Y-135361100D02*
X175894000Y-133748500D01*
X175907000Y-133386400D02*
X174040400Y-133386400D01*
%TO.N,Net-(U20-BP)*%
X174257000Y-128778000D02*
X174257000Y-127135000D01*
D33*
%TO.N,Net-(U19-EN)*%
X202522000Y-112328000D02*
X201035000Y-112328000D01*
D32*
X203454000Y-119126000D02*
X203454000Y-113538000D01*
X201168000Y-123504000D02*
X201168000Y-121412000D01*
D33*
X200935000Y-112354000D02*
X199220000Y-112354000D01*
D32*
X201168000Y-121412000D02*
X203454000Y-119126000D01*
X199364000Y-125308000D02*
X201168000Y-123504000D01*
X203454000Y-113538000D02*
X202270000Y-112354000D01*
X202270000Y-112354000D02*
X199220000Y-112354000D01*
%TO.N,/3.3v_esp*%
X176784000Y-125222000D02*
X177292000Y-125222000D01*
D34*
X200985000Y-115824000D02*
X200985000Y-113954000D01*
D36*
X199220000Y-113624000D02*
X200681000Y-113624000D01*
X200681000Y-113624000D02*
X200998000Y-113941000D01*
X182572000Y-97282000D02*
X182626000Y-97282000D01*
X185166000Y-114046000D02*
X196342000Y-114046000D01*
X179578000Y-125222000D02*
X174244000Y-125222000D01*
D33*
X200998000Y-113941000D02*
X200998000Y-114638000D01*
X200998000Y-113941000D02*
X200998000Y-114808000D01*
D32*
X176784000Y-125222000D02*
X178295000Y-125222000D01*
D33*
X200998000Y-114638000D02*
X201168000Y-114808000D01*
D32*
X174244000Y-125222000D02*
X176784000Y-125222000D01*
D36*
X207852000Y-112094000D02*
X209550000Y-112094000D01*
X184785000Y-113665000D02*
X182484600Y-115965400D01*
X179578000Y-125222000D02*
X177292000Y-125222000D01*
X181174646Y-115965400D02*
X180086000Y-117054046D01*
X179832000Y-96457000D02*
X181747000Y-96457000D01*
X182484600Y-115965400D02*
X181174646Y-115965400D01*
X206534000Y-113412000D02*
X207852000Y-112094000D01*
X184785000Y-113665000D02*
X185166000Y-114046000D01*
X181747000Y-96457000D02*
X182572000Y-97282000D01*
D33*
X200998000Y-114978000D02*
X201168000Y-114808000D01*
D36*
X180086000Y-117054046D02*
X180086000Y-121666000D01*
X184658000Y-113538000D02*
X184785000Y-113665000D01*
D33*
X200998000Y-114808000D02*
X201168000Y-114808000D01*
D36*
X184658000Y-108966000D02*
X184658000Y-113538000D01*
X204978000Y-113412000D02*
X206534000Y-113412000D01*
D35*
%TO.N,/TXD0*%
X181720000Y-111084000D02*
X176870000Y-111084000D01*
X176870000Y-111084000D02*
X172038000Y-106252000D01*
X172038000Y-106252000D02*
X169164000Y-106252000D01*
%TO.N,/RXD0*%
X171704000Y-104394000D02*
X168148000Y-104394000D01*
X168422000Y-108752000D02*
X169164000Y-108752000D01*
X177124000Y-109814000D02*
X171704000Y-104394000D01*
X167132000Y-107462000D02*
X168422000Y-108752000D01*
X168148000Y-104394000D02*
X167132000Y-105410000D01*
X167132000Y-105410000D02*
X167132000Y-107462000D01*
X181720000Y-109814000D02*
X177124000Y-109814000D01*
D34*
%TO.N,/BVOL*%
X175260000Y-114808000D02*
X175260000Y-115570000D01*
X193548000Y-111506000D02*
X197780000Y-107274000D01*
X186182000Y-111506000D02*
X193548000Y-111506000D01*
X197780000Y-107274000D02*
X199220000Y-107274000D01*
X175895000Y-114173000D02*
X175260000Y-114808000D01*
X176530000Y-117602000D02*
X176530000Y-120142000D01*
X175260000Y-114808000D02*
X175260000Y-116332000D01*
X175260000Y-116332000D02*
X176530000Y-117602000D01*
D32*
%TO.N,Net-(U19-IO0)*%
X178245000Y-98107000D02*
X177546000Y-98806000D01*
X166116000Y-108458000D02*
X167640000Y-109982000D01*
X178308000Y-114808000D02*
X178308000Y-121050000D01*
X167640000Y-109982000D02*
X173482000Y-109982000D01*
D34*
X179916000Y-98321000D02*
X181657000Y-98321000D01*
D32*
X179832000Y-98107000D02*
X178245000Y-98107000D01*
X166116000Y-100581118D02*
X166116000Y-108458000D01*
X178308000Y-121050000D02*
X182566000Y-125308000D01*
X167891118Y-98806000D02*
X166116000Y-100581118D01*
X177546000Y-98806000D02*
X167891118Y-98806000D01*
X173482000Y-109982000D02*
X178308000Y-114808000D01*
D37*
%TO.N,/B+*%
X168643000Y-125222000D02*
X168656000Y-125209000D01*
X166878000Y-125222000D02*
X167640000Y-125222000D01*
D32*
X175920000Y-131246300D02*
X175804800Y-131131100D01*
D34*
X169136000Y-130782000D02*
X173736000Y-130782000D01*
D37*
X169039000Y-117856000D02*
X166878000Y-120017000D01*
X202311000Y-137668000D02*
X172736000Y-137668000D01*
D32*
X175920000Y-131246300D02*
X175920000Y-130548100D01*
D37*
X169926000Y-131064000D02*
X170434000Y-131064000D01*
D32*
X171969000Y-125222000D02*
X172974000Y-125222000D01*
D37*
X166878000Y-120017000D02*
X166878000Y-125222000D01*
X170434000Y-135366000D02*
X170434000Y-131064000D01*
X167640000Y-125222000D02*
X171196000Y-125222000D01*
X166878000Y-128016000D02*
X169926000Y-131064000D01*
D32*
X175804800Y-130782000D02*
X173736000Y-130782000D01*
X172974000Y-127254000D02*
X172101000Y-127254000D01*
D37*
X167640000Y-125222000D02*
X168643000Y-125222000D01*
D38*
X174372000Y-117856000D02*
X174880000Y-118364000D01*
D37*
X209550000Y-125944000D02*
X209550000Y-130429000D01*
X172736000Y-137668000D02*
X170434000Y-135366000D01*
X166878000Y-125222000D02*
X166878000Y-128016000D01*
X175737700Y-131064000D02*
X175804800Y-131131100D01*
D38*
X169164000Y-117856000D02*
X174372000Y-117856000D01*
D32*
X172974000Y-125222000D02*
X172974000Y-127254000D01*
D37*
X209550000Y-130429000D02*
X202311000Y-137668000D01*
X170434000Y-131064000D02*
X175737700Y-131064000D01*
D32*
X175920000Y-132160700D02*
X175920000Y-131246300D01*
%TD*%
%TA.AperFunction,Conductor*%
%TO.N,GND*%
G36*
X213541500Y-94210313D02*
G01*
X213586887Y-94255700D01*
X213603500Y-94317700D01*
X213603500Y-138549500D01*
X213586887Y-138611500D01*
X213541500Y-138656887D01*
X213479500Y-138673500D01*
X202603562Y-138673500D01*
X202545620Y-138659130D01*
X202501108Y-138619351D01*
X202480342Y-138563383D01*
X202488134Y-138504197D01*
X202522679Y-138455511D01*
X202564472Y-138434413D01*
X202563701Y-138432209D01*
X202570271Y-138429909D01*
X202577061Y-138428360D01*
X202611546Y-138411752D01*
X202624398Y-138406429D01*
X202624407Y-138406426D01*
X202660522Y-138393789D01*
X202692939Y-138373418D01*
X202705086Y-138366705D01*
X202739587Y-138350091D01*
X202769519Y-138326220D01*
X202780853Y-138318179D01*
X202813262Y-138297816D01*
X202940816Y-138170262D01*
X204943078Y-136168000D01*
X209558829Y-136168000D01*
X209577483Y-136405025D01*
X209578618Y-136409754D01*
X209578619Y-136409758D01*
X209631849Y-136631477D01*
X209631851Y-136631485D01*
X209632987Y-136636214D01*
X209723973Y-136855873D01*
X209726520Y-136860030D01*
X209726521Y-136860031D01*
X209845653Y-137054438D01*
X209845656Y-137054443D01*
X209848201Y-137058595D01*
X209851362Y-137062297D01*
X209851365Y-137062300D01*
X209999451Y-137235687D01*
X210002612Y-137239388D01*
X210183405Y-137393799D01*
X210386127Y-137518027D01*
X210605786Y-137609013D01*
X210836975Y-137664517D01*
X211074000Y-137683171D01*
X211311025Y-137664517D01*
X211542214Y-137609013D01*
X211761873Y-137518027D01*
X211964595Y-137393799D01*
X212145388Y-137239388D01*
X212299799Y-137058595D01*
X212424027Y-136855873D01*
X212515013Y-136636214D01*
X212570517Y-136405025D01*
X212589171Y-136168000D01*
X212570517Y-135930975D01*
X212515013Y-135699786D01*
X212424027Y-135480127D01*
X212328795Y-135324722D01*
X212302346Y-135281561D01*
X212302344Y-135281559D01*
X212299799Y-135277405D01*
X212145388Y-135096612D01*
X212109871Y-135066278D01*
X211968300Y-134945365D01*
X211968297Y-134945362D01*
X211964595Y-134942201D01*
X211960443Y-134939656D01*
X211960438Y-134939653D01*
X211766031Y-134820521D01*
X211766030Y-134820520D01*
X211761873Y-134817973D01*
X211542214Y-134726987D01*
X211537485Y-134725851D01*
X211537477Y-134725849D01*
X211315758Y-134672619D01*
X211315754Y-134672618D01*
X211311025Y-134671483D01*
X211306174Y-134671101D01*
X211306173Y-134671101D01*
X211078854Y-134653211D01*
X211074000Y-134652829D01*
X211069146Y-134653211D01*
X210841826Y-134671101D01*
X210841823Y-134671101D01*
X210836975Y-134671483D01*
X210832247Y-134672617D01*
X210832241Y-134672619D01*
X210610522Y-134725849D01*
X210610510Y-134725852D01*
X210605786Y-134726987D01*
X210601289Y-134728849D01*
X210601285Y-134728851D01*
X210390631Y-134816107D01*
X210390627Y-134816109D01*
X210386127Y-134817973D01*
X210381974Y-134820517D01*
X210381968Y-134820521D01*
X210187561Y-134939653D01*
X210187550Y-134939660D01*
X210183405Y-134942201D01*
X210179708Y-134945358D01*
X210179699Y-134945365D01*
X210006312Y-135093451D01*
X210006305Y-135093457D01*
X210002612Y-135096612D01*
X209999457Y-135100305D01*
X209999451Y-135100312D01*
X209851365Y-135273699D01*
X209851358Y-135273708D01*
X209848201Y-135277405D01*
X209845660Y-135281550D01*
X209845653Y-135281561D01*
X209726521Y-135475968D01*
X209726517Y-135475974D01*
X209723973Y-135480127D01*
X209722109Y-135484627D01*
X209722107Y-135484631D01*
X209639377Y-135684360D01*
X209632987Y-135699786D01*
X209631852Y-135704510D01*
X209631849Y-135704522D01*
X209578619Y-135926241D01*
X209578617Y-135926247D01*
X209577483Y-135930975D01*
X209577101Y-135935823D01*
X209577101Y-135935826D01*
X209566269Y-136073464D01*
X209558829Y-136168000D01*
X204943078Y-136168000D01*
X210147826Y-130963252D01*
X210147826Y-130963251D01*
X210179816Y-130931262D01*
X210200180Y-130898850D01*
X210208220Y-130887519D01*
X210232091Y-130857587D01*
X210248705Y-130823086D01*
X210255418Y-130810939D01*
X210275789Y-130778522D01*
X210288429Y-130742397D01*
X210293752Y-130729547D01*
X210296145Y-130724578D01*
X210310360Y-130695061D01*
X210318881Y-130657726D01*
X210322718Y-130644403D01*
X210335368Y-130608255D01*
X210339655Y-130570197D01*
X210341979Y-130556523D01*
X210350500Y-130519194D01*
X210350500Y-130338806D01*
X210350500Y-127190379D01*
X210360211Y-127142275D01*
X210387822Y-127101705D01*
X210429004Y-127075027D01*
X210547342Y-127028361D01*
X210667922Y-126936922D01*
X210759361Y-126816342D01*
X210814877Y-126675564D01*
X210825500Y-126587102D01*
X210825500Y-125300898D01*
X210814877Y-125212436D01*
X210759361Y-125071658D01*
X210667922Y-124951078D01*
X210657202Y-124942949D01*
X210579456Y-124883992D01*
X210547342Y-124859639D01*
X210406564Y-124804123D01*
X210398674Y-124803175D01*
X210398668Y-124803174D01*
X210321781Y-124793941D01*
X210321767Y-124793940D01*
X210318102Y-124793500D01*
X210025002Y-124793500D01*
X209968028Y-124779636D01*
X209923794Y-124741144D01*
X209902191Y-124686632D01*
X209908051Y-124628288D01*
X209940062Y-124579160D01*
X209991067Y-124550234D01*
X210092389Y-124521405D01*
X210283255Y-124426366D01*
X210453407Y-124297872D01*
X210597052Y-124140302D01*
X210709298Y-123959019D01*
X210786321Y-123760198D01*
X210825500Y-123550610D01*
X210825500Y-123337390D01*
X210786321Y-123127802D01*
X210709298Y-122928981D01*
X210597052Y-122747698D01*
X210453407Y-122590128D01*
X210283255Y-122461634D01*
X210234447Y-122437331D01*
X210097526Y-122369153D01*
X210092389Y-122366595D01*
X210086876Y-122365026D01*
X210086870Y-122365024D01*
X209892831Y-122309814D01*
X209892821Y-122309812D01*
X209887310Y-122308244D01*
X209881597Y-122307714D01*
X209881594Y-122307714D01*
X209731054Y-122293765D01*
X209731053Y-122293764D01*
X209728194Y-122293500D01*
X209371806Y-122293500D01*
X209368947Y-122293764D01*
X209368945Y-122293765D01*
X209218405Y-122307714D01*
X209218400Y-122307714D01*
X209212690Y-122308244D01*
X209207179Y-122309811D01*
X209207168Y-122309814D01*
X209013129Y-122365024D01*
X209013119Y-122365027D01*
X209007611Y-122366595D01*
X209002476Y-122369151D01*
X209002473Y-122369153D01*
X208821875Y-122459079D01*
X208821870Y-122459082D01*
X208816745Y-122461634D01*
X208812177Y-122465083D01*
X208812173Y-122465086D01*
X208651164Y-122586675D01*
X208651156Y-122586681D01*
X208646593Y-122590128D01*
X208642739Y-122594354D01*
X208642734Y-122594360D01*
X208526339Y-122722039D01*
X208484788Y-122751935D01*
X208434702Y-122762500D01*
X207796332Y-122762500D01*
X207788846Y-122762274D01*
X207738037Y-122759200D01*
X207738029Y-122759200D01*
X207730550Y-122758748D01*
X207710074Y-122762500D01*
X207673103Y-122769274D01*
X207665707Y-122770399D01*
X207615158Y-122776538D01*
X207615146Y-122776540D01*
X207607709Y-122777444D01*
X207600702Y-122780100D01*
X207600698Y-122780102D01*
X207599244Y-122780653D01*
X207598767Y-122780834D01*
X207577173Y-122786854D01*
X207575145Y-122787225D01*
X207575137Y-122787227D01*
X207567763Y-122788579D01*
X207560923Y-122791657D01*
X207560921Y-122791658D01*
X207514488Y-122812555D01*
X207507572Y-122815419D01*
X207459978Y-122833469D01*
X207459969Y-122833473D01*
X207452965Y-122836130D01*
X207446799Y-122840385D01*
X207446791Y-122840390D01*
X207445093Y-122841563D01*
X207425565Y-122852576D01*
X207423695Y-122853417D01*
X207423682Y-122853424D01*
X207416845Y-122856502D01*
X207410944Y-122861124D01*
X207410934Y-122861131D01*
X207370853Y-122892532D01*
X207364824Y-122896968D01*
X207322936Y-122925882D01*
X207322930Y-122925886D01*
X207316763Y-122930144D01*
X207311794Y-122935751D01*
X207311790Y-122935756D01*
X207278030Y-122973862D01*
X207272898Y-122979313D01*
X206576032Y-123676181D01*
X206535804Y-123703061D01*
X206488351Y-123712500D01*
X204271781Y-123712500D01*
X204268073Y-123712950D01*
X204268060Y-123712951D01*
X204156157Y-123726539D01*
X204156151Y-123726540D01*
X204148709Y-123727444D01*
X204141700Y-123730101D01*
X204141692Y-123730104D01*
X203995779Y-123785442D01*
X203951808Y-123793500D01*
X203671234Y-123793500D01*
X203668359Y-123793769D01*
X203668350Y-123793770D01*
X203648312Y-123795649D01*
X203648307Y-123795650D01*
X203640801Y-123796354D01*
X203633683Y-123798844D01*
X203626306Y-123800456D01*
X203625825Y-123798256D01*
X203577347Y-123802455D01*
X203521148Y-123777774D01*
X203483671Y-123729163D01*
X203474099Y-123668534D01*
X203476000Y-123648266D01*
X203476000Y-123239734D01*
X203473146Y-123209301D01*
X203428293Y-123081118D01*
X203347650Y-122971850D01*
X203291140Y-122930144D01*
X203245858Y-122896724D01*
X203245855Y-122896722D01*
X203238382Y-122891207D01*
X203229616Y-122888139D01*
X203229613Y-122888138D01*
X203117317Y-122848844D01*
X203117311Y-122848842D01*
X203110199Y-122846354D01*
X203102691Y-122845649D01*
X203102687Y-122845649D01*
X203082649Y-122843770D01*
X203082641Y-122843769D01*
X203079766Y-122843500D01*
X203076873Y-122843500D01*
X202926500Y-122843500D01*
X202864500Y-122826887D01*
X202819113Y-122781500D01*
X202802500Y-122719500D01*
X202802500Y-122358613D01*
X202810318Y-122315280D01*
X202810324Y-122315261D01*
X202815091Y-122302483D01*
X202821500Y-122242873D01*
X202821499Y-121597128D01*
X202815091Y-121537517D01*
X202764796Y-121402669D01*
X202678546Y-121287454D01*
X202669323Y-121280550D01*
X202570431Y-121206519D01*
X202570430Y-121206518D01*
X202563331Y-121201204D01*
X202460013Y-121162669D01*
X202435752Y-121153620D01*
X202435750Y-121153619D01*
X202428483Y-121150909D01*
X202420770Y-121150079D01*
X202420767Y-121150079D01*
X202372180Y-121144855D01*
X202372169Y-121144854D01*
X202368873Y-121144500D01*
X202365551Y-121144500D01*
X202339438Y-121144500D01*
X202283143Y-121130985D01*
X202239120Y-121093385D01*
X202216965Y-121039898D01*
X202221507Y-120982182D01*
X202251757Y-120932819D01*
X203322819Y-119861757D01*
X203372182Y-119831507D01*
X203429898Y-119826965D01*
X203483385Y-119849120D01*
X203520985Y-119893143D01*
X203534500Y-119949438D01*
X203534500Y-121038339D01*
X203524488Y-121087152D01*
X203496069Y-121128082D01*
X203453833Y-121154521D01*
X203336980Y-121198104D01*
X203336978Y-121198104D01*
X203328669Y-121201204D01*
X203321572Y-121206516D01*
X203321568Y-121206519D01*
X203220550Y-121282141D01*
X203220546Y-121282144D01*
X203213454Y-121287454D01*
X203208144Y-121294546D01*
X203208141Y-121294550D01*
X203132519Y-121395568D01*
X203132516Y-121395572D01*
X203127204Y-121402669D01*
X203124104Y-121410978D01*
X203124104Y-121410980D01*
X203079620Y-121530247D01*
X203079619Y-121530250D01*
X203076909Y-121537517D01*
X203076079Y-121545227D01*
X203076079Y-121545232D01*
X203070855Y-121593819D01*
X203070854Y-121593831D01*
X203070500Y-121597127D01*
X203070500Y-121600448D01*
X203070500Y-121600449D01*
X203070500Y-122239560D01*
X203070500Y-122239578D01*
X203070501Y-122242872D01*
X203070853Y-122246150D01*
X203070854Y-122246161D01*
X203076079Y-122294768D01*
X203076080Y-122294773D01*
X203076909Y-122302483D01*
X203079619Y-122309749D01*
X203079620Y-122309753D01*
X203103061Y-122372600D01*
X203127204Y-122437331D01*
X203132518Y-122444430D01*
X203132519Y-122444431D01*
X203143484Y-122459079D01*
X203213454Y-122552546D01*
X203328669Y-122638796D01*
X203463517Y-122689091D01*
X203523127Y-122695500D01*
X204018872Y-122695499D01*
X204078483Y-122689091D01*
X204213331Y-122638796D01*
X204328546Y-122552546D01*
X204414796Y-122437331D01*
X204465091Y-122302483D01*
X204471500Y-122242873D01*
X204471499Y-121597128D01*
X204465091Y-121537517D01*
X204414796Y-121402669D01*
X204409479Y-121395567D01*
X204405230Y-121387784D01*
X204406483Y-121387099D01*
X204395847Y-121366768D01*
X204389500Y-121327606D01*
X204389500Y-117261176D01*
X208084468Y-117261176D01*
X208089959Y-117323932D01*
X208091830Y-117334543D01*
X208150168Y-117552263D01*
X208153856Y-117562397D01*
X208249110Y-117766667D01*
X208254508Y-117776017D01*
X208383784Y-117960642D01*
X208390719Y-117968907D01*
X208550092Y-118128280D01*
X208558357Y-118135215D01*
X208742982Y-118264491D01*
X208752332Y-118269889D01*
X208956602Y-118365143D01*
X208966736Y-118368831D01*
X209184446Y-118427166D01*
X209195078Y-118429041D01*
X209363354Y-118443763D01*
X209368764Y-118444000D01*
X209383674Y-118444000D01*
X209396549Y-118440549D01*
X209400000Y-118427674D01*
X209700000Y-118427674D01*
X209703450Y-118440549D01*
X209716326Y-118444000D01*
X209731236Y-118444000D01*
X209736645Y-118443763D01*
X209904921Y-118429041D01*
X209915553Y-118427166D01*
X210133263Y-118368831D01*
X210143397Y-118365143D01*
X210347667Y-118269889D01*
X210357017Y-118264491D01*
X210541642Y-118135215D01*
X210549907Y-118128280D01*
X210709278Y-117968909D01*
X210716215Y-117960643D01*
X210845498Y-117776008D01*
X210850886Y-117766676D01*
X210946143Y-117562397D01*
X210949831Y-117552263D01*
X211008169Y-117334543D01*
X211010040Y-117323932D01*
X211015531Y-117261176D01*
X211012959Y-117247734D01*
X210999791Y-117244000D01*
X209716326Y-117244000D01*
X209703450Y-117247450D01*
X209700000Y-117260326D01*
X209700000Y-118427674D01*
X209400000Y-118427674D01*
X209400000Y-117260326D01*
X209396549Y-117247450D01*
X209383674Y-117244000D01*
X208100209Y-117244000D01*
X208087040Y-117247734D01*
X208084468Y-117261176D01*
X204389500Y-117261176D01*
X204389500Y-115857845D01*
X204403624Y-115800370D01*
X204442780Y-115755989D01*
X204498046Y-115734812D01*
X204556833Y-115741663D01*
X204595517Y-115756091D01*
X204655127Y-115762500D01*
X205300872Y-115762499D01*
X205360483Y-115756091D01*
X205495331Y-115705796D01*
X205610546Y-115619546D01*
X205696796Y-115504331D01*
X205747091Y-115369483D01*
X205753500Y-115309873D01*
X205753499Y-115145499D01*
X205770112Y-115083500D01*
X205815499Y-115038113D01*
X205877499Y-115021500D01*
X208271855Y-115021500D01*
X208320190Y-115031309D01*
X208360879Y-115059182D01*
X208387484Y-115100712D01*
X208388632Y-115103677D01*
X208388634Y-115103681D01*
X208390702Y-115109019D01*
X208393717Y-115113889D01*
X208393718Y-115113890D01*
X208493838Y-115275590D01*
X208502948Y-115290302D01*
X208506801Y-115294529D01*
X208506803Y-115294531D01*
X208581758Y-115376752D01*
X208646593Y-115447872D01*
X208651163Y-115451323D01*
X208651164Y-115451324D01*
X208657760Y-115456305D01*
X208816745Y-115576366D01*
X208909735Y-115622669D01*
X208960304Y-115669066D01*
X208978451Y-115735257D01*
X208958612Y-115800961D01*
X208906866Y-115846049D01*
X208752332Y-115918109D01*
X208742982Y-115923508D01*
X208558357Y-116052784D01*
X208550092Y-116059719D01*
X208390721Y-116219090D01*
X208383784Y-116227356D01*
X208254501Y-116411991D01*
X208249113Y-116421323D01*
X208153856Y-116625602D01*
X208150168Y-116635736D01*
X208091830Y-116853456D01*
X208089959Y-116864067D01*
X208084468Y-116926823D01*
X208087040Y-116940265D01*
X208100209Y-116944000D01*
X210999791Y-116944000D01*
X211012959Y-116940265D01*
X211015531Y-116926823D01*
X211010040Y-116864067D01*
X211008169Y-116853456D01*
X210949831Y-116635736D01*
X210946143Y-116625602D01*
X210850889Y-116421332D01*
X210845491Y-116411982D01*
X210716215Y-116227357D01*
X210709280Y-116219092D01*
X210549907Y-116059719D01*
X210541642Y-116052784D01*
X210357017Y-115923508D01*
X210347667Y-115918110D01*
X210193133Y-115846049D01*
X210141387Y-115800961D01*
X210121548Y-115735257D01*
X210139695Y-115669066D01*
X210190264Y-115622669D01*
X210283255Y-115576366D01*
X210453407Y-115447872D01*
X210597052Y-115290302D01*
X210709298Y-115109019D01*
X210786321Y-114910198D01*
X210825500Y-114700610D01*
X210825500Y-114487390D01*
X210786321Y-114277802D01*
X210774297Y-114246765D01*
X210727399Y-114125705D01*
X210719040Y-114079002D01*
X210728833Y-114032578D01*
X210755341Y-113993233D01*
X213132393Y-111616181D01*
X213142742Y-111606933D01*
X213168920Y-111586058D01*
X213199418Y-111541324D01*
X213202094Y-111537554D01*
X213234229Y-111494014D01*
X213236922Y-111486317D01*
X213241515Y-111479581D01*
X213257482Y-111427812D01*
X213258904Y-111423495D01*
X213276792Y-111372375D01*
X213277096Y-111364225D01*
X213279500Y-111356435D01*
X213279500Y-111302304D01*
X213279587Y-111297668D01*
X213280900Y-111262562D01*
X213281610Y-111243595D01*
X213279887Y-111237164D01*
X213279500Y-111230275D01*
X213279500Y-97566973D01*
X213280280Y-97553090D01*
X213281738Y-97540148D01*
X213284027Y-97519834D01*
X213273958Y-97466624D01*
X213273183Y-97462057D01*
X213267749Y-97426000D01*
X213265122Y-97408569D01*
X213261585Y-97401224D01*
X213260069Y-97393211D01*
X213255726Y-97384994D01*
X213255725Y-97384991D01*
X213234770Y-97345343D01*
X213232679Y-97341202D01*
X213229912Y-97335456D01*
X213209207Y-97292460D01*
X213203661Y-97286482D01*
X213199851Y-97279274D01*
X213161584Y-97241007D01*
X213158368Y-97237669D01*
X213127870Y-97204800D01*
X213127869Y-97204799D01*
X213121553Y-97197992D01*
X213115788Y-97194663D01*
X213110636Y-97190059D01*
X211398188Y-95477612D01*
X211388932Y-95467255D01*
X211368058Y-95441080D01*
X211360381Y-95435846D01*
X211360376Y-95435841D01*
X211323339Y-95410589D01*
X211319559Y-95407908D01*
X211283484Y-95381284D01*
X211283483Y-95381283D01*
X211276014Y-95375771D01*
X211268317Y-95373077D01*
X211261581Y-95368485D01*
X211252710Y-95365748D01*
X211252707Y-95365747D01*
X211222816Y-95356527D01*
X211209849Y-95352527D01*
X211205461Y-95351083D01*
X211163144Y-95336276D01*
X211163142Y-95336275D01*
X211154375Y-95333208D01*
X211146225Y-95332903D01*
X211138435Y-95330500D01*
X211129144Y-95330500D01*
X211084320Y-95330500D01*
X211079683Y-95330413D01*
X211034882Y-95328736D01*
X211034878Y-95328736D01*
X211025595Y-95328389D01*
X211019161Y-95330112D01*
X211012270Y-95330500D01*
X199294972Y-95330500D01*
X199281087Y-95329720D01*
X199257067Y-95327013D01*
X199257064Y-95327013D01*
X199247834Y-95325973D01*
X199238707Y-95327699D01*
X199238701Y-95327700D01*
X199194662Y-95336033D01*
X199190093Y-95336810D01*
X199145749Y-95343494D01*
X199145747Y-95343494D01*
X199136569Y-95344878D01*
X199129221Y-95348416D01*
X199121211Y-95349932D01*
X199113002Y-95354269D01*
X199112997Y-95354272D01*
X199073371Y-95375214D01*
X199069239Y-95377300D01*
X199028828Y-95396762D01*
X199028823Y-95396765D01*
X199020460Y-95400793D01*
X199014480Y-95406341D01*
X199007274Y-95410150D01*
X199000712Y-95416711D01*
X199000709Y-95416714D01*
X198969019Y-95448404D01*
X198965684Y-95451616D01*
X198932798Y-95482130D01*
X198932792Y-95482136D01*
X198925992Y-95488447D01*
X198922664Y-95494209D01*
X198918056Y-95499366D01*
X193789243Y-100628181D01*
X193749015Y-100655061D01*
X193701562Y-100664500D01*
X182894499Y-100664500D01*
X182832499Y-100647887D01*
X182787112Y-100602500D01*
X182770499Y-100540500D01*
X182770499Y-100432714D01*
X182770499Y-100432709D01*
X182770499Y-100429136D01*
X182767585Y-100404009D01*
X182738918Y-100339085D01*
X182728353Y-100289000D01*
X182738919Y-100238913D01*
X182763817Y-100182524D01*
X182767585Y-100173991D01*
X182770500Y-100148865D01*
X182770499Y-99159136D01*
X182767585Y-99134009D01*
X182738918Y-99069085D01*
X182728353Y-99019000D01*
X182738919Y-98968913D01*
X182763817Y-98912524D01*
X182767585Y-98903991D01*
X182770500Y-98878865D01*
X182770499Y-98004992D01*
X182780422Y-97956387D01*
X182801880Y-97925302D01*
X183999500Y-97925302D01*
X183999501Y-97928864D01*
X183999912Y-97932411D01*
X183999913Y-97932422D01*
X184001254Y-97943978D01*
X184002415Y-97953991D01*
X184006181Y-97962521D01*
X184006182Y-97962523D01*
X184026792Y-98009200D01*
X184047794Y-98056765D01*
X184127235Y-98136206D01*
X184198111Y-98167501D01*
X184221477Y-98177818D01*
X184221478Y-98177818D01*
X184230009Y-98181585D01*
X184255135Y-98184500D01*
X185244864Y-98184499D01*
X185269991Y-98181585D01*
X185334914Y-98152918D01*
X185385000Y-98142353D01*
X185435085Y-98152918D01*
X185500009Y-98181585D01*
X185525135Y-98184500D01*
X186514864Y-98184499D01*
X186539991Y-98181585D01*
X186604914Y-98152918D01*
X186655000Y-98142353D01*
X186705085Y-98152918D01*
X186770009Y-98181585D01*
X186795135Y-98184500D01*
X187784864Y-98184499D01*
X187809991Y-98181585D01*
X187874914Y-98152918D01*
X187925000Y-98142353D01*
X187975085Y-98152918D01*
X188040009Y-98181585D01*
X188065135Y-98184500D01*
X189054864Y-98184499D01*
X189079991Y-98181585D01*
X189144914Y-98152918D01*
X189195000Y-98142353D01*
X189245085Y-98152918D01*
X189310009Y-98181585D01*
X189335135Y-98184500D01*
X190324864Y-98184499D01*
X190349991Y-98181585D01*
X190414914Y-98152918D01*
X190465000Y-98142353D01*
X190515085Y-98152918D01*
X190580009Y-98181585D01*
X190605135Y-98184500D01*
X191594864Y-98184499D01*
X191619991Y-98181585D01*
X191684914Y-98152918D01*
X191735000Y-98142353D01*
X191785085Y-98152918D01*
X191850009Y-98181585D01*
X191875135Y-98184500D01*
X192864864Y-98184499D01*
X192889991Y-98181585D01*
X192954914Y-98152918D01*
X193005000Y-98142353D01*
X193055085Y-98152918D01*
X193120009Y-98181585D01*
X193145135Y-98184500D01*
X194134864Y-98184499D01*
X194159991Y-98181585D01*
X194224914Y-98152918D01*
X194275000Y-98142353D01*
X194325085Y-98152918D01*
X194390009Y-98181585D01*
X194415135Y-98184500D01*
X195404864Y-98184499D01*
X195429991Y-98181585D01*
X195532765Y-98136206D01*
X195612206Y-98056765D01*
X195657585Y-97953991D01*
X195660500Y-97928865D01*
X195660499Y-96339136D01*
X195657585Y-96314009D01*
X195612206Y-96211235D01*
X195532765Y-96131794D01*
X195494914Y-96115081D01*
X195438522Y-96090181D01*
X195438517Y-96090179D01*
X195429991Y-96086415D01*
X195420726Y-96085340D01*
X195408414Y-96083911D01*
X195408401Y-96083910D01*
X195404865Y-96083500D01*
X195401290Y-96083500D01*
X194418714Y-96083500D01*
X194418696Y-96083500D01*
X194415136Y-96083501D01*
X194411589Y-96083912D01*
X194411577Y-96083913D01*
X194399277Y-96085340D01*
X194399275Y-96085340D01*
X194390009Y-96086415D01*
X194381479Y-96090180D01*
X194381476Y-96090182D01*
X194325086Y-96115081D01*
X194275000Y-96125646D01*
X194224914Y-96115081D01*
X194168522Y-96090181D01*
X194168517Y-96090179D01*
X194159991Y-96086415D01*
X194150726Y-96085340D01*
X194138414Y-96083911D01*
X194138401Y-96083910D01*
X194134865Y-96083500D01*
X194131290Y-96083500D01*
X193148714Y-96083500D01*
X193148696Y-96083500D01*
X193145136Y-96083501D01*
X193141589Y-96083912D01*
X193141577Y-96083913D01*
X193129277Y-96085340D01*
X193129275Y-96085340D01*
X193120009Y-96086415D01*
X193111479Y-96090180D01*
X193111476Y-96090182D01*
X193055086Y-96115081D01*
X193005000Y-96125646D01*
X192954914Y-96115081D01*
X192898522Y-96090181D01*
X192898517Y-96090179D01*
X192889991Y-96086415D01*
X192880726Y-96085340D01*
X192868414Y-96083911D01*
X192868401Y-96083910D01*
X192864865Y-96083500D01*
X192861290Y-96083500D01*
X191878714Y-96083500D01*
X191878696Y-96083500D01*
X191875136Y-96083501D01*
X191871589Y-96083912D01*
X191871577Y-96083913D01*
X191859277Y-96085340D01*
X191859275Y-96085340D01*
X191850009Y-96086415D01*
X191841479Y-96090180D01*
X191841476Y-96090182D01*
X191785086Y-96115081D01*
X191735000Y-96125646D01*
X191684914Y-96115081D01*
X191628522Y-96090181D01*
X191628517Y-96090179D01*
X191619991Y-96086415D01*
X191610726Y-96085340D01*
X191598414Y-96083911D01*
X191598401Y-96083910D01*
X191594865Y-96083500D01*
X191591290Y-96083500D01*
X190608714Y-96083500D01*
X190608696Y-96083500D01*
X190605136Y-96083501D01*
X190601589Y-96083912D01*
X190601577Y-96083913D01*
X190589277Y-96085340D01*
X190589275Y-96085340D01*
X190580009Y-96086415D01*
X190571479Y-96090180D01*
X190571476Y-96090182D01*
X190515086Y-96115081D01*
X190465000Y-96125646D01*
X190414914Y-96115081D01*
X190358522Y-96090181D01*
X190358517Y-96090179D01*
X190349991Y-96086415D01*
X190340726Y-96085340D01*
X190328414Y-96083911D01*
X190328401Y-96083910D01*
X190324865Y-96083500D01*
X190321290Y-96083500D01*
X189338714Y-96083500D01*
X189338696Y-96083500D01*
X189335136Y-96083501D01*
X189331589Y-96083912D01*
X189331577Y-96083913D01*
X189319277Y-96085340D01*
X189319275Y-96085340D01*
X189310009Y-96086415D01*
X189301479Y-96090180D01*
X189301476Y-96090182D01*
X189245086Y-96115081D01*
X189195000Y-96125646D01*
X189144914Y-96115081D01*
X189088522Y-96090181D01*
X189088517Y-96090179D01*
X189079991Y-96086415D01*
X189070726Y-96085340D01*
X189058414Y-96083911D01*
X189058401Y-96083910D01*
X189054865Y-96083500D01*
X189051290Y-96083500D01*
X188068714Y-96083500D01*
X188068696Y-96083500D01*
X188065136Y-96083501D01*
X188061589Y-96083912D01*
X188061577Y-96083913D01*
X188049277Y-96085340D01*
X188049275Y-96085340D01*
X188040009Y-96086415D01*
X188031479Y-96090180D01*
X188031476Y-96090182D01*
X187975086Y-96115081D01*
X187925000Y-96125646D01*
X187874914Y-96115081D01*
X187818522Y-96090181D01*
X187818517Y-96090179D01*
X187809991Y-96086415D01*
X187800726Y-96085340D01*
X187788414Y-96083911D01*
X187788401Y-96083910D01*
X187784865Y-96083500D01*
X187781290Y-96083500D01*
X186798714Y-96083500D01*
X186798696Y-96083500D01*
X186795136Y-96083501D01*
X186791589Y-96083912D01*
X186791577Y-96083913D01*
X186779277Y-96085340D01*
X186779275Y-96085340D01*
X186770009Y-96086415D01*
X186761479Y-96090180D01*
X186761476Y-96090182D01*
X186705086Y-96115081D01*
X186655000Y-96125646D01*
X186604914Y-96115081D01*
X186548522Y-96090181D01*
X186548517Y-96090179D01*
X186539991Y-96086415D01*
X186530726Y-96085340D01*
X186518414Y-96083911D01*
X186518401Y-96083910D01*
X186514865Y-96083500D01*
X186511290Y-96083500D01*
X185528714Y-96083500D01*
X185528696Y-96083500D01*
X185525136Y-96083501D01*
X185521589Y-96083912D01*
X185521577Y-96083913D01*
X185509277Y-96085340D01*
X185509275Y-96085340D01*
X185500009Y-96086415D01*
X185491479Y-96090180D01*
X185491476Y-96090182D01*
X185435086Y-96115081D01*
X185385000Y-96125646D01*
X185334914Y-96115081D01*
X185278522Y-96090181D01*
X185278517Y-96090179D01*
X185269991Y-96086415D01*
X185260726Y-96085340D01*
X185248414Y-96083911D01*
X185248401Y-96083910D01*
X185244865Y-96083500D01*
X185241290Y-96083500D01*
X184258714Y-96083500D01*
X184258696Y-96083500D01*
X184255136Y-96083501D01*
X184251589Y-96083912D01*
X184251577Y-96083913D01*
X184239277Y-96085340D01*
X184239275Y-96085340D01*
X184230009Y-96086415D01*
X184221479Y-96090180D01*
X184221476Y-96090182D01*
X184137745Y-96127153D01*
X184137743Y-96127154D01*
X184127235Y-96131794D01*
X184119112Y-96139916D01*
X184119109Y-96139919D01*
X184055919Y-96203109D01*
X184055916Y-96203112D01*
X184047794Y-96211235D01*
X184043154Y-96221743D01*
X184043153Y-96221745D01*
X184006181Y-96305477D01*
X184006179Y-96305484D01*
X184002415Y-96314009D01*
X184001340Y-96323271D01*
X184001340Y-96323273D01*
X183999911Y-96335585D01*
X183999910Y-96335599D01*
X183999500Y-96339135D01*
X183999500Y-96342708D01*
X183999500Y-96342709D01*
X183999500Y-97925285D01*
X183999500Y-97925302D01*
X182801880Y-97925302D01*
X182808604Y-97915561D01*
X182849849Y-97889481D01*
X182855829Y-97888008D01*
X182994178Y-97815397D01*
X183111129Y-97711787D01*
X183199887Y-97583199D01*
X183255293Y-97437107D01*
X183274126Y-97282000D01*
X183255293Y-97126893D01*
X183199887Y-96980801D01*
X183111129Y-96852213D01*
X183012103Y-96764483D01*
X182999793Y-96753577D01*
X182999790Y-96753575D01*
X182994178Y-96748603D01*
X182917122Y-96708161D01*
X182862466Y-96679475D01*
X182862463Y-96679474D01*
X182855829Y-96675992D01*
X182848556Y-96674199D01*
X182848550Y-96674197D01*
X182741667Y-96647853D01*
X182683662Y-96615137D01*
X182144406Y-96075881D01*
X182141464Y-96072837D01*
X182103468Y-96032153D01*
X182103466Y-96032151D01*
X182097680Y-96025956D01*
X182090439Y-96021552D01*
X182090431Y-96021546D01*
X182062573Y-96004605D01*
X182052081Y-95997465D01*
X182041851Y-95989708D01*
X182019342Y-95972639D01*
X182011459Y-95969530D01*
X182011450Y-95969525D01*
X182002642Y-95966052D01*
X181983713Y-95956650D01*
X181975631Y-95951735D01*
X181975624Y-95951732D01*
X181968382Y-95947328D01*
X181960216Y-95945039D01*
X181960214Y-95945039D01*
X181939715Y-95939295D01*
X181928814Y-95936240D01*
X181916786Y-95932196D01*
X181886453Y-95920235D01*
X181878564Y-95917124D01*
X181870129Y-95916256D01*
X181870127Y-95916256D01*
X181860713Y-95915288D01*
X181839954Y-95911343D01*
X181830829Y-95908786D01*
X181830820Y-95908784D01*
X181822665Y-95906500D01*
X181814188Y-95906500D01*
X181781582Y-95906500D01*
X181768901Y-95905850D01*
X181736466Y-95902515D01*
X181736462Y-95902515D01*
X181728028Y-95901648D01*
X181719671Y-95903088D01*
X181719667Y-95903089D01*
X181710344Y-95904697D01*
X181689275Y-95906500D01*
X180515230Y-95906500D01*
X180476070Y-95900154D01*
X180440919Y-95881767D01*
X180356431Y-95818519D01*
X180356430Y-95818518D01*
X180349331Y-95813204D01*
X180261457Y-95780429D01*
X180221752Y-95765620D01*
X180221750Y-95765619D01*
X180214483Y-95762909D01*
X180206770Y-95762079D01*
X180206767Y-95762079D01*
X180158180Y-95756855D01*
X180158169Y-95756854D01*
X180154873Y-95756500D01*
X180151550Y-95756500D01*
X179512439Y-95756500D01*
X179512420Y-95756500D01*
X179509128Y-95756501D01*
X179505850Y-95756853D01*
X179505838Y-95756854D01*
X179457231Y-95762079D01*
X179457225Y-95762080D01*
X179449517Y-95762909D01*
X179442252Y-95765618D01*
X179442246Y-95765620D01*
X179322980Y-95810104D01*
X179322978Y-95810104D01*
X179314669Y-95813204D01*
X179307572Y-95818516D01*
X179307568Y-95818519D01*
X179206550Y-95894141D01*
X179206546Y-95894144D01*
X179199454Y-95899454D01*
X179194144Y-95906546D01*
X179194141Y-95906550D01*
X179118519Y-96007568D01*
X179118516Y-96007572D01*
X179113204Y-96014669D01*
X179110104Y-96022978D01*
X179110104Y-96022980D01*
X179065620Y-96142247D01*
X179065619Y-96142250D01*
X179062909Y-96149517D01*
X179062079Y-96157227D01*
X179062079Y-96157232D01*
X179056855Y-96205819D01*
X179056854Y-96205831D01*
X179056500Y-96209127D01*
X179056500Y-96212448D01*
X179056500Y-96212449D01*
X179056500Y-96701560D01*
X179056500Y-96701578D01*
X179056501Y-96704872D01*
X179056853Y-96708150D01*
X179056854Y-96708161D01*
X179062079Y-96756768D01*
X179062080Y-96756773D01*
X179062909Y-96764483D01*
X179065619Y-96771749D01*
X179065620Y-96771753D01*
X179092292Y-96843263D01*
X179113204Y-96899331D01*
X179199454Y-97014546D01*
X179314669Y-97100796D01*
X179449517Y-97151091D01*
X179509127Y-97157500D01*
X180154872Y-97157499D01*
X180214483Y-97151091D01*
X180349331Y-97100796D01*
X180440919Y-97032232D01*
X180476070Y-97013846D01*
X180515230Y-97007500D01*
X181467613Y-97007500D01*
X181515066Y-97016939D01*
X181555294Y-97043819D01*
X181752483Y-97241008D01*
X181933295Y-97421819D01*
X181963545Y-97471182D01*
X181968087Y-97528898D01*
X181945932Y-97582385D01*
X181901909Y-97619985D01*
X181845614Y-97633500D01*
X180928714Y-97633500D01*
X180928696Y-97633500D01*
X180925136Y-97633501D01*
X180921589Y-97633912D01*
X180921577Y-97633913D01*
X180903847Y-97635969D01*
X180903795Y-97635975D01*
X180900009Y-97636415D01*
X180899792Y-97636510D01*
X180877420Y-97639500D01*
X180594024Y-97639500D01*
X180538520Y-97626384D01*
X180494757Y-97589811D01*
X180469858Y-97556550D01*
X180464546Y-97549454D01*
X180446560Y-97535990D01*
X180356431Y-97468519D01*
X180356430Y-97468518D01*
X180349331Y-97463204D01*
X180238372Y-97421819D01*
X180221752Y-97415620D01*
X180221750Y-97415619D01*
X180214483Y-97412909D01*
X180206770Y-97412079D01*
X180206767Y-97412079D01*
X180158180Y-97406855D01*
X180158169Y-97406854D01*
X180154873Y-97406500D01*
X180151550Y-97406500D01*
X179512439Y-97406500D01*
X179512420Y-97406500D01*
X179509128Y-97406501D01*
X179505850Y-97406853D01*
X179505838Y-97406854D01*
X179457231Y-97412079D01*
X179457225Y-97412080D01*
X179449517Y-97412909D01*
X179442252Y-97415618D01*
X179442246Y-97415620D01*
X179322980Y-97460104D01*
X179322978Y-97460104D01*
X179314669Y-97463204D01*
X179307572Y-97468516D01*
X179307568Y-97468519D01*
X179206550Y-97544141D01*
X179206546Y-97544144D01*
X179199454Y-97549454D01*
X179194144Y-97556546D01*
X179194141Y-97556550D01*
X179152176Y-97612608D01*
X179146655Y-97619985D01*
X179139299Y-97629811D01*
X179095536Y-97666384D01*
X179040032Y-97679500D01*
X178275964Y-97679500D01*
X178262080Y-97678720D01*
X178238068Y-97676014D01*
X178238065Y-97676014D01*
X178228834Y-97674974D01*
X178175666Y-97685033D01*
X178171113Y-97685807D01*
X178126749Y-97692494D01*
X178126747Y-97692494D01*
X178117569Y-97693878D01*
X178110221Y-97697416D01*
X178102211Y-97698932D01*
X178094002Y-97703269D01*
X178093997Y-97703272D01*
X178054371Y-97724214D01*
X178050239Y-97726300D01*
X178009828Y-97745762D01*
X178009823Y-97745765D01*
X178001460Y-97749793D01*
X177995480Y-97755341D01*
X177988274Y-97759150D01*
X177981712Y-97765711D01*
X177981709Y-97765714D01*
X177950019Y-97797404D01*
X177946684Y-97800616D01*
X177913798Y-97831130D01*
X177913792Y-97831136D01*
X177906992Y-97837447D01*
X177903664Y-97843209D01*
X177899056Y-97848366D01*
X177405243Y-98342181D01*
X177365015Y-98369061D01*
X177317562Y-98378500D01*
X176855229Y-98378500D01*
X176793792Y-98362210D01*
X176748497Y-98317621D01*
X176731244Y-98256448D01*
X176746567Y-98194762D01*
X176790439Y-98148773D01*
X176912595Y-98073916D01*
X177093388Y-97919505D01*
X177247799Y-97738712D01*
X177372027Y-97535990D01*
X177463013Y-97316331D01*
X177518517Y-97085142D01*
X177537171Y-96848117D01*
X177518517Y-96611092D01*
X177463013Y-96379903D01*
X177372027Y-96160244D01*
X177278467Y-96007568D01*
X177250346Y-95961678D01*
X177250344Y-95961676D01*
X177247799Y-95957522D01*
X177242856Y-95951735D01*
X177096548Y-95780429D01*
X177093388Y-95776729D01*
X177076235Y-95762079D01*
X176916300Y-95625482D01*
X176916297Y-95625479D01*
X176912595Y-95622318D01*
X176908443Y-95619773D01*
X176908438Y-95619770D01*
X176714031Y-95500638D01*
X176714030Y-95500637D01*
X176709873Y-95498090D01*
X176490214Y-95407104D01*
X176485485Y-95405968D01*
X176485477Y-95405966D01*
X176263758Y-95352736D01*
X176263754Y-95352735D01*
X176259025Y-95351600D01*
X176254174Y-95351218D01*
X176254173Y-95351218D01*
X176026854Y-95333328D01*
X176022000Y-95332946D01*
X176017146Y-95333328D01*
X175789826Y-95351218D01*
X175789823Y-95351218D01*
X175784975Y-95351600D01*
X175780247Y-95352734D01*
X175780241Y-95352736D01*
X175558522Y-95405966D01*
X175558510Y-95405969D01*
X175553786Y-95407104D01*
X175549289Y-95408966D01*
X175549285Y-95408968D01*
X175338631Y-95496224D01*
X175338627Y-95496226D01*
X175334127Y-95498090D01*
X175329974Y-95500634D01*
X175329968Y-95500638D01*
X175135561Y-95619770D01*
X175135550Y-95619777D01*
X175131405Y-95622318D01*
X175127708Y-95625475D01*
X175127699Y-95625482D01*
X174954312Y-95773568D01*
X174954305Y-95773574D01*
X174950612Y-95776729D01*
X174947457Y-95780422D01*
X174947451Y-95780429D01*
X174799365Y-95953816D01*
X174799358Y-95953825D01*
X174796201Y-95957522D01*
X174793660Y-95961667D01*
X174793653Y-95961678D01*
X174674521Y-96156085D01*
X174674517Y-96156091D01*
X174671973Y-96160244D01*
X174670109Y-96164744D01*
X174670107Y-96164748D01*
X174587377Y-96364477D01*
X174580987Y-96379903D01*
X174579852Y-96384627D01*
X174579849Y-96384639D01*
X174526619Y-96606358D01*
X174526617Y-96606364D01*
X174525483Y-96611092D01*
X174525101Y-96615940D01*
X174525101Y-96615943D01*
X174517749Y-96709357D01*
X174506829Y-96848117D01*
X174507211Y-96852971D01*
X174525047Y-97079610D01*
X174525483Y-97085142D01*
X174526618Y-97089871D01*
X174526619Y-97089875D01*
X174579849Y-97311594D01*
X174579851Y-97311602D01*
X174580987Y-97316331D01*
X174671973Y-97535990D01*
X174674520Y-97540147D01*
X174674521Y-97540148D01*
X174793653Y-97734555D01*
X174793656Y-97734560D01*
X174796201Y-97738712D01*
X174799362Y-97742414D01*
X174799365Y-97742417D01*
X174947451Y-97915804D01*
X174950612Y-97919505D01*
X174980142Y-97944726D01*
X175111323Y-98056765D01*
X175131405Y-98073916D01*
X175213087Y-98123971D01*
X175253561Y-98148773D01*
X175297433Y-98194762D01*
X175312756Y-98256448D01*
X175295503Y-98317621D01*
X175250208Y-98362210D01*
X175188771Y-98378500D01*
X170598989Y-98378500D01*
X170539346Y-98363214D01*
X170494408Y-98321125D01*
X170475254Y-98262610D01*
X170486607Y-98202095D01*
X170560143Y-98044397D01*
X170563831Y-98034263D01*
X170622169Y-97816543D01*
X170624040Y-97805932D01*
X170629531Y-97743176D01*
X170626959Y-97729734D01*
X170613791Y-97726000D01*
X167714209Y-97726000D01*
X167701040Y-97729734D01*
X167698468Y-97743176D01*
X167703959Y-97805932D01*
X167705830Y-97816543D01*
X167764168Y-98034263D01*
X167767856Y-98044397D01*
X167849855Y-98220242D01*
X167860378Y-98289088D01*
X167832130Y-98352747D01*
X167774022Y-98391138D01*
X167772866Y-98391494D01*
X167763687Y-98392878D01*
X167756342Y-98396414D01*
X167748329Y-98397931D01*
X167740119Y-98402269D01*
X167740116Y-98402271D01*
X167700481Y-98423219D01*
X167696344Y-98425307D01*
X167655945Y-98444762D01*
X167655936Y-98444767D01*
X167647578Y-98448793D01*
X167641600Y-98454338D01*
X167634392Y-98458149D01*
X167627834Y-98464706D01*
X167627831Y-98464709D01*
X167596123Y-98496417D01*
X167592788Y-98499629D01*
X167559918Y-98530129D01*
X167559915Y-98530132D01*
X167553110Y-98536447D01*
X167549782Y-98542209D01*
X167545179Y-98547360D01*
X165835614Y-100256926D01*
X165825249Y-100266189D01*
X165806347Y-100281263D01*
X165806341Y-100281269D01*
X165799080Y-100287060D01*
X165793847Y-100294733D01*
X165793843Y-100294739D01*
X165768583Y-100331787D01*
X165765904Y-100335563D01*
X165739287Y-100371629D01*
X165739285Y-100371631D01*
X165733771Y-100379104D01*
X165731077Y-100386800D01*
X165726485Y-100393537D01*
X165723747Y-100402410D01*
X165723746Y-100402414D01*
X165710525Y-100445271D01*
X165709078Y-100449668D01*
X165694276Y-100491972D01*
X165694274Y-100491977D01*
X165691208Y-100500743D01*
X165690903Y-100508892D01*
X165688500Y-100516683D01*
X165688500Y-100525970D01*
X165688500Y-100570798D01*
X165688413Y-100575435D01*
X165686736Y-100620235D01*
X165686736Y-100620238D01*
X165686389Y-100629523D01*
X165688112Y-100635956D01*
X165688500Y-100642848D01*
X165688500Y-108427028D01*
X165687720Y-108440913D01*
X165685013Y-108464932D01*
X165685013Y-108464935D01*
X165683973Y-108474166D01*
X165685699Y-108483292D01*
X165685700Y-108483296D01*
X165694033Y-108527335D01*
X165694810Y-108531906D01*
X165696056Y-108540175D01*
X165702878Y-108585431D01*
X165706416Y-108592778D01*
X165707932Y-108600789D01*
X165712270Y-108608998D01*
X165712273Y-108609005D01*
X165733223Y-108648644D01*
X165735312Y-108652782D01*
X165738419Y-108659234D01*
X165758793Y-108701540D01*
X165764339Y-108707517D01*
X165768149Y-108714726D01*
X165774718Y-108721294D01*
X165774718Y-108721295D01*
X165806413Y-108752990D01*
X165809630Y-108756329D01*
X165846447Y-108796008D01*
X165852210Y-108799335D01*
X165857361Y-108803938D01*
X167315806Y-110262382D01*
X167325072Y-110272750D01*
X167345942Y-110298920D01*
X167353618Y-110304153D01*
X167353622Y-110304157D01*
X167390690Y-110329430D01*
X167394447Y-110332095D01*
X167437986Y-110364228D01*
X167445679Y-110366920D01*
X167452419Y-110371515D01*
X167504183Y-110387481D01*
X167508528Y-110388911D01*
X167559625Y-110406792D01*
X167567774Y-110407096D01*
X167575565Y-110409500D01*
X167629696Y-110409500D01*
X167634332Y-110409587D01*
X167688405Y-110411610D01*
X167694835Y-110409887D01*
X167701725Y-110409500D01*
X167747663Y-110409500D01*
X167807306Y-110424786D01*
X167852244Y-110466875D01*
X167871398Y-110525390D01*
X167860045Y-110585905D01*
X167767856Y-110783602D01*
X167764168Y-110793736D01*
X167705830Y-111011456D01*
X167703959Y-111022067D01*
X167698468Y-111084823D01*
X167701040Y-111098265D01*
X167714209Y-111102000D01*
X170613791Y-111102000D01*
X170626959Y-111098265D01*
X170629531Y-111084823D01*
X170624040Y-111022067D01*
X170622169Y-111011456D01*
X170563831Y-110793736D01*
X170560143Y-110783602D01*
X170467955Y-110585905D01*
X170456602Y-110525390D01*
X170475756Y-110466875D01*
X170520694Y-110424786D01*
X170580337Y-110409500D01*
X173253561Y-110409500D01*
X173301014Y-110418939D01*
X173341242Y-110445819D01*
X175576242Y-112680819D01*
X176206915Y-113311491D01*
X176239263Y-113368044D01*
X176238476Y-113433191D01*
X176204771Y-113488946D01*
X176147453Y-113519918D01*
X176082345Y-113517558D01*
X176074213Y-113515024D01*
X176018747Y-113497740D01*
X176011265Y-113497287D01*
X176011263Y-113497287D01*
X175861036Y-113488199D01*
X175861029Y-113488199D01*
X175853550Y-113487747D01*
X175846173Y-113489098D01*
X175846171Y-113489099D01*
X175698138Y-113516227D01*
X175698134Y-113516228D01*
X175690763Y-113517579D01*
X175683928Y-113520654D01*
X175683922Y-113520657D01*
X175546683Y-113582424D01*
X175546680Y-113582425D01*
X175539845Y-113585502D01*
X175533947Y-113590121D01*
X175533943Y-113590125D01*
X175445203Y-113659648D01*
X175445194Y-113659655D01*
X175442253Y-113661960D01*
X175439607Y-113664605D01*
X175439599Y-113664613D01*
X174795313Y-114308898D01*
X174789862Y-114314030D01*
X174751756Y-114347790D01*
X174751751Y-114347794D01*
X174746144Y-114352763D01*
X174741886Y-114358930D01*
X174741882Y-114358936D01*
X174712968Y-114400824D01*
X174708532Y-114406853D01*
X174677131Y-114446934D01*
X174677124Y-114446944D01*
X174672502Y-114452845D01*
X174669424Y-114459682D01*
X174669417Y-114459695D01*
X174668576Y-114461565D01*
X174657563Y-114481093D01*
X174656390Y-114482791D01*
X174656385Y-114482799D01*
X174652130Y-114488965D01*
X174649473Y-114495969D01*
X174649469Y-114495978D01*
X174631419Y-114543572D01*
X174628555Y-114550488D01*
X174607658Y-114596921D01*
X174604579Y-114603763D01*
X174603227Y-114611137D01*
X174603225Y-114611145D01*
X174602854Y-114613173D01*
X174596834Y-114634770D01*
X174596102Y-114636698D01*
X174596100Y-114636702D01*
X174593444Y-114643709D01*
X174592540Y-114651146D01*
X174592538Y-114651158D01*
X174586399Y-114701707D01*
X174585274Y-114709103D01*
X174574748Y-114766550D01*
X174575201Y-114774036D01*
X174578274Y-114824846D01*
X174578500Y-114832332D01*
X174578500Y-116307668D01*
X174578274Y-116315154D01*
X174575200Y-116365962D01*
X174575200Y-116365969D01*
X174574748Y-116373450D01*
X174583520Y-116421323D01*
X174585274Y-116430894D01*
X174586399Y-116438292D01*
X174592537Y-116488838D01*
X174592540Y-116488853D01*
X174593444Y-116496291D01*
X174596102Y-116503301D01*
X174596104Y-116503307D01*
X174596832Y-116505226D01*
X174602854Y-116526827D01*
X174604579Y-116536237D01*
X174607657Y-116543076D01*
X174628554Y-116589508D01*
X174631420Y-116596427D01*
X174648085Y-116640371D01*
X174652130Y-116651035D01*
X174657556Y-116658896D01*
X174668581Y-116678443D01*
X174672502Y-116687155D01*
X174677124Y-116693055D01*
X174677125Y-116693056D01*
X174708527Y-116733138D01*
X174712961Y-116739164D01*
X174746144Y-116787237D01*
X174769882Y-116808267D01*
X174789852Y-116825959D01*
X174795306Y-116831093D01*
X175310538Y-117346325D01*
X175377127Y-117412913D01*
X175409810Y-117470786D01*
X175407912Y-117537224D01*
X175371979Y-117593137D01*
X175312335Y-117622463D01*
X175246114Y-117616776D01*
X175194755Y-117597621D01*
X175194752Y-117597620D01*
X175187483Y-117594909D01*
X175179770Y-117594079D01*
X175179767Y-117594079D01*
X175131180Y-117588855D01*
X175131169Y-117588854D01*
X175127873Y-117588500D01*
X175124551Y-117588500D01*
X174722255Y-117588500D01*
X174674802Y-117579061D01*
X174639520Y-117555486D01*
X174638935Y-117556155D01*
X174638927Y-117556148D01*
X174634971Y-117552446D01*
X174634574Y-117552181D01*
X174632916Y-117550523D01*
X174632915Y-117550522D01*
X174632909Y-117550516D01*
X174632905Y-117550513D01*
X174610342Y-117527950D01*
X174601649Y-117523520D01*
X174601647Y-117523519D01*
X174590598Y-117517889D01*
X174574015Y-117507726D01*
X174563987Y-117500440D01*
X174563980Y-117500436D01*
X174556090Y-117494704D01*
X174535019Y-117487857D01*
X174517044Y-117480412D01*
X174505999Y-117474784D01*
X174505996Y-117474783D01*
X174497304Y-117470354D01*
X174487667Y-117468827D01*
X174487666Y-117468827D01*
X174475418Y-117466887D01*
X174456506Y-117462346D01*
X174444717Y-117458516D01*
X174444714Y-117458515D01*
X174435433Y-117455500D01*
X174425673Y-117455500D01*
X170452605Y-117455500D01*
X170404271Y-117445692D01*
X170363583Y-117417820D01*
X170336978Y-117376293D01*
X170325368Y-117346325D01*
X170325367Y-117346322D01*
X170323298Y-117340981D01*
X170211052Y-117159698D01*
X170167360Y-117111771D01*
X170071265Y-117006360D01*
X170067407Y-117002128D01*
X170047186Y-116986858D01*
X169901826Y-116877086D01*
X169897255Y-116873634D01*
X169706389Y-116778595D01*
X169700876Y-116777026D01*
X169700870Y-116777024D01*
X169506831Y-116721814D01*
X169506821Y-116721812D01*
X169501310Y-116720244D01*
X169495597Y-116719714D01*
X169495594Y-116719714D01*
X169345054Y-116705765D01*
X169345053Y-116705764D01*
X169342194Y-116705500D01*
X168985806Y-116705500D01*
X168982947Y-116705764D01*
X168982945Y-116705765D01*
X168832405Y-116719714D01*
X168832400Y-116719714D01*
X168826690Y-116720244D01*
X168821179Y-116721811D01*
X168821168Y-116721814D01*
X168627129Y-116777024D01*
X168627119Y-116777027D01*
X168621611Y-116778595D01*
X168616476Y-116781151D01*
X168616473Y-116781153D01*
X168435875Y-116871079D01*
X168435870Y-116871082D01*
X168430745Y-116873634D01*
X168426177Y-116877083D01*
X168426173Y-116877086D01*
X168265164Y-116998675D01*
X168265156Y-116998681D01*
X168260593Y-117002128D01*
X168256739Y-117006354D01*
X168256734Y-117006360D01*
X168120803Y-117155468D01*
X168120797Y-117155475D01*
X168116948Y-117159698D01*
X168113940Y-117164555D01*
X168113934Y-117164564D01*
X168007718Y-117336109D01*
X168007715Y-117336114D01*
X168004702Y-117340981D01*
X168002636Y-117346313D01*
X168002632Y-117346322D01*
X167929750Y-117534454D01*
X167929747Y-117534461D01*
X167927679Y-117539802D01*
X167926625Y-117545436D01*
X167926625Y-117545439D01*
X167891853Y-117731454D01*
X167888500Y-117749390D01*
X167888500Y-117755119D01*
X167888500Y-117823060D01*
X167879061Y-117870513D01*
X167852181Y-117910741D01*
X166253109Y-119509812D01*
X166253105Y-119509816D01*
X166248184Y-119514738D01*
X166244479Y-119520632D01*
X166244479Y-119520634D01*
X166227816Y-119547152D01*
X166219773Y-119558487D01*
X166200253Y-119582965D01*
X166200251Y-119582967D01*
X166195909Y-119588413D01*
X166192889Y-119594682D01*
X166192883Y-119594693D01*
X166179299Y-119622900D01*
X166172577Y-119635064D01*
X166152211Y-119667478D01*
X166149915Y-119674037D01*
X166149911Y-119674047D01*
X166139565Y-119703613D01*
X166134247Y-119716451D01*
X166120660Y-119744666D01*
X166120657Y-119744671D01*
X166117640Y-119750939D01*
X166116092Y-119757717D01*
X166116089Y-119757728D01*
X166109118Y-119788268D01*
X166105272Y-119801619D01*
X166092632Y-119837745D01*
X166091852Y-119844663D01*
X166091852Y-119844665D01*
X166088345Y-119875781D01*
X166086017Y-119889479D01*
X166079050Y-119920008D01*
X166079048Y-119920020D01*
X166077500Y-119926806D01*
X166077500Y-119933772D01*
X166077500Y-125170086D01*
X166076720Y-125183968D01*
X166072435Y-125222000D01*
X166073215Y-125228923D01*
X166076720Y-125260031D01*
X166077500Y-125273914D01*
X166077500Y-127925806D01*
X166077500Y-128106194D01*
X166079049Y-128112983D01*
X166079050Y-128112988D01*
X166086017Y-128143518D01*
X166088345Y-128157218D01*
X166088622Y-128159674D01*
X166092632Y-128195255D01*
X166094929Y-128201821D01*
X166094930Y-128201823D01*
X166105272Y-128231379D01*
X166109119Y-128244735D01*
X166116088Y-128275267D01*
X166116091Y-128275276D01*
X166117640Y-128282061D01*
X166120658Y-128288329D01*
X166120661Y-128288336D01*
X166134250Y-128316554D01*
X166139568Y-128329393D01*
X166152211Y-128365522D01*
X166155912Y-128371412D01*
X166155913Y-128371414D01*
X166172572Y-128397927D01*
X166179296Y-128410093D01*
X166192888Y-128438315D01*
X166195909Y-128444587D01*
X166219771Y-128474509D01*
X166227818Y-128485850D01*
X166248184Y-128518262D01*
X166280174Y-128550251D01*
X166280174Y-128550252D01*
X166280175Y-128550253D01*
X168418181Y-130688259D01*
X168445061Y-130728487D01*
X168454500Y-130775940D01*
X168454500Y-130864749D01*
X168456293Y-130872024D01*
X168456294Y-130872030D01*
X168490258Y-131009825D01*
X168491099Y-131065525D01*
X168467472Y-131115973D01*
X168424144Y-131150987D01*
X168369861Y-131163500D01*
X166394714Y-131163500D01*
X166394696Y-131163500D01*
X166391136Y-131163501D01*
X166387589Y-131163912D01*
X166387577Y-131163913D01*
X166375277Y-131165340D01*
X166375275Y-131165340D01*
X166366009Y-131166415D01*
X166357479Y-131170180D01*
X166357476Y-131170182D01*
X166273745Y-131207153D01*
X166273743Y-131207154D01*
X166263235Y-131211794D01*
X166255112Y-131219916D01*
X166255109Y-131219919D01*
X166191919Y-131283109D01*
X166191916Y-131283112D01*
X166183794Y-131291235D01*
X166179154Y-131301743D01*
X166179153Y-131301745D01*
X166142181Y-131385477D01*
X166142179Y-131385484D01*
X166138415Y-131394009D01*
X166137340Y-131403271D01*
X166137340Y-131403273D01*
X166135911Y-131415585D01*
X166135910Y-131415599D01*
X166135500Y-131419135D01*
X166135500Y-131422708D01*
X166135500Y-131422709D01*
X166135500Y-135305285D01*
X166135500Y-135305302D01*
X166135501Y-135308864D01*
X166135912Y-135312411D01*
X166135913Y-135312422D01*
X166137340Y-135324722D01*
X166138415Y-135333991D01*
X166183794Y-135436765D01*
X166263235Y-135516206D01*
X166313355Y-135538336D01*
X166357477Y-135557818D01*
X166357478Y-135557818D01*
X166366009Y-135561585D01*
X166391135Y-135564500D01*
X168480864Y-135564499D01*
X168505991Y-135561585D01*
X168608765Y-135516206D01*
X168688206Y-135436765D01*
X168733585Y-135333991D01*
X168736500Y-135308865D01*
X168736499Y-131538996D01*
X168750703Y-131481371D01*
X168790059Y-131436947D01*
X168845553Y-131415901D01*
X168904466Y-131423054D01*
X168971709Y-131448556D01*
X169094781Y-131463500D01*
X169142060Y-131463500D01*
X169189513Y-131472939D01*
X169229740Y-131499818D01*
X169296184Y-131566262D01*
X169423738Y-131693816D01*
X169456147Y-131714180D01*
X169467480Y-131722221D01*
X169491969Y-131741751D01*
X169491971Y-131741752D01*
X169497413Y-131746092D01*
X169503679Y-131749109D01*
X169503688Y-131749115D01*
X169531908Y-131762704D01*
X169544061Y-131769419D01*
X169575476Y-131789159D01*
X169618028Y-131834170D01*
X169633500Y-131894150D01*
X169633500Y-135275806D01*
X169633500Y-135456194D01*
X169635049Y-135462983D01*
X169635050Y-135462988D01*
X169642017Y-135493518D01*
X169644345Y-135507218D01*
X169645358Y-135516206D01*
X169648632Y-135545255D01*
X169650929Y-135551821D01*
X169650930Y-135551823D01*
X169661272Y-135581379D01*
X169665119Y-135594735D01*
X169672088Y-135625267D01*
X169672091Y-135625276D01*
X169673640Y-135632061D01*
X169676658Y-135638329D01*
X169676661Y-135638336D01*
X169690250Y-135666554D01*
X169695568Y-135679393D01*
X169708211Y-135715522D01*
X169711912Y-135721412D01*
X169711913Y-135721414D01*
X169728572Y-135747927D01*
X169735296Y-135760093D01*
X169748888Y-135788315D01*
X169751909Y-135794587D01*
X169775771Y-135824509D01*
X169783818Y-135835850D01*
X169804184Y-135868262D01*
X169836174Y-135900252D01*
X172106184Y-138170262D01*
X172233738Y-138297816D01*
X172239632Y-138301519D01*
X172239633Y-138301520D01*
X172266150Y-138318182D01*
X172277490Y-138326228D01*
X172307414Y-138350092D01*
X172327794Y-138359906D01*
X172341898Y-138366699D01*
X172354068Y-138373424D01*
X172358927Y-138376477D01*
X172380581Y-138390084D01*
X172380583Y-138390085D01*
X172386478Y-138393789D01*
X172422613Y-138406433D01*
X172435443Y-138411748D01*
X172463662Y-138425338D01*
X172463667Y-138425340D01*
X172469939Y-138428360D01*
X172476729Y-138429909D01*
X172483298Y-138432208D01*
X172482526Y-138434412D01*
X172524321Y-138455511D01*
X172558866Y-138504197D01*
X172566658Y-138563383D01*
X172545892Y-138619351D01*
X172501380Y-138659130D01*
X172443438Y-138673500D01*
X165285300Y-138673500D01*
X165223300Y-138656887D01*
X165177913Y-138611500D01*
X165161300Y-138549500D01*
X165161300Y-111419176D01*
X167698468Y-111419176D01*
X167703959Y-111481932D01*
X167705830Y-111492543D01*
X167764168Y-111710263D01*
X167767856Y-111720397D01*
X167863110Y-111924667D01*
X167868508Y-111934017D01*
X167997784Y-112118642D01*
X168004719Y-112126907D01*
X168164092Y-112286280D01*
X168172357Y-112293215D01*
X168356982Y-112422491D01*
X168366332Y-112427889D01*
X168570602Y-112523143D01*
X168580736Y-112526831D01*
X168798446Y-112585166D01*
X168809078Y-112587041D01*
X168977354Y-112601763D01*
X168982764Y-112602000D01*
X168997674Y-112602000D01*
X169010549Y-112598549D01*
X169014000Y-112585674D01*
X169314000Y-112585674D01*
X169317450Y-112598549D01*
X169330326Y-112602000D01*
X169345236Y-112602000D01*
X169350645Y-112601763D01*
X169518921Y-112587041D01*
X169529553Y-112585166D01*
X169747263Y-112526831D01*
X169757397Y-112523143D01*
X169961667Y-112427889D01*
X169971017Y-112422491D01*
X170155642Y-112293215D01*
X170163907Y-112286280D01*
X170323278Y-112126909D01*
X170330215Y-112118643D01*
X170459498Y-111934008D01*
X170464886Y-111924676D01*
X170560143Y-111720397D01*
X170563831Y-111710263D01*
X170622169Y-111492543D01*
X170624040Y-111481932D01*
X170629531Y-111419176D01*
X170626959Y-111405734D01*
X170613791Y-111402000D01*
X169330326Y-111402000D01*
X169317450Y-111405450D01*
X169314000Y-111418326D01*
X169314000Y-112585674D01*
X169014000Y-112585674D01*
X169014000Y-111418326D01*
X169010549Y-111405450D01*
X168997674Y-111402000D01*
X167714209Y-111402000D01*
X167701040Y-111405734D01*
X167698468Y-111419176D01*
X165161300Y-111419176D01*
X165161300Y-97408823D01*
X167698468Y-97408823D01*
X167701040Y-97422265D01*
X167714209Y-97426000D01*
X168997674Y-97426000D01*
X169010549Y-97422549D01*
X169014000Y-97409674D01*
X169314000Y-97409674D01*
X169317450Y-97422549D01*
X169330326Y-97426000D01*
X170613791Y-97426000D01*
X170626959Y-97422265D01*
X170629531Y-97408823D01*
X170624040Y-97346067D01*
X170622169Y-97335456D01*
X170563831Y-97117736D01*
X170560143Y-97107602D01*
X170464889Y-96903332D01*
X170459491Y-96893982D01*
X170330215Y-96709357D01*
X170323280Y-96701092D01*
X170163907Y-96541719D01*
X170155642Y-96534784D01*
X169971017Y-96405508D01*
X169961667Y-96400110D01*
X169757397Y-96304856D01*
X169747263Y-96301168D01*
X169529553Y-96242833D01*
X169518921Y-96240958D01*
X169350645Y-96226236D01*
X169345236Y-96226000D01*
X169330326Y-96226000D01*
X169317450Y-96229450D01*
X169314000Y-96242326D01*
X169314000Y-97409674D01*
X169014000Y-97409674D01*
X169014000Y-96242326D01*
X169010549Y-96229450D01*
X168997674Y-96226000D01*
X168982764Y-96226000D01*
X168977354Y-96226236D01*
X168809078Y-96240958D01*
X168798446Y-96242833D01*
X168580736Y-96301168D01*
X168570602Y-96304856D01*
X168366332Y-96400110D01*
X168356982Y-96405508D01*
X168172357Y-96534784D01*
X168164092Y-96541719D01*
X168004721Y-96701090D01*
X167997784Y-96709356D01*
X167868501Y-96893991D01*
X167863113Y-96903323D01*
X167767856Y-97107602D01*
X167764168Y-97117736D01*
X167705830Y-97335456D01*
X167703959Y-97346067D01*
X167698468Y-97408823D01*
X165161300Y-97408823D01*
X165161300Y-94317700D01*
X165177913Y-94255700D01*
X165223300Y-94210313D01*
X165285300Y-94193700D01*
X213479500Y-94193700D01*
X213541500Y-94210313D01*
G37*
%TD.AperFunction*%
%TA.AperFunction,Conductor*%
G36*
X198118385Y-98544118D02*
G01*
X198155985Y-98588141D01*
X198169500Y-98644435D01*
X198169500Y-98875285D01*
X198169500Y-98875302D01*
X198169501Y-98878864D01*
X198169912Y-98882411D01*
X198169913Y-98882422D01*
X198171196Y-98893480D01*
X198172415Y-98903991D01*
X198176181Y-98912521D01*
X198176182Y-98912523D01*
X198201081Y-98968914D01*
X198211646Y-99019000D01*
X198201081Y-99069086D01*
X198176181Y-99125477D01*
X198176179Y-99125484D01*
X198172415Y-99134009D01*
X198171340Y-99143271D01*
X198171340Y-99143273D01*
X198169911Y-99155585D01*
X198169910Y-99155599D01*
X198169500Y-99159135D01*
X198169500Y-99162708D01*
X198169500Y-99162709D01*
X198169500Y-100145285D01*
X198169500Y-100145302D01*
X198169501Y-100148864D01*
X198169912Y-100152411D01*
X198169913Y-100152422D01*
X198171340Y-100164722D01*
X198172415Y-100173991D01*
X198176181Y-100182521D01*
X198176182Y-100182523D01*
X198201081Y-100238914D01*
X198211646Y-100289000D01*
X198201081Y-100339086D01*
X198176181Y-100395477D01*
X198176179Y-100395484D01*
X198172415Y-100404009D01*
X198171340Y-100413271D01*
X198171340Y-100413273D01*
X198169911Y-100425585D01*
X198169910Y-100425599D01*
X198169500Y-100429135D01*
X198169500Y-100432708D01*
X198169500Y-100432709D01*
X198169500Y-101415285D01*
X198169500Y-101415302D01*
X198169501Y-101418864D01*
X198169912Y-101422411D01*
X198169913Y-101422422D01*
X198171262Y-101434046D01*
X198172415Y-101443991D01*
X198176181Y-101452521D01*
X198176182Y-101452523D01*
X198201081Y-101508914D01*
X198211646Y-101559000D01*
X198201081Y-101609086D01*
X198176181Y-101665477D01*
X198176179Y-101665484D01*
X198172415Y-101674009D01*
X198171340Y-101683271D01*
X198171340Y-101683273D01*
X198169911Y-101695585D01*
X198169910Y-101695599D01*
X198169500Y-101699135D01*
X198169500Y-101702708D01*
X198169500Y-101702709D01*
X198169500Y-102685285D01*
X198169500Y-102685302D01*
X198169501Y-102688864D01*
X198169912Y-102692411D01*
X198169913Y-102692422D01*
X198171340Y-102704722D01*
X198172415Y-102713991D01*
X198176181Y-102722521D01*
X198176182Y-102722523D01*
X198201081Y-102778914D01*
X198211646Y-102829000D01*
X198201081Y-102879086D01*
X198176181Y-102935477D01*
X198176179Y-102935484D01*
X198172415Y-102944009D01*
X198171340Y-102953271D01*
X198171340Y-102953273D01*
X198169911Y-102965585D01*
X198169910Y-102965599D01*
X198169500Y-102969135D01*
X198169500Y-102972708D01*
X198169500Y-102972709D01*
X198169500Y-103955285D01*
X198169500Y-103955302D01*
X198169501Y-103958864D01*
X198169912Y-103962411D01*
X198169913Y-103962422D01*
X198170331Y-103966025D01*
X198172415Y-103983991D01*
X198176181Y-103992521D01*
X198176182Y-103992523D01*
X198201081Y-104048914D01*
X198211646Y-104099000D01*
X198201081Y-104149086D01*
X198176181Y-104205477D01*
X198176179Y-104205484D01*
X198172415Y-104214009D01*
X198171340Y-104223271D01*
X198171340Y-104223273D01*
X198169911Y-104235585D01*
X198169910Y-104235599D01*
X198169500Y-104239135D01*
X198169500Y-104242708D01*
X198169500Y-104242709D01*
X198169500Y-105225285D01*
X198169500Y-105225302D01*
X198169501Y-105228864D01*
X198169912Y-105232411D01*
X198169913Y-105232422D01*
X198171180Y-105243342D01*
X198172415Y-105253991D01*
X198176181Y-105262521D01*
X198176182Y-105262523D01*
X198201081Y-105318914D01*
X198211646Y-105369000D01*
X198201081Y-105419086D01*
X198176181Y-105475477D01*
X198176179Y-105475484D01*
X198172415Y-105484009D01*
X198171340Y-105493271D01*
X198171340Y-105493273D01*
X198169911Y-105505585D01*
X198169910Y-105505599D01*
X198169500Y-105509135D01*
X198169500Y-106002302D01*
X198169501Y-106468500D01*
X198152888Y-106530500D01*
X198107501Y-106575887D01*
X198045501Y-106592500D01*
X197804332Y-106592500D01*
X197796846Y-106592274D01*
X197746037Y-106589200D01*
X197746029Y-106589200D01*
X197738550Y-106588748D01*
X197718074Y-106592500D01*
X197681103Y-106599274D01*
X197673707Y-106600399D01*
X197623158Y-106606538D01*
X197623146Y-106606540D01*
X197615709Y-106607444D01*
X197608702Y-106610100D01*
X197608698Y-106610102D01*
X197607244Y-106610653D01*
X197606767Y-106610834D01*
X197585173Y-106616854D01*
X197583145Y-106617225D01*
X197583137Y-106617227D01*
X197575763Y-106618579D01*
X197568923Y-106621657D01*
X197568921Y-106621658D01*
X197522488Y-106642555D01*
X197515572Y-106645419D01*
X197467978Y-106663469D01*
X197467969Y-106663473D01*
X197460965Y-106666130D01*
X197454799Y-106670385D01*
X197454791Y-106670390D01*
X197453093Y-106671563D01*
X197433565Y-106682576D01*
X197431695Y-106683417D01*
X197431682Y-106683424D01*
X197424845Y-106686502D01*
X197418944Y-106691124D01*
X197418934Y-106691131D01*
X197378853Y-106722532D01*
X197372824Y-106726968D01*
X197330936Y-106755882D01*
X197330930Y-106755886D01*
X197324763Y-106760144D01*
X197319794Y-106765751D01*
X197319790Y-106765756D01*
X197286030Y-106803862D01*
X197280898Y-106809313D01*
X193302032Y-110788181D01*
X193261804Y-110815061D01*
X193214351Y-110824500D01*
X186140781Y-110824500D01*
X186137073Y-110824950D01*
X186137060Y-110824951D01*
X186025157Y-110838539D01*
X186025151Y-110838540D01*
X186017709Y-110839444D01*
X186010700Y-110842101D01*
X186010692Y-110842104D01*
X185869982Y-110895468D01*
X185869976Y-110895471D01*
X185862965Y-110898130D01*
X185856792Y-110902390D01*
X185856788Y-110902393D01*
X185732933Y-110987884D01*
X185732927Y-110987889D01*
X185726763Y-110992144D01*
X185721791Y-110997755D01*
X185721790Y-110997757D01*
X185621990Y-111110406D01*
X185621984Y-111110413D01*
X185617017Y-111116021D01*
X185613532Y-111122660D01*
X185613532Y-111122661D01*
X185550062Y-111243595D01*
X185540107Y-111262562D01*
X185538312Y-111269843D01*
X185538312Y-111269844D01*
X185504818Y-111405734D01*
X185500500Y-111423251D01*
X185500500Y-111588749D01*
X185502293Y-111596026D01*
X185502294Y-111596028D01*
X185512452Y-111637241D01*
X185540107Y-111749438D01*
X185617017Y-111895979D01*
X185621987Y-111901589D01*
X185621990Y-111901593D01*
X185642432Y-111924667D01*
X185726763Y-112019856D01*
X185732932Y-112024114D01*
X185732933Y-112024115D01*
X185748978Y-112035190D01*
X185862965Y-112113870D01*
X185917571Y-112134579D01*
X186008796Y-112169176D01*
X186017709Y-112172556D01*
X186140781Y-112187500D01*
X193523668Y-112187500D01*
X193531154Y-112187726D01*
X193589450Y-112191252D01*
X193646937Y-112180717D01*
X193654289Y-112179598D01*
X193712291Y-112172556D01*
X193721206Y-112169174D01*
X193742843Y-112163142D01*
X193752237Y-112161421D01*
X193805507Y-112137444D01*
X193812414Y-112134583D01*
X193867035Y-112113870D01*
X193874880Y-112108453D01*
X193894453Y-112097413D01*
X193903155Y-112093498D01*
X193949165Y-112057450D01*
X193955152Y-112053045D01*
X194003237Y-112019856D01*
X194041976Y-111976127D01*
X194047078Y-111970707D01*
X197957821Y-108059965D01*
X198007182Y-108029717D01*
X198064898Y-108025175D01*
X198118385Y-108047330D01*
X198155985Y-108091353D01*
X198169500Y-108147648D01*
X198169500Y-109035285D01*
X198169500Y-109035302D01*
X198169501Y-109038864D01*
X198169912Y-109042411D01*
X198169913Y-109042422D01*
X198170112Y-109044134D01*
X198172415Y-109063991D01*
X198176182Y-109072523D01*
X198176184Y-109072529D01*
X198201080Y-109128913D01*
X198211646Y-109178998D01*
X198201081Y-109229084D01*
X198176182Y-109285474D01*
X198176179Y-109285483D01*
X198172415Y-109294009D01*
X198171340Y-109303271D01*
X198171340Y-109303273D01*
X198169911Y-109315585D01*
X198169910Y-109315599D01*
X198169500Y-109319135D01*
X198169500Y-109322708D01*
X198169500Y-109322709D01*
X198169500Y-110305285D01*
X198169500Y-110305302D01*
X198169501Y-110308864D01*
X198169912Y-110312411D01*
X198169913Y-110312422D01*
X198171026Y-110322015D01*
X198172415Y-110333991D01*
X198176182Y-110342523D01*
X198176184Y-110342529D01*
X198201080Y-110398913D01*
X198211646Y-110448998D01*
X198201081Y-110499084D01*
X198176182Y-110555474D01*
X198176179Y-110555483D01*
X198172415Y-110564009D01*
X198171340Y-110573271D01*
X198171340Y-110573273D01*
X198169911Y-110585585D01*
X198169910Y-110585599D01*
X198169500Y-110589135D01*
X198169500Y-110592708D01*
X198169500Y-110592709D01*
X198169500Y-111575285D01*
X198169500Y-111575302D01*
X198169501Y-111578864D01*
X198169912Y-111582411D01*
X198169913Y-111582422D01*
X198171007Y-111591850D01*
X198172415Y-111603991D01*
X198176182Y-111612523D01*
X198176184Y-111612529D01*
X198201080Y-111668913D01*
X198211646Y-111718998D01*
X198201081Y-111769084D01*
X198176182Y-111825474D01*
X198176179Y-111825483D01*
X198172415Y-111834009D01*
X198171340Y-111843271D01*
X198171340Y-111843273D01*
X198169911Y-111855585D01*
X198169910Y-111855599D01*
X198169500Y-111859135D01*
X198169500Y-111862708D01*
X198169500Y-111862709D01*
X198169500Y-112845285D01*
X198169500Y-112845302D01*
X198169501Y-112848864D01*
X198169912Y-112852411D01*
X198169913Y-112852422D01*
X198170080Y-112853859D01*
X198172415Y-112873991D01*
X198176182Y-112882523D01*
X198176184Y-112882529D01*
X198201080Y-112938913D01*
X198211646Y-112988998D01*
X198201081Y-113039084D01*
X198176182Y-113095474D01*
X198176179Y-113095483D01*
X198172415Y-113104009D01*
X198171340Y-113113271D01*
X198171340Y-113113273D01*
X198169911Y-113125585D01*
X198169910Y-113125599D01*
X198169500Y-113129135D01*
X198169500Y-113132708D01*
X198169500Y-113132709D01*
X198169500Y-114115285D01*
X198169500Y-114115302D01*
X198169501Y-114118864D01*
X198169912Y-114122411D01*
X198169913Y-114122422D01*
X198170294Y-114125705D01*
X198172415Y-114143991D01*
X198176181Y-114152521D01*
X198176182Y-114152523D01*
X198188702Y-114180878D01*
X198217794Y-114246765D01*
X198297235Y-114326206D01*
X198357381Y-114352763D01*
X198391477Y-114367818D01*
X198391478Y-114367818D01*
X198400009Y-114371585D01*
X198425135Y-114374500D01*
X200014864Y-114374499D01*
X200039991Y-114371585D01*
X200058817Y-114363272D01*
X200124440Y-114334298D01*
X200184408Y-114324126D01*
X200241999Y-114343697D01*
X200281112Y-114385880D01*
X200284519Y-114390431D01*
X200288329Y-114397407D01*
X200303500Y-114456840D01*
X200303500Y-115275590D01*
X200294854Y-115321080D01*
X200247558Y-115441011D01*
X200247556Y-115441016D01*
X200244641Y-115448410D01*
X200243693Y-115456298D01*
X200243692Y-115456305D01*
X200234941Y-115529178D01*
X200234940Y-115529189D01*
X200234500Y-115532856D01*
X200234500Y-116115144D01*
X200234940Y-116118811D01*
X200234941Y-116118821D01*
X200243692Y-116191694D01*
X200243693Y-116191699D01*
X200244641Y-116199590D01*
X200247557Y-116206985D01*
X200247558Y-116206988D01*
X200290214Y-116315154D01*
X200297636Y-116333975D01*
X200384922Y-116449078D01*
X200500025Y-116536364D01*
X200634410Y-116589359D01*
X200718856Y-116599500D01*
X201247444Y-116599500D01*
X201251144Y-116599500D01*
X201335590Y-116589359D01*
X201469975Y-116536364D01*
X201585078Y-116449078D01*
X201672364Y-116333975D01*
X201725359Y-116199590D01*
X201735500Y-116115144D01*
X201735500Y-115532856D01*
X201725359Y-115448410D01*
X201675145Y-115321079D01*
X201666500Y-115275590D01*
X201666500Y-114491790D01*
X201672846Y-114452631D01*
X201691233Y-114417479D01*
X201701388Y-114403913D01*
X201716796Y-114383331D01*
X201767091Y-114248483D01*
X201773500Y-114188873D01*
X201773499Y-113693128D01*
X201767091Y-113633517D01*
X201716796Y-113498669D01*
X201630546Y-113383454D01*
X201515331Y-113297204D01*
X201411863Y-113258613D01*
X201387752Y-113249620D01*
X201387750Y-113249619D01*
X201380483Y-113246909D01*
X201372770Y-113246079D01*
X201372767Y-113246079D01*
X201324180Y-113240855D01*
X201324169Y-113240854D01*
X201320873Y-113240500D01*
X201317551Y-113240500D01*
X201129945Y-113240500D01*
X201080578Y-113230249D01*
X201039372Y-113201191D01*
X201038436Y-113200190D01*
X201010092Y-113150639D01*
X201006951Y-113093640D01*
X201029678Y-113041274D01*
X201073457Y-113004639D01*
X201129007Y-112991499D01*
X201320872Y-112991499D01*
X201380483Y-112985091D01*
X201515331Y-112934796D01*
X201630546Y-112848546D01*
X201635861Y-112841445D01*
X201642129Y-112835178D01*
X201643113Y-112836162D01*
X201677864Y-112807069D01*
X201733158Y-112793862D01*
X201788535Y-112806718D01*
X201832354Y-112842935D01*
X201891796Y-112921320D01*
X201891801Y-112921325D01*
X201896922Y-112928078D01*
X202012025Y-113015364D01*
X202146410Y-113068359D01*
X202230856Y-113078500D01*
X202338561Y-113078500D01*
X202386014Y-113087939D01*
X202426242Y-113114819D01*
X202990181Y-113678757D01*
X203017061Y-113718985D01*
X203026500Y-113766438D01*
X203026500Y-118897562D01*
X203017061Y-118945015D01*
X202990181Y-118985243D01*
X200887615Y-121087807D01*
X200877251Y-121097070D01*
X200858344Y-121112148D01*
X200858340Y-121112151D01*
X200851080Y-121117942D01*
X200845847Y-121125615D01*
X200845843Y-121125621D01*
X200820583Y-121162669D01*
X200817904Y-121166445D01*
X200791287Y-121202511D01*
X200791285Y-121202513D01*
X200785771Y-121209986D01*
X200783077Y-121217682D01*
X200778485Y-121224419D01*
X200775747Y-121233292D01*
X200775746Y-121233296D01*
X200762525Y-121276153D01*
X200761078Y-121280550D01*
X200746276Y-121322854D01*
X200746274Y-121322859D01*
X200743208Y-121331625D01*
X200742903Y-121339774D01*
X200740500Y-121347565D01*
X200740500Y-121356852D01*
X200740500Y-121401680D01*
X200740413Y-121406317D01*
X200738736Y-121451117D01*
X200738736Y-121451120D01*
X200738389Y-121460405D01*
X200740112Y-121466838D01*
X200740500Y-121473730D01*
X200740500Y-123275562D01*
X200731061Y-123323015D01*
X200704181Y-123363243D01*
X199596241Y-124471181D01*
X199556013Y-124498061D01*
X199508560Y-124507500D01*
X198722714Y-124507500D01*
X198722696Y-124507500D01*
X198719136Y-124507501D01*
X198715589Y-124507912D01*
X198715577Y-124507913D01*
X198703277Y-124509340D01*
X198703275Y-124509340D01*
X198694009Y-124510415D01*
X198685479Y-124514180D01*
X198685476Y-124514182D01*
X198601745Y-124551153D01*
X198601743Y-124551154D01*
X198591235Y-124555794D01*
X198583112Y-124563916D01*
X198583109Y-124563919D01*
X198519919Y-124627109D01*
X198519916Y-124627112D01*
X198511794Y-124635235D01*
X198507154Y-124645743D01*
X198507153Y-124645745D01*
X198470181Y-124729477D01*
X198470179Y-124729484D01*
X198466415Y-124738009D01*
X198465340Y-124747271D01*
X198465340Y-124747273D01*
X198463911Y-124759585D01*
X198463910Y-124759599D01*
X198463500Y-124763135D01*
X198463500Y-124766708D01*
X198463500Y-124766709D01*
X198463500Y-125849285D01*
X198463500Y-125849302D01*
X198463501Y-125852864D01*
X198463912Y-125856411D01*
X198463913Y-125856422D01*
X198464955Y-125865400D01*
X198466415Y-125877991D01*
X198470181Y-125886521D01*
X198470182Y-125886523D01*
X198496665Y-125946500D01*
X198511794Y-125980765D01*
X198591235Y-126060206D01*
X198646256Y-126084500D01*
X198685477Y-126101818D01*
X198685478Y-126101818D01*
X198694009Y-126105585D01*
X198719135Y-126108500D01*
X200008864Y-126108499D01*
X200033991Y-126105585D01*
X200136765Y-126060206D01*
X200216206Y-125980765D01*
X200261585Y-125877991D01*
X200264500Y-125852865D01*
X200264499Y-125063437D01*
X200273938Y-125015985D01*
X200300816Y-124975759D01*
X201357687Y-123918887D01*
X201413270Y-123886796D01*
X201477455Y-123886794D01*
X201528337Y-123916167D01*
X201528350Y-123916150D01*
X201637618Y-123996793D01*
X201646386Y-123999861D01*
X201748339Y-124035536D01*
X201765801Y-124041646D01*
X201796234Y-124044500D01*
X202085115Y-124044500D01*
X202136006Y-124055424D01*
X202233763Y-124099421D01*
X202396550Y-124129252D01*
X202561747Y-124119260D01*
X202719750Y-124070024D01*
X202728324Y-124064840D01*
X202732391Y-124062383D01*
X202796540Y-124044500D01*
X203076873Y-124044500D01*
X203079766Y-124044500D01*
X203110199Y-124041646D01*
X203117319Y-124039154D01*
X203124694Y-124037544D01*
X203125176Y-124039752D01*
X203173603Y-124035536D01*
X203229823Y-124060203D01*
X203267320Y-124108816D01*
X203276901Y-124169458D01*
X203275000Y-124189734D01*
X203275000Y-124598266D01*
X203275269Y-124601141D01*
X203275270Y-124601149D01*
X203277149Y-124621187D01*
X203277149Y-124621191D01*
X203277854Y-124628699D01*
X203280342Y-124635811D01*
X203280344Y-124635817D01*
X203319638Y-124748113D01*
X203319639Y-124748116D01*
X203322707Y-124756882D01*
X203328222Y-124764355D01*
X203328224Y-124764358D01*
X203361006Y-124808776D01*
X203403350Y-124866150D01*
X203410827Y-124871668D01*
X203504814Y-124941034D01*
X203512618Y-124946793D01*
X203640801Y-124991646D01*
X203671234Y-124994500D01*
X203951808Y-124994500D01*
X203995779Y-125002558D01*
X204139796Y-125057176D01*
X204148709Y-125060556D01*
X204271781Y-125075500D01*
X206797668Y-125075500D01*
X206805154Y-125075726D01*
X206863450Y-125079252D01*
X206920937Y-125068717D01*
X206928289Y-125067598D01*
X206986291Y-125060556D01*
X206995206Y-125057174D01*
X207016843Y-125051142D01*
X207026237Y-125049421D01*
X207079507Y-125025444D01*
X207086414Y-125022583D01*
X207141035Y-125001870D01*
X207148880Y-124996453D01*
X207168453Y-124985413D01*
X207177155Y-124981498D01*
X207223165Y-124945450D01*
X207229152Y-124941045D01*
X207277237Y-124907856D01*
X207315976Y-124864127D01*
X207321078Y-124858707D01*
X208017967Y-124161819D01*
X208058196Y-124134939D01*
X208105649Y-124125500D01*
X208434702Y-124125500D01*
X208484788Y-124136065D01*
X208526339Y-124165961D01*
X208550649Y-124192627D01*
X208646593Y-124297872D01*
X208816745Y-124426366D01*
X209007611Y-124521405D01*
X209013129Y-124522975D01*
X209108933Y-124550234D01*
X209159938Y-124579160D01*
X209191949Y-124628288D01*
X209197809Y-124686632D01*
X209176206Y-124741144D01*
X209131972Y-124779636D01*
X209074998Y-124793500D01*
X208781898Y-124793500D01*
X208778233Y-124793940D01*
X208778218Y-124793941D01*
X208701331Y-124803174D01*
X208701324Y-124803175D01*
X208693436Y-124804123D01*
X208686040Y-124807039D01*
X208686038Y-124807040D01*
X208560551Y-124856526D01*
X208560548Y-124856527D01*
X208552658Y-124859639D01*
X208545899Y-124864764D01*
X208545898Y-124864765D01*
X208438835Y-124945953D01*
X208438830Y-124945957D01*
X208432078Y-124951078D01*
X208426957Y-124957830D01*
X208426953Y-124957835D01*
X208376848Y-125023909D01*
X208340639Y-125071658D01*
X208337527Y-125079548D01*
X208337526Y-125079551D01*
X208301824Y-125170086D01*
X208285123Y-125212436D01*
X208284175Y-125220324D01*
X208284174Y-125220331D01*
X208274941Y-125297218D01*
X208274940Y-125297233D01*
X208274500Y-125300898D01*
X208274500Y-126587102D01*
X208274940Y-126590767D01*
X208274941Y-126590781D01*
X208284174Y-126667668D01*
X208284175Y-126667674D01*
X208285123Y-126675564D01*
X208340639Y-126816342D01*
X208432078Y-126936922D01*
X208552658Y-127028361D01*
X208670995Y-127075027D01*
X208712178Y-127101705D01*
X208739789Y-127142275D01*
X208749500Y-127190379D01*
X208749500Y-130046060D01*
X208740061Y-130093513D01*
X208713181Y-130133741D01*
X202015741Y-136831181D01*
X201975513Y-136858061D01*
X201928060Y-136867500D01*
X173118940Y-136867500D01*
X173071487Y-136858061D01*
X173031259Y-136831181D01*
X171270819Y-135070741D01*
X171243939Y-135030513D01*
X171234500Y-134983060D01*
X171234500Y-131988500D01*
X171251113Y-131926500D01*
X171296500Y-131881113D01*
X171358500Y-131864500D01*
X172349010Y-131864500D01*
X172395579Y-131873577D01*
X172435331Y-131899479D01*
X172462444Y-131938414D01*
X172479150Y-131976250D01*
X172479153Y-131976254D01*
X172483794Y-131986765D01*
X172563235Y-132066206D01*
X172573747Y-132070847D01*
X172573748Y-132070848D01*
X172641051Y-132100566D01*
X172686362Y-132134783D01*
X172711670Y-132185610D01*
X172711670Y-132242390D01*
X172686362Y-132293217D01*
X172641051Y-132327434D01*
X172573748Y-132357151D01*
X172573743Y-132357154D01*
X172563235Y-132361794D01*
X172555112Y-132369916D01*
X172555109Y-132369919D01*
X172491919Y-132433109D01*
X172491916Y-132433112D01*
X172483794Y-132441235D01*
X172479154Y-132451743D01*
X172479153Y-132451745D01*
X172442181Y-132535477D01*
X172442179Y-132535484D01*
X172438415Y-132544009D01*
X172437340Y-132553271D01*
X172437340Y-132553273D01*
X172435911Y-132565585D01*
X172435910Y-132565599D01*
X172435500Y-132569135D01*
X172435500Y-132572708D01*
X172435500Y-132572709D01*
X172435500Y-134155285D01*
X172435500Y-134155302D01*
X172435501Y-134158864D01*
X172435912Y-134162411D01*
X172435913Y-134162422D01*
X172437340Y-134174722D01*
X172438415Y-134183991D01*
X172442181Y-134192521D01*
X172442182Y-134192523D01*
X172448260Y-134206289D01*
X172483794Y-134286765D01*
X172563235Y-134366206D01*
X172634111Y-134397501D01*
X172657477Y-134407818D01*
X172657478Y-134407818D01*
X172666009Y-134411585D01*
X172691135Y-134414500D01*
X174780864Y-134414499D01*
X174805991Y-134411585D01*
X174908765Y-134366206D01*
X174988206Y-134286765D01*
X175000715Y-134258433D01*
X175043972Y-134206289D01*
X175108177Y-134184662D01*
X175174166Y-134200009D01*
X175219433Y-134244962D01*
X175219636Y-134245475D01*
X175306922Y-134360578D01*
X175313674Y-134365698D01*
X175313678Y-134365702D01*
X175417425Y-134444376D01*
X175453556Y-134488020D01*
X175466500Y-134543180D01*
X175466500Y-134545208D01*
X175449534Y-134607816D01*
X175408549Y-134648108D01*
X175409025Y-134648736D01*
X175404153Y-134652429D01*
X175404146Y-134652435D01*
X175402274Y-134653854D01*
X175402271Y-134653857D01*
X175300674Y-134730901D01*
X175300670Y-134730904D01*
X175293922Y-134736022D01*
X175288804Y-134742770D01*
X175288801Y-134742774D01*
X175233191Y-134816107D01*
X175206636Y-134851125D01*
X175203523Y-134859016D01*
X175203522Y-134859020D01*
X175156558Y-134978111D01*
X175156556Y-134978116D01*
X175153641Y-134985510D01*
X175152693Y-134993398D01*
X175152692Y-134993405D01*
X175143941Y-135066278D01*
X175143940Y-135066289D01*
X175143500Y-135069956D01*
X175143500Y-135652244D01*
X175143940Y-135655911D01*
X175143941Y-135655921D01*
X175152692Y-135728794D01*
X175152693Y-135728799D01*
X175153641Y-135736690D01*
X175156557Y-135744085D01*
X175156558Y-135744088D01*
X175203522Y-135863179D01*
X175206636Y-135871075D01*
X175293922Y-135986178D01*
X175409025Y-136073464D01*
X175543410Y-136126459D01*
X175627856Y-136136600D01*
X176156444Y-136136600D01*
X176160144Y-136136600D01*
X176244590Y-136126459D01*
X176378975Y-136073464D01*
X176494078Y-135986178D01*
X176581364Y-135871075D01*
X176634359Y-135736690D01*
X176644500Y-135652244D01*
X176644500Y-135069956D01*
X176634359Y-134985510D01*
X176581364Y-134851125D01*
X176494078Y-134736022D01*
X176487325Y-134730901D01*
X176487320Y-134730896D01*
X176382038Y-134651057D01*
X176344088Y-134603587D01*
X176333254Y-134543785D01*
X176352136Y-134486018D01*
X176392112Y-134448045D01*
X176391975Y-134447864D01*
X176391975Y-134447863D01*
X176507078Y-134360578D01*
X176594364Y-134245475D01*
X176647359Y-134111090D01*
X176657500Y-134026644D01*
X176657500Y-133444356D01*
X176647359Y-133359910D01*
X176594364Y-133225525D01*
X176507078Y-133110422D01*
X176500325Y-133105301D01*
X176500321Y-133105297D01*
X176429818Y-133051833D01*
X176393687Y-133008189D01*
X176380743Y-132953029D01*
X176393687Y-132897869D01*
X176429818Y-132854225D01*
X176513322Y-132790901D01*
X176520078Y-132785778D01*
X176607364Y-132670675D01*
X176660359Y-132536290D01*
X176670500Y-132451844D01*
X176670500Y-131869556D01*
X176660359Y-131785110D01*
X176607364Y-131650725D01*
X176602235Y-131643961D01*
X176552683Y-131578616D01*
X176528106Y-131516070D01*
X176539766Y-131449891D01*
X176565160Y-131397161D01*
X176605300Y-131221294D01*
X176605300Y-131040906D01*
X176613946Y-130995417D01*
X176626630Y-130963253D01*
X176647359Y-130910690D01*
X176657500Y-130826244D01*
X176657500Y-130243956D01*
X176647359Y-130159510D01*
X176594364Y-130025125D01*
X176507078Y-129910022D01*
X176391975Y-129822736D01*
X176384079Y-129819622D01*
X176264988Y-129772658D01*
X176264985Y-129772657D01*
X176257590Y-129769741D01*
X176249699Y-129768793D01*
X176249694Y-129768792D01*
X176176821Y-129760041D01*
X176176811Y-129760040D01*
X176173144Y-129759600D01*
X175640856Y-129759600D01*
X175637189Y-129760040D01*
X175637178Y-129760041D01*
X175564305Y-129768792D01*
X175564298Y-129768793D01*
X175556410Y-129769741D01*
X175549016Y-129772656D01*
X175549011Y-129772658D01*
X175429920Y-129819622D01*
X175429916Y-129819623D01*
X175422025Y-129822736D01*
X175415266Y-129827861D01*
X175415265Y-129827862D01*
X175313674Y-129904901D01*
X175313670Y-129904904D01*
X175306922Y-129910022D01*
X175301804Y-129916770D01*
X175301801Y-129916774D01*
X175228140Y-130013911D01*
X175219636Y-130025125D01*
X175216524Y-130033015D01*
X175216523Y-130033018D01*
X175190699Y-130098503D01*
X175155230Y-130147851D01*
X175100573Y-130174419D01*
X175039856Y-130171825D01*
X174987664Y-130140693D01*
X174916890Y-130069919D01*
X174908765Y-130061794D01*
X174873131Y-130046060D01*
X174814522Y-130020181D01*
X174814517Y-130020179D01*
X174805991Y-130016415D01*
X174796726Y-130015340D01*
X174784414Y-130013911D01*
X174784401Y-130013910D01*
X174780865Y-130013500D01*
X174777290Y-130013500D01*
X172694714Y-130013500D01*
X172694696Y-130013500D01*
X172691136Y-130013501D01*
X172687589Y-130013912D01*
X172687577Y-130013913D01*
X172675277Y-130015340D01*
X172675275Y-130015340D01*
X172666009Y-130016415D01*
X172657479Y-130020180D01*
X172657476Y-130020182D01*
X172573745Y-130057153D01*
X172573743Y-130057154D01*
X172563235Y-130061794D01*
X172555109Y-130069919D01*
X172545632Y-130076412D01*
X172544662Y-130074996D01*
X172520620Y-130091061D01*
X172473167Y-130100500D01*
X170145940Y-130100500D01*
X170098487Y-130091061D01*
X170058259Y-130064181D01*
X167714819Y-127720741D01*
X167687939Y-127680513D01*
X167678500Y-127633060D01*
X167678500Y-126146500D01*
X167695113Y-126084500D01*
X167740500Y-126039113D01*
X167802500Y-126022500D01*
X171237470Y-126022500D01*
X171240954Y-126022500D01*
X171375255Y-126007368D01*
X171545522Y-125947789D01*
X171698262Y-125851816D01*
X171701359Y-125848718D01*
X171736207Y-125829459D01*
X171777162Y-125822500D01*
X172422500Y-125822500D01*
X172484500Y-125839113D01*
X172529887Y-125884500D01*
X172546500Y-125946500D01*
X172546500Y-126397500D01*
X172529887Y-126459500D01*
X172484500Y-126504887D01*
X172422500Y-126521500D01*
X171402234Y-126521500D01*
X171399359Y-126521769D01*
X171399350Y-126521770D01*
X171379312Y-126523649D01*
X171379307Y-126523650D01*
X171371801Y-126524354D01*
X171364689Y-126526842D01*
X171364682Y-126526844D01*
X171252386Y-126566138D01*
X171252380Y-126566140D01*
X171243618Y-126569207D01*
X171236146Y-126574720D01*
X171236141Y-126574724D01*
X171141827Y-126644331D01*
X171141824Y-126644333D01*
X171134350Y-126649850D01*
X171128833Y-126657324D01*
X171128831Y-126657327D01*
X171059224Y-126751641D01*
X171059220Y-126751646D01*
X171053707Y-126759118D01*
X171050640Y-126767880D01*
X171050638Y-126767886D01*
X171011344Y-126880182D01*
X171011342Y-126880189D01*
X171008854Y-126887301D01*
X171008150Y-126894807D01*
X171008149Y-126894812D01*
X171006270Y-126914850D01*
X171006000Y-126917734D01*
X171006000Y-127326266D01*
X171006269Y-127329141D01*
X171006270Y-127329149D01*
X171008149Y-127349187D01*
X171008149Y-127349191D01*
X171008854Y-127356699D01*
X171011342Y-127363811D01*
X171011344Y-127363817D01*
X171050638Y-127476113D01*
X171050639Y-127476116D01*
X171053707Y-127484882D01*
X171059222Y-127492355D01*
X171059224Y-127492358D01*
X171082247Y-127523553D01*
X171134350Y-127594150D01*
X171157462Y-127611207D01*
X171204745Y-127646104D01*
X171243618Y-127674793D01*
X171371801Y-127719646D01*
X171402234Y-127722500D01*
X172532873Y-127722500D01*
X172535766Y-127722500D01*
X172566199Y-127719646D01*
X172655329Y-127688457D01*
X172696284Y-127681500D01*
X172911862Y-127681500D01*
X172923334Y-127682792D01*
X172923367Y-127682358D01*
X172932631Y-127683052D01*
X172941692Y-127685120D01*
X172985369Y-127681846D01*
X172994635Y-127681500D01*
X173001397Y-127681500D01*
X173006039Y-127681500D01*
X173017326Y-127679798D01*
X173026491Y-127678764D01*
X173070202Y-127675490D01*
X173078857Y-127672092D01*
X173085615Y-127670550D01*
X173092238Y-127668507D01*
X173101431Y-127667122D01*
X173109804Y-127663089D01*
X173109809Y-127663088D01*
X173140894Y-127648117D01*
X173149372Y-127644417D01*
X173190164Y-127628408D01*
X173197435Y-127622608D01*
X173203440Y-127619142D01*
X173209159Y-127615242D01*
X173217540Y-127611207D01*
X173239333Y-127590984D01*
X173294575Y-127561343D01*
X173357259Y-127562514D01*
X173407884Y-127592164D01*
X173409350Y-127594150D01*
X173432462Y-127611207D01*
X173479745Y-127646104D01*
X173518618Y-127674793D01*
X173646801Y-127719646D01*
X173677234Y-127722500D01*
X173705500Y-127722500D01*
X173767500Y-127739113D01*
X173812887Y-127784500D01*
X173829500Y-127846500D01*
X173829500Y-127948324D01*
X173819788Y-127996430D01*
X173792174Y-128037001D01*
X173760739Y-128057361D01*
X173761306Y-128058369D01*
X173753913Y-128062525D01*
X173746025Y-128065636D01*
X173739273Y-128070756D01*
X173739268Y-128070759D01*
X173637674Y-128147801D01*
X173637670Y-128147804D01*
X173630922Y-128152922D01*
X173625804Y-128159670D01*
X173625801Y-128159674D01*
X173566440Y-128237953D01*
X173543636Y-128268025D01*
X173540523Y-128275916D01*
X173540522Y-128275920D01*
X173493558Y-128395011D01*
X173493556Y-128395016D01*
X173490641Y-128402410D01*
X173489693Y-128410298D01*
X173489692Y-128410305D01*
X173480941Y-128483178D01*
X173480940Y-128483189D01*
X173480500Y-128486856D01*
X173480500Y-129069144D01*
X173480940Y-129072811D01*
X173480941Y-129072821D01*
X173489692Y-129145694D01*
X173489693Y-129145699D01*
X173490641Y-129153590D01*
X173543636Y-129287975D01*
X173630922Y-129403078D01*
X173746025Y-129490364D01*
X173880410Y-129543359D01*
X173964856Y-129553500D01*
X174493444Y-129553500D01*
X174497144Y-129553500D01*
X174581590Y-129543359D01*
X174715975Y-129490364D01*
X174831078Y-129403078D01*
X174918364Y-129287975D01*
X174971359Y-129153590D01*
X174981500Y-129069144D01*
X174981500Y-128486856D01*
X174971359Y-128402410D01*
X174918364Y-128268025D01*
X174831078Y-128152922D01*
X174733573Y-128078981D01*
X174697444Y-128035338D01*
X174684500Y-127980178D01*
X174684500Y-127846500D01*
X174701113Y-127784500D01*
X174746500Y-127739113D01*
X174805005Y-127723436D01*
X174804968Y-127722636D01*
X174807869Y-127722500D01*
X174810766Y-127722500D01*
X174841199Y-127719646D01*
X174969382Y-127674793D01*
X175078650Y-127594150D01*
X175159293Y-127484882D01*
X175204146Y-127356699D01*
X175207000Y-127326266D01*
X175207000Y-126917734D01*
X175204146Y-126887301D01*
X175159293Y-126759118D01*
X175078650Y-126649850D01*
X174998614Y-126590781D01*
X174976858Y-126574724D01*
X174976855Y-126574722D01*
X174969382Y-126569207D01*
X174960616Y-126566139D01*
X174960613Y-126566138D01*
X174848317Y-126526844D01*
X174848311Y-126526842D01*
X174841199Y-126524354D01*
X174833691Y-126523649D01*
X174833687Y-126523649D01*
X174813649Y-126521770D01*
X174813641Y-126521769D01*
X174810766Y-126521500D01*
X173677234Y-126521500D01*
X173674359Y-126521769D01*
X173674350Y-126521770D01*
X173654312Y-126523649D01*
X173654307Y-126523650D01*
X173646801Y-126524354D01*
X173639690Y-126526842D01*
X173639677Y-126526845D01*
X173566455Y-126552468D01*
X173508166Y-126558210D01*
X173453745Y-126536557D01*
X173415333Y-126492341D01*
X173401500Y-126435427D01*
X173401500Y-125908573D01*
X173415333Y-125851659D01*
X173453745Y-125807443D01*
X173508166Y-125785790D01*
X173566455Y-125791532D01*
X173639677Y-125817154D01*
X173639682Y-125817155D01*
X173646801Y-125819646D01*
X173677234Y-125822500D01*
X174807873Y-125822500D01*
X174810766Y-125822500D01*
X174841199Y-125819646D01*
X174956051Y-125779457D01*
X174997004Y-125772500D01*
X175564614Y-125772500D01*
X175612067Y-125781939D01*
X175649113Y-125806693D01*
X175650922Y-125809078D01*
X175766025Y-125896364D01*
X175900410Y-125949359D01*
X175984856Y-125959500D01*
X176563444Y-125959500D01*
X176567144Y-125959500D01*
X176651590Y-125949359D01*
X176785975Y-125896364D01*
X176901078Y-125809078D01*
X176902886Y-125806693D01*
X176939933Y-125781939D01*
X176987386Y-125772500D01*
X177216335Y-125772500D01*
X177596614Y-125772500D01*
X177644067Y-125781939D01*
X177681113Y-125806693D01*
X177682922Y-125809078D01*
X177798025Y-125896364D01*
X177932410Y-125949359D01*
X178016856Y-125959500D01*
X178595444Y-125959500D01*
X178599144Y-125959500D01*
X178683590Y-125949359D01*
X178817975Y-125896364D01*
X178933078Y-125809078D01*
X178934886Y-125806693D01*
X178971933Y-125781939D01*
X179019386Y-125772500D01*
X179211845Y-125772500D01*
X179269470Y-125786702D01*
X179348171Y-125828008D01*
X179499877Y-125865400D01*
X179648623Y-125865400D01*
X179656123Y-125865400D01*
X179807829Y-125828008D01*
X179946178Y-125755397D01*
X180063129Y-125651787D01*
X180151887Y-125523199D01*
X180207293Y-125377107D01*
X180226126Y-125222000D01*
X180207293Y-125066893D01*
X180151887Y-124920801D01*
X180063129Y-124792213D01*
X179992314Y-124729476D01*
X179951793Y-124693577D01*
X179951790Y-124693575D01*
X179946178Y-124688603D01*
X179909222Y-124669207D01*
X179814468Y-124619476D01*
X179814465Y-124619474D01*
X179807829Y-124615992D01*
X179758364Y-124603800D01*
X179663404Y-124580394D01*
X179663399Y-124580393D01*
X179656123Y-124578600D01*
X179499877Y-124578600D01*
X179492601Y-124580393D01*
X179492595Y-124580394D01*
X179355453Y-124614197D01*
X179355451Y-124614197D01*
X179348171Y-124615992D01*
X179341537Y-124619473D01*
X179341531Y-124619476D01*
X179269471Y-124657297D01*
X179211845Y-124671500D01*
X179042122Y-124671500D01*
X178986964Y-124658556D01*
X178943320Y-124622428D01*
X178938439Y-124615992D01*
X178933078Y-124608922D01*
X178817975Y-124521636D01*
X178810079Y-124518522D01*
X178690988Y-124471558D01*
X178690985Y-124471557D01*
X178683590Y-124468641D01*
X178675699Y-124467693D01*
X178675694Y-124467692D01*
X178602821Y-124458941D01*
X178602811Y-124458940D01*
X178599144Y-124458500D01*
X178016856Y-124458500D01*
X178013189Y-124458940D01*
X178013178Y-124458941D01*
X177940305Y-124467692D01*
X177940298Y-124467693D01*
X177932410Y-124468641D01*
X177925016Y-124471556D01*
X177925011Y-124471558D01*
X177805920Y-124518522D01*
X177805916Y-124518523D01*
X177798025Y-124521636D01*
X177791266Y-124526761D01*
X177791265Y-124526762D01*
X177709880Y-124588479D01*
X177682922Y-124608922D01*
X177677800Y-124615675D01*
X177677799Y-124615677D01*
X177672680Y-124622428D01*
X177629036Y-124658556D01*
X177573878Y-124671500D01*
X177010122Y-124671500D01*
X176954964Y-124658556D01*
X176911320Y-124622428D01*
X176906439Y-124615992D01*
X176901078Y-124608922D01*
X176785975Y-124521636D01*
X176778079Y-124518522D01*
X176658988Y-124471558D01*
X176658985Y-124471557D01*
X176651590Y-124468641D01*
X176643699Y-124467693D01*
X176643694Y-124467692D01*
X176570821Y-124458941D01*
X176570811Y-124458940D01*
X176567144Y-124458500D01*
X175984856Y-124458500D01*
X175981189Y-124458940D01*
X175981178Y-124458941D01*
X175908305Y-124467692D01*
X175908298Y-124467693D01*
X175900410Y-124468641D01*
X175893016Y-124471556D01*
X175893011Y-124471558D01*
X175773920Y-124518522D01*
X175773916Y-124518523D01*
X175766025Y-124521636D01*
X175759266Y-124526761D01*
X175759265Y-124526762D01*
X175677880Y-124588479D01*
X175650922Y-124608922D01*
X175645800Y-124615675D01*
X175645799Y-124615677D01*
X175640680Y-124622428D01*
X175597036Y-124658556D01*
X175541878Y-124671500D01*
X174997004Y-124671500D01*
X174956051Y-124664542D01*
X174841199Y-124624354D01*
X174833691Y-124623649D01*
X174833687Y-124623649D01*
X174813649Y-124621770D01*
X174813641Y-124621769D01*
X174810766Y-124621500D01*
X173677234Y-124621500D01*
X173674359Y-124621769D01*
X173674350Y-124621770D01*
X173654312Y-124623649D01*
X173654307Y-124623650D01*
X173646801Y-124624354D01*
X173639689Y-124626842D01*
X173639682Y-124626844D01*
X173527386Y-124666138D01*
X173527380Y-124666140D01*
X173518618Y-124669207D01*
X173511146Y-124674720D01*
X173511141Y-124674724D01*
X173416827Y-124744331D01*
X173416824Y-124744333D01*
X173409350Y-124749850D01*
X173403833Y-124757324D01*
X173403833Y-124757325D01*
X173356768Y-124821096D01*
X173307997Y-124860489D01*
X173246190Y-124870990D01*
X173187146Y-124849915D01*
X173161581Y-124832485D01*
X173152704Y-124829746D01*
X173146463Y-124826741D01*
X173139996Y-124824203D01*
X173131948Y-124819556D01*
X173110275Y-124814609D01*
X173089236Y-124809807D01*
X173080289Y-124807409D01*
X173038435Y-124794500D01*
X173029145Y-124794500D01*
X173022278Y-124793465D01*
X173015364Y-124792946D01*
X173006308Y-124790880D01*
X172997043Y-124791574D01*
X172997041Y-124791574D01*
X172962631Y-124794153D01*
X172953365Y-124794500D01*
X172897703Y-124794500D01*
X172850250Y-124785061D01*
X172810022Y-124758181D01*
X172809168Y-124757327D01*
X172803650Y-124749850D01*
X172787606Y-124738009D01*
X172701858Y-124674724D01*
X172701855Y-124674722D01*
X172694382Y-124669207D01*
X172685616Y-124666139D01*
X172685613Y-124666138D01*
X172573317Y-124626844D01*
X172573311Y-124626842D01*
X172566199Y-124624354D01*
X172558691Y-124623649D01*
X172558687Y-124623649D01*
X172538649Y-124621770D01*
X172538641Y-124621769D01*
X172535766Y-124621500D01*
X172532873Y-124621500D01*
X171777162Y-124621500D01*
X171736207Y-124614541D01*
X171701359Y-124595281D01*
X171698262Y-124592184D01*
X171679498Y-124580394D01*
X171574121Y-124514181D01*
X171545522Y-124496211D01*
X171538959Y-124493914D01*
X171538956Y-124493913D01*
X171381825Y-124438931D01*
X171375255Y-124436632D01*
X171368333Y-124435852D01*
X171244418Y-124421890D01*
X171244412Y-124421889D01*
X171240954Y-124421500D01*
X171237470Y-124421500D01*
X168817122Y-124421500D01*
X168789530Y-124418391D01*
X168752981Y-124410049D01*
X168752980Y-124410048D01*
X168746194Y-124408500D01*
X168565806Y-124408500D01*
X168559020Y-124410048D01*
X168559018Y-124410049D01*
X168522470Y-124418391D01*
X168494878Y-124421500D01*
X167802500Y-124421500D01*
X167740500Y-124404887D01*
X167695113Y-124359500D01*
X167678500Y-124297500D01*
X167678500Y-121555523D01*
X167692015Y-121499228D01*
X167729615Y-121455205D01*
X167783102Y-121433050D01*
X167840818Y-121437592D01*
X167890181Y-121467842D01*
X167965544Y-121543205D01*
X167976805Y-121552109D01*
X168113733Y-121636567D01*
X168126732Y-121642629D01*
X168279874Y-121693375D01*
X168293041Y-121696194D01*
X168385890Y-121705680D01*
X168392168Y-121706000D01*
X168997674Y-121706000D01*
X169010549Y-121702549D01*
X169014000Y-121689674D01*
X169014000Y-121689673D01*
X169314000Y-121689673D01*
X169317450Y-121702548D01*
X169330326Y-121705999D01*
X169935829Y-121705999D01*
X169942111Y-121705678D01*
X170034959Y-121696194D01*
X170048122Y-121693376D01*
X170201267Y-121642629D01*
X170214266Y-121636567D01*
X170351194Y-121552109D01*
X170362455Y-121543205D01*
X170476205Y-121429455D01*
X170485109Y-121418194D01*
X170569567Y-121281266D01*
X170575629Y-121268267D01*
X170626375Y-121115125D01*
X170629194Y-121101958D01*
X170638680Y-121009109D01*
X170639000Y-121002832D01*
X170639000Y-120522326D01*
X170635549Y-120509450D01*
X170622674Y-120506000D01*
X169330326Y-120506000D01*
X169317450Y-120509450D01*
X169314000Y-120522326D01*
X169314000Y-121689673D01*
X169014000Y-121689673D01*
X169014000Y-120330000D01*
X169030613Y-120268000D01*
X169076000Y-120222613D01*
X169138000Y-120206000D01*
X170622673Y-120206000D01*
X170635548Y-120202549D01*
X170638999Y-120189674D01*
X170638999Y-119709171D01*
X170638678Y-119702888D01*
X170629194Y-119610040D01*
X170626376Y-119596877D01*
X170575629Y-119443732D01*
X170569567Y-119430733D01*
X170485109Y-119293805D01*
X170476205Y-119282544D01*
X170362455Y-119168794D01*
X170351194Y-119159890D01*
X170214266Y-119075432D01*
X170201267Y-119069370D01*
X170048125Y-119018624D01*
X170034958Y-119015805D01*
X170020722Y-119014351D01*
X169965328Y-118994686D01*
X169925215Y-118951719D01*
X169909395Y-118895107D01*
X169921425Y-118837571D01*
X169958597Y-118792041D01*
X170067407Y-118709872D01*
X170211052Y-118552302D01*
X170323298Y-118371019D01*
X170336977Y-118335707D01*
X170363583Y-118294180D01*
X170404271Y-118266308D01*
X170452605Y-118256500D01*
X174055500Y-118256500D01*
X174117500Y-118273113D01*
X174162887Y-118318500D01*
X174179500Y-118380500D01*
X174179500Y-118683560D01*
X174179500Y-118683578D01*
X174179501Y-118686872D01*
X174179853Y-118690150D01*
X174179854Y-118690161D01*
X174185079Y-118738768D01*
X174185080Y-118738773D01*
X174185909Y-118746483D01*
X174188619Y-118753749D01*
X174188620Y-118753753D01*
X174198500Y-118780241D01*
X174236204Y-118881331D01*
X174241518Y-118888430D01*
X174241519Y-118888431D01*
X174313992Y-118985243D01*
X174322454Y-118996546D01*
X174437669Y-119082796D01*
X174572517Y-119133091D01*
X174632127Y-119139500D01*
X175127872Y-119139499D01*
X175187483Y-119133091D01*
X175322331Y-119082796D01*
X175437546Y-118996546D01*
X175523796Y-118881331D01*
X175574091Y-118746483D01*
X175580500Y-118686873D01*
X175580499Y-118041128D01*
X175574091Y-117981517D01*
X175552222Y-117922885D01*
X175546536Y-117856665D01*
X175575861Y-117797020D01*
X175631775Y-117761087D01*
X175698212Y-117759189D01*
X175756086Y-117791872D01*
X175809393Y-117845179D01*
X175842877Y-117906494D01*
X175838606Y-117966274D01*
X175840404Y-117966699D01*
X175838619Y-117974249D01*
X175835909Y-117981517D01*
X175835079Y-117989227D01*
X175835079Y-117989232D01*
X175829855Y-118037819D01*
X175829854Y-118037831D01*
X175829500Y-118041127D01*
X175829500Y-118044448D01*
X175829500Y-118044449D01*
X175829500Y-118683560D01*
X175829500Y-118683578D01*
X175829501Y-118686872D01*
X175829853Y-118690150D01*
X175829854Y-118690161D01*
X175835079Y-118738768D01*
X175835080Y-118738773D01*
X175835909Y-118746483D01*
X175838619Y-118753748D01*
X175838620Y-118753753D01*
X175840682Y-118759280D01*
X175848500Y-118802613D01*
X175848500Y-119703387D01*
X175840682Y-119746720D01*
X175838620Y-119752247D01*
X175838619Y-119752251D01*
X175835909Y-119759517D01*
X175835079Y-119767227D01*
X175835079Y-119767232D01*
X175829855Y-119815819D01*
X175829854Y-119815831D01*
X175829500Y-119819127D01*
X175829500Y-119822448D01*
X175829500Y-119822449D01*
X175829500Y-120461560D01*
X175829500Y-120461578D01*
X175829501Y-120464872D01*
X175829853Y-120468150D01*
X175829854Y-120468161D01*
X175835079Y-120516768D01*
X175835080Y-120516773D01*
X175835909Y-120524483D01*
X175838619Y-120531749D01*
X175838620Y-120531753D01*
X175872217Y-120621831D01*
X175886204Y-120659331D01*
X175972454Y-120774546D01*
X176087669Y-120860796D01*
X176222517Y-120911091D01*
X176282127Y-120917500D01*
X176777872Y-120917499D01*
X176837483Y-120911091D01*
X176972331Y-120860796D01*
X177087546Y-120774546D01*
X177173796Y-120659331D01*
X177224091Y-120524483D01*
X177230500Y-120464873D01*
X177230499Y-119819128D01*
X177224091Y-119759517D01*
X177219318Y-119746720D01*
X177211500Y-119703387D01*
X177211500Y-118802613D01*
X177219318Y-118759280D01*
X177221379Y-118753753D01*
X177224091Y-118746483D01*
X177230500Y-118686873D01*
X177230499Y-118041128D01*
X177224091Y-117981517D01*
X177219318Y-117968720D01*
X177211500Y-117925387D01*
X177211500Y-117626332D01*
X177211726Y-117618845D01*
X177214799Y-117568037D01*
X177215252Y-117560550D01*
X177204718Y-117503071D01*
X177203596Y-117495691D01*
X177203476Y-117494704D01*
X177196556Y-117437709D01*
X177193167Y-117428774D01*
X177187143Y-117407162D01*
X177185421Y-117397763D01*
X177161441Y-117344484D01*
X177158588Y-117337596D01*
X177137870Y-117282965D01*
X177132439Y-117275097D01*
X177121414Y-117255549D01*
X177117497Y-117246845D01*
X177081479Y-117200871D01*
X177077040Y-117194838D01*
X177048115Y-117152933D01*
X177048114Y-117152932D01*
X177043856Y-117146763D01*
X177000138Y-117108032D01*
X176994684Y-117102898D01*
X175977819Y-116086032D01*
X175950939Y-116045804D01*
X175941500Y-115998351D01*
X175941500Y-115141649D01*
X175950939Y-115094196D01*
X175977819Y-115053968D01*
X176127227Y-114904560D01*
X176406040Y-114625747D01*
X176482498Y-114528155D01*
X176550421Y-114377237D01*
X176580253Y-114214450D01*
X176570260Y-114049253D01*
X176550441Y-113985654D01*
X176548080Y-113920547D01*
X176579053Y-113863228D01*
X176634808Y-113829523D01*
X176699955Y-113828736D01*
X176756508Y-113861084D01*
X177844181Y-114948757D01*
X177871061Y-114988985D01*
X177880500Y-115036438D01*
X177880500Y-121019028D01*
X177879720Y-121032913D01*
X177877013Y-121056932D01*
X177877013Y-121056935D01*
X177875973Y-121066166D01*
X177877699Y-121075292D01*
X177877700Y-121075296D01*
X177886033Y-121119335D01*
X177886810Y-121123906D01*
X177887439Y-121128082D01*
X177894878Y-121177431D01*
X177898416Y-121184778D01*
X177899932Y-121192789D01*
X177904270Y-121200998D01*
X177904273Y-121201005D01*
X177925223Y-121240644D01*
X177927312Y-121244782D01*
X177950793Y-121293540D01*
X177956339Y-121299517D01*
X177960149Y-121306726D01*
X177966718Y-121313295D01*
X177998413Y-121344990D01*
X178001630Y-121348329D01*
X178023427Y-121371821D01*
X178038447Y-121388008D01*
X178044210Y-121391335D01*
X178049361Y-121395938D01*
X181629181Y-124975757D01*
X181656061Y-125015985D01*
X181665500Y-125063438D01*
X181665500Y-125849285D01*
X181665500Y-125849302D01*
X181665501Y-125852864D01*
X181665912Y-125856411D01*
X181665913Y-125856422D01*
X181666955Y-125865400D01*
X181668415Y-125877991D01*
X181672181Y-125886521D01*
X181672182Y-125886523D01*
X181698665Y-125946500D01*
X181713794Y-125980765D01*
X181793235Y-126060206D01*
X181848256Y-126084500D01*
X181887477Y-126101818D01*
X181887478Y-126101818D01*
X181896009Y-126105585D01*
X181921135Y-126108500D01*
X183210864Y-126108499D01*
X183235991Y-126105585D01*
X183338765Y-126060206D01*
X183418206Y-125980765D01*
X183463585Y-125877991D01*
X183466500Y-125852865D01*
X183466499Y-124763136D01*
X183463585Y-124738009D01*
X183418206Y-124635235D01*
X183338765Y-124555794D01*
X183323833Y-124549201D01*
X183244522Y-124514181D01*
X183244517Y-124514179D01*
X183235991Y-124510415D01*
X183226726Y-124509340D01*
X183214414Y-124507911D01*
X183214401Y-124507910D01*
X183210865Y-124507500D01*
X183207290Y-124507500D01*
X182421438Y-124507500D01*
X182373985Y-124498061D01*
X182333757Y-124471181D01*
X180316129Y-122453553D01*
X180285995Y-122404546D01*
X180281222Y-122347214D01*
X180302836Y-122293898D01*
X180346184Y-122256076D01*
X180454178Y-122199397D01*
X180571129Y-122095787D01*
X180659887Y-121967199D01*
X180715293Y-121821107D01*
X180734126Y-121666000D01*
X180715293Y-121510893D01*
X180659887Y-121364801D01*
X180655623Y-121358623D01*
X180652140Y-121351987D01*
X180653003Y-121351533D01*
X180642114Y-121329167D01*
X180636500Y-121292279D01*
X180636500Y-117333433D01*
X180645939Y-117285980D01*
X180672819Y-117245752D01*
X181066519Y-116852052D01*
X181115882Y-116821802D01*
X181173598Y-116817260D01*
X181227085Y-116839415D01*
X181264685Y-116883438D01*
X181278200Y-116939733D01*
X181278200Y-122372600D01*
X199560200Y-122448800D01*
X199560200Y-116291600D01*
X199543919Y-116291532D01*
X183303526Y-116223841D01*
X183247380Y-116210138D01*
X183203543Y-116172476D01*
X183181537Y-116119036D01*
X183186144Y-116061426D01*
X183216360Y-116012163D01*
X184706024Y-114522499D01*
X184756193Y-114491992D01*
X184814775Y-114487986D01*
X184868627Y-114511379D01*
X184893658Y-114530361D01*
X184901551Y-114533473D01*
X184901552Y-114533474D01*
X184910349Y-114536943D01*
X184929281Y-114546345D01*
X184944618Y-114555672D01*
X184969638Y-114562682D01*
X184984178Y-114566756D01*
X184996215Y-114570803D01*
X185034435Y-114585876D01*
X185052279Y-114587710D01*
X185073051Y-114591657D01*
X185090335Y-114596500D01*
X185131417Y-114596500D01*
X185144097Y-114597149D01*
X185184971Y-114601352D01*
X185202654Y-114598303D01*
X185223724Y-114596500D01*
X195975845Y-114596500D01*
X196033470Y-114610702D01*
X196112171Y-114652008D01*
X196263877Y-114689400D01*
X196412623Y-114689400D01*
X196420123Y-114689400D01*
X196571829Y-114652008D01*
X196710178Y-114579397D01*
X196827129Y-114475787D01*
X196915887Y-114347199D01*
X196971293Y-114201107D01*
X196990126Y-114046000D01*
X196971293Y-113890893D01*
X196915887Y-113744801D01*
X196827129Y-113616213D01*
X196748977Y-113546976D01*
X196715793Y-113517577D01*
X196715790Y-113517575D01*
X196710178Y-113512603D01*
X196665395Y-113489099D01*
X196578468Y-113443476D01*
X196578465Y-113443474D01*
X196571829Y-113439992D01*
X196544236Y-113433191D01*
X196427404Y-113404394D01*
X196427399Y-113404393D01*
X196420123Y-113402600D01*
X196263877Y-113402600D01*
X196256601Y-113404393D01*
X196256595Y-113404394D01*
X196119453Y-113438197D01*
X196119451Y-113438197D01*
X196112171Y-113439992D01*
X196105537Y-113443473D01*
X196105531Y-113443476D01*
X196033471Y-113481297D01*
X195975845Y-113495500D01*
X185445386Y-113495500D01*
X185397933Y-113486061D01*
X185357707Y-113459183D01*
X185244816Y-113346291D01*
X185217939Y-113306065D01*
X185208500Y-113258613D01*
X185208500Y-109740645D01*
X189941492Y-109740645D01*
X189949368Y-109748521D01*
X190032304Y-109800633D01*
X190044765Y-109806634D01*
X190201782Y-109861576D01*
X190215280Y-109864657D01*
X190380577Y-109883282D01*
X190394423Y-109883282D01*
X190559719Y-109864657D01*
X190573217Y-109861576D01*
X190730234Y-109806634D01*
X190742694Y-109800633D01*
X190825629Y-109748522D01*
X190833506Y-109740645D01*
X191466492Y-109740645D01*
X191474368Y-109748521D01*
X191557304Y-109800633D01*
X191569765Y-109806634D01*
X191726782Y-109861576D01*
X191740280Y-109864657D01*
X191905577Y-109883282D01*
X191919423Y-109883282D01*
X192084719Y-109864657D01*
X192098217Y-109861576D01*
X192255234Y-109806634D01*
X192267694Y-109800633D01*
X192350629Y-109748522D01*
X192358506Y-109740645D01*
X192352577Y-109731209D01*
X191924042Y-109302674D01*
X191912500Y-109296010D01*
X191900956Y-109302675D01*
X191472421Y-109731209D01*
X191466492Y-109740645D01*
X190833506Y-109740645D01*
X190827577Y-109731209D01*
X190399042Y-109302674D01*
X190387500Y-109296010D01*
X190375956Y-109302675D01*
X189947421Y-109731209D01*
X189941492Y-109740645D01*
X185208500Y-109740645D01*
X185208500Y-109339721D01*
X185214114Y-109302833D01*
X185225003Y-109280466D01*
X185224140Y-109280013D01*
X185227622Y-109273377D01*
X185231887Y-109267199D01*
X185287293Y-109121107D01*
X185304651Y-108978145D01*
X189178992Y-108978145D01*
X189186868Y-108986021D01*
X189269804Y-109038133D01*
X189282265Y-109044134D01*
X189439284Y-109099077D01*
X189452771Y-109102155D01*
X189488481Y-109106178D01*
X189540569Y-109124404D01*
X189579591Y-109163425D01*
X189597819Y-109215513D01*
X189601843Y-109251219D01*
X189604923Y-109264717D01*
X189659865Y-109421734D01*
X189665867Y-109434197D01*
X189717975Y-109517128D01*
X189725854Y-109525006D01*
X189735288Y-109519078D01*
X190163825Y-109090542D01*
X190170488Y-109079000D01*
X190604510Y-109079000D01*
X190611174Y-109090542D01*
X191039709Y-109519077D01*
X191049144Y-109525005D01*
X191062316Y-109511834D01*
X191117904Y-109479740D01*
X191182092Y-109479739D01*
X191237680Y-109511833D01*
X191250853Y-109525006D01*
X191260288Y-109519078D01*
X191688825Y-109090542D01*
X191695488Y-109079000D01*
X192129510Y-109079000D01*
X192136174Y-109090542D01*
X192564709Y-109519077D01*
X192574145Y-109525006D01*
X192582022Y-109517129D01*
X192634133Y-109434194D01*
X192640134Y-109421734D01*
X192695077Y-109264715D01*
X192698155Y-109251227D01*
X192702178Y-109215518D01*
X192720405Y-109163428D01*
X192759428Y-109124405D01*
X192811518Y-109106178D01*
X192847227Y-109102155D01*
X192860715Y-109099077D01*
X193017734Y-109044134D01*
X193030194Y-109038133D01*
X193113129Y-108986022D01*
X193121006Y-108978145D01*
X193115077Y-108968709D01*
X192686542Y-108540174D01*
X192675000Y-108533510D01*
X192663457Y-108540174D01*
X192136174Y-109067457D01*
X192129510Y-109079000D01*
X191695488Y-109079000D01*
X191695489Y-109078999D01*
X191688825Y-109067457D01*
X191161542Y-108540174D01*
X191150000Y-108533510D01*
X191138457Y-108540174D01*
X190611174Y-109067457D01*
X190604510Y-109079000D01*
X190170488Y-109079000D01*
X190170489Y-109078999D01*
X190163825Y-109067457D01*
X189636542Y-108540174D01*
X189625000Y-108533510D01*
X189613456Y-108540175D01*
X189184921Y-108968709D01*
X189178992Y-108978145D01*
X185304651Y-108978145D01*
X185306126Y-108966000D01*
X185287293Y-108810893D01*
X185231887Y-108664801D01*
X185143129Y-108536213D01*
X185036152Y-108441439D01*
X185031793Y-108437577D01*
X185031790Y-108437575D01*
X185026178Y-108432603D01*
X185015556Y-108427028D01*
X184894468Y-108363476D01*
X184894465Y-108363474D01*
X184887829Y-108359992D01*
X184862568Y-108353765D01*
X184743404Y-108324394D01*
X184743399Y-108324393D01*
X184739463Y-108323423D01*
X188820718Y-108323423D01*
X188839342Y-108488719D01*
X188842423Y-108502217D01*
X188897365Y-108659234D01*
X188903367Y-108671697D01*
X188955475Y-108754628D01*
X188963354Y-108762506D01*
X188972788Y-108756578D01*
X189401325Y-108328042D01*
X189407989Y-108316500D01*
X189842010Y-108316500D01*
X189848674Y-108328042D01*
X190375957Y-108855325D01*
X190387500Y-108861989D01*
X190399042Y-108855325D01*
X190926325Y-108328042D01*
X190932989Y-108316500D01*
X191367010Y-108316500D01*
X191373674Y-108328042D01*
X191900957Y-108855325D01*
X191912500Y-108861989D01*
X191924042Y-108855325D01*
X192451325Y-108328042D01*
X192457989Y-108316500D01*
X192892010Y-108316500D01*
X192898674Y-108328042D01*
X193327209Y-108756577D01*
X193336645Y-108762506D01*
X193344522Y-108754629D01*
X193396633Y-108671694D01*
X193402634Y-108659234D01*
X193457576Y-108502217D01*
X193460657Y-108488719D01*
X193479282Y-108323423D01*
X193479282Y-108309577D01*
X193460657Y-108144280D01*
X193457576Y-108130782D01*
X193402634Y-107973765D01*
X193396633Y-107961304D01*
X193344521Y-107878368D01*
X193336645Y-107870492D01*
X193327209Y-107876421D01*
X192898675Y-108304956D01*
X192892010Y-108316500D01*
X192457989Y-108316500D01*
X192451325Y-108304957D01*
X191924042Y-107777674D01*
X191912500Y-107771010D01*
X191900957Y-107777674D01*
X191373674Y-108304957D01*
X191367010Y-108316500D01*
X190932989Y-108316500D01*
X190926325Y-108304957D01*
X190399042Y-107777674D01*
X190387500Y-107771010D01*
X190375957Y-107777674D01*
X189848674Y-108304957D01*
X189842010Y-108316500D01*
X189407989Y-108316500D01*
X189401325Y-108304957D01*
X188972788Y-107876420D01*
X188963354Y-107870492D01*
X188955476Y-107878370D01*
X188903367Y-107961302D01*
X188897365Y-107973765D01*
X188842423Y-108130782D01*
X188839342Y-108144280D01*
X188820718Y-108309577D01*
X188820718Y-108323423D01*
X184739463Y-108323423D01*
X184736123Y-108322600D01*
X184579877Y-108322600D01*
X184572601Y-108324393D01*
X184572595Y-108324394D01*
X184435453Y-108358197D01*
X184435451Y-108358197D01*
X184428171Y-108359992D01*
X184421537Y-108363473D01*
X184421531Y-108363476D01*
X184296461Y-108429118D01*
X184296457Y-108429120D01*
X184289822Y-108432603D01*
X184284212Y-108437572D01*
X184284206Y-108437577D01*
X184178484Y-108531240D01*
X184172871Y-108536213D01*
X184168616Y-108542377D01*
X184168611Y-108542383D01*
X184088376Y-108658624D01*
X184088373Y-108658628D01*
X184084113Y-108664801D01*
X184081453Y-108671812D01*
X184081451Y-108671818D01*
X184034352Y-108796008D01*
X184028707Y-108810893D01*
X184027803Y-108818333D01*
X184027802Y-108818340D01*
X184011451Y-108953010D01*
X184009874Y-108966000D01*
X184010778Y-108973445D01*
X184027802Y-109113659D01*
X184027803Y-109113664D01*
X184028707Y-109121107D01*
X184031366Y-109128120D01*
X184031367Y-109128121D01*
X184078055Y-109251227D01*
X184084113Y-109267199D01*
X184088376Y-109273375D01*
X184091860Y-109280013D01*
X184090996Y-109280466D01*
X184101886Y-109302833D01*
X184107500Y-109339721D01*
X184107500Y-113512612D01*
X184098061Y-113560065D01*
X184071181Y-113600293D01*
X182292894Y-115378581D01*
X182252666Y-115405461D01*
X182205213Y-115414900D01*
X181186168Y-115414900D01*
X181181935Y-115414828D01*
X181126294Y-115412927D01*
X181126290Y-115412927D01*
X181117820Y-115412638D01*
X181109586Y-115414644D01*
X181109580Y-115414645D01*
X181077902Y-115422365D01*
X181065431Y-115424735D01*
X181033125Y-115429175D01*
X181033121Y-115429176D01*
X181024726Y-115430330D01*
X181016954Y-115433705D01*
X181016946Y-115433708D01*
X181008255Y-115437483D01*
X180988227Y-115444217D01*
X180979037Y-115446456D01*
X180979022Y-115446461D01*
X180970794Y-115448467D01*
X180963409Y-115452618D01*
X180963404Y-115452621D01*
X180934978Y-115468604D01*
X180923614Y-115474248D01*
X180893707Y-115487239D01*
X180893701Y-115487242D01*
X180885926Y-115490620D01*
X180879351Y-115495968D01*
X180879344Y-115495973D01*
X180872001Y-115501947D01*
X180854535Y-115513834D01*
X180846283Y-115518474D01*
X180846276Y-115518478D01*
X180838887Y-115522634D01*
X180832892Y-115528628D01*
X180832885Y-115528634D01*
X180809824Y-115551694D01*
X180800404Y-115560196D01*
X180780529Y-115576366D01*
X180768538Y-115586122D01*
X180763649Y-115593047D01*
X180763644Y-115593053D01*
X180758186Y-115600785D01*
X180744568Y-115616951D01*
X179704894Y-116656625D01*
X179701852Y-116659566D01*
X179661153Y-116697577D01*
X179661148Y-116697582D01*
X179654956Y-116703366D01*
X179650551Y-116710608D01*
X179650547Y-116710614D01*
X179633604Y-116738474D01*
X179626467Y-116748961D01*
X179611139Y-116769175D01*
X179601639Y-116781704D01*
X179598528Y-116789591D01*
X179598528Y-116789592D01*
X179595054Y-116798401D01*
X179585654Y-116817325D01*
X179580737Y-116825410D01*
X179580732Y-116825421D01*
X179576328Y-116832664D01*
X179574041Y-116840824D01*
X179574039Y-116840830D01*
X179565242Y-116872227D01*
X179561197Y-116884253D01*
X179549236Y-116914586D01*
X179549233Y-116914596D01*
X179546124Y-116922482D01*
X179545256Y-116930918D01*
X179545256Y-116930920D01*
X179544288Y-116940333D01*
X179540343Y-116961090D01*
X179537787Y-116970213D01*
X179537785Y-116970221D01*
X179535500Y-116978381D01*
X179535500Y-116986858D01*
X179535500Y-117019464D01*
X179534850Y-117032145D01*
X179531515Y-117064579D01*
X179531515Y-117064583D01*
X179530648Y-117073018D01*
X179532088Y-117081375D01*
X179532089Y-117081378D01*
X179533697Y-117090702D01*
X179535500Y-117111771D01*
X179535500Y-121292279D01*
X179529886Y-121329167D01*
X179518996Y-121351533D01*
X179519860Y-121351987D01*
X179516376Y-121358624D01*
X179512113Y-121364801D01*
X179509452Y-121371816D01*
X179509450Y-121371821D01*
X179501827Y-121391921D01*
X179466701Y-121441996D01*
X179411910Y-121469186D01*
X179350787Y-121466877D01*
X179298205Y-121435629D01*
X178771819Y-120909243D01*
X178744939Y-120869015D01*
X178735500Y-120821562D01*
X178735500Y-114838973D01*
X178736280Y-114825090D01*
X178740027Y-114791834D01*
X178729958Y-114738624D01*
X178729183Y-114734057D01*
X178725422Y-114709103D01*
X178721122Y-114680569D01*
X178717585Y-114673224D01*
X178716069Y-114665211D01*
X178690756Y-114617318D01*
X178688682Y-114613207D01*
X178680949Y-114597150D01*
X178665207Y-114564460D01*
X178659659Y-114558481D01*
X178655851Y-114551275D01*
X178617597Y-114513021D01*
X178614381Y-114509683D01*
X178606967Y-114501693D01*
X178577553Y-114469992D01*
X178571785Y-114466662D01*
X178566633Y-114462057D01*
X173806188Y-109701612D01*
X173796932Y-109691255D01*
X173776058Y-109665080D01*
X173768381Y-109659846D01*
X173768376Y-109659841D01*
X173731339Y-109634589D01*
X173727559Y-109631908D01*
X173691484Y-109605284D01*
X173691483Y-109605283D01*
X173684014Y-109599771D01*
X173676317Y-109597077D01*
X173669581Y-109592485D01*
X173660710Y-109589748D01*
X173660707Y-109589747D01*
X173630816Y-109580527D01*
X173617849Y-109576527D01*
X173613461Y-109575083D01*
X173571144Y-109560276D01*
X173571142Y-109560275D01*
X173562375Y-109557208D01*
X173554225Y-109556903D01*
X173546435Y-109554500D01*
X173537144Y-109554500D01*
X173492320Y-109554500D01*
X173487683Y-109554413D01*
X173442882Y-109552736D01*
X173442878Y-109552736D01*
X173433595Y-109552389D01*
X173427161Y-109554112D01*
X173420270Y-109554500D01*
X170367920Y-109554500D01*
X170305095Y-109537407D01*
X170259591Y-109490839D01*
X170243953Y-109427636D01*
X170262493Y-109365222D01*
X170323298Y-109267019D01*
X170400321Y-109068198D01*
X170439500Y-108858610D01*
X170439500Y-108645390D01*
X170400321Y-108435802D01*
X170323298Y-108236981D01*
X170211052Y-108055698D01*
X170201825Y-108045577D01*
X170071265Y-107902360D01*
X170067407Y-107898128D01*
X170057785Y-107890862D01*
X169917240Y-107784726D01*
X169897255Y-107769634D01*
X169706389Y-107674595D01*
X169700876Y-107673026D01*
X169700870Y-107673024D01*
X169605067Y-107645766D01*
X169554062Y-107616840D01*
X169522051Y-107567712D01*
X169516191Y-107509368D01*
X169537794Y-107454856D01*
X169582028Y-107416364D01*
X169639002Y-107402500D01*
X169928401Y-107402500D01*
X169932102Y-107402500D01*
X170020564Y-107391877D01*
X170161342Y-107336361D01*
X170281922Y-107244922D01*
X170373361Y-107124342D01*
X170428877Y-106983564D01*
X170437025Y-106915715D01*
X170458028Y-106860149D01*
X170502466Y-106820729D01*
X170560140Y-106806500D01*
X171756957Y-106806500D01*
X171804410Y-106815939D01*
X171844638Y-106842819D01*
X176469695Y-111467876D01*
X176472638Y-111470920D01*
X176516772Y-111518176D01*
X176524017Y-111522582D01*
X176524020Y-111522584D01*
X176535017Y-111529271D01*
X176552175Y-111539705D01*
X176562662Y-111546842D01*
X176595679Y-111571880D01*
X176612569Y-111578540D01*
X176631502Y-111587944D01*
X176647010Y-111597375D01*
X176670622Y-111603991D01*
X176686904Y-111608553D01*
X176698926Y-111612595D01*
X176737480Y-111627799D01*
X176755543Y-111629655D01*
X176776302Y-111633601D01*
X176793786Y-111638500D01*
X176835214Y-111638500D01*
X176847894Y-111639149D01*
X176889109Y-111643387D01*
X176906995Y-111640302D01*
X176928065Y-111638500D01*
X180568439Y-111638500D01*
X180627523Y-111653481D01*
X180672330Y-111694804D01*
X180692034Y-111752485D01*
X180681874Y-111812585D01*
X180676182Y-111825474D01*
X180676179Y-111825483D01*
X180672415Y-111834009D01*
X180671340Y-111843271D01*
X180671340Y-111843273D01*
X180669911Y-111855585D01*
X180669910Y-111855599D01*
X180669500Y-111859135D01*
X180669500Y-111862708D01*
X180669500Y-111862709D01*
X180669500Y-112845285D01*
X180669500Y-112845302D01*
X180669501Y-112848864D01*
X180669912Y-112852411D01*
X180669913Y-112852422D01*
X180670080Y-112853859D01*
X180672415Y-112873991D01*
X180676182Y-112882523D01*
X180676184Y-112882529D01*
X180701080Y-112938913D01*
X180711646Y-112988998D01*
X180701081Y-113039084D01*
X180676182Y-113095474D01*
X180676179Y-113095483D01*
X180672415Y-113104009D01*
X180671340Y-113113271D01*
X180671340Y-113113273D01*
X180669911Y-113125585D01*
X180669910Y-113125599D01*
X180669500Y-113129135D01*
X180669500Y-113132708D01*
X180669500Y-113132709D01*
X180669500Y-114115285D01*
X180669500Y-114115302D01*
X180669501Y-114118864D01*
X180669912Y-114122411D01*
X180669913Y-114122422D01*
X180670294Y-114125705D01*
X180672415Y-114143991D01*
X180676181Y-114152521D01*
X180676182Y-114152523D01*
X180688702Y-114180878D01*
X180717794Y-114246765D01*
X180797235Y-114326206D01*
X180857381Y-114352763D01*
X180891477Y-114367818D01*
X180891478Y-114367818D01*
X180900009Y-114371585D01*
X180925135Y-114374500D01*
X182514864Y-114374499D01*
X182539991Y-114371585D01*
X182642765Y-114326206D01*
X182722206Y-114246765D01*
X182767585Y-114143991D01*
X182770500Y-114118865D01*
X182770499Y-113129136D01*
X182767585Y-113104009D01*
X182738919Y-113039086D01*
X182728353Y-112988998D01*
X182738919Y-112938913D01*
X182767585Y-112873991D01*
X182770500Y-112848865D01*
X182770499Y-111859136D01*
X182767585Y-111834009D01*
X182757944Y-111812174D01*
X182738919Y-111769086D01*
X182728353Y-111718998D01*
X182738919Y-111668913D01*
X182767585Y-111603991D01*
X182770500Y-111578865D01*
X182770499Y-110589136D01*
X182767585Y-110564009D01*
X182738919Y-110499086D01*
X182728353Y-110448998D01*
X182738919Y-110398913D01*
X182767585Y-110333991D01*
X182770500Y-110308865D01*
X182770499Y-109319136D01*
X182767585Y-109294009D01*
X182754651Y-109264717D01*
X182738919Y-109229086D01*
X182728353Y-109178998D01*
X182738919Y-109128913D01*
X182767585Y-109063991D01*
X182770500Y-109038865D01*
X182770499Y-108049136D01*
X182767585Y-108024009D01*
X182745400Y-107973765D01*
X182738919Y-107959086D01*
X182728353Y-107908998D01*
X182738919Y-107858913D01*
X182767585Y-107793991D01*
X182770500Y-107768865D01*
X182770500Y-107654854D01*
X189178992Y-107654854D01*
X189184920Y-107664288D01*
X189613457Y-108092825D01*
X189624999Y-108099489D01*
X189636542Y-108092825D01*
X190163825Y-107565542D01*
X190170489Y-107554000D01*
X190604510Y-107554000D01*
X190611174Y-107565542D01*
X191138457Y-108092825D01*
X191149999Y-108099489D01*
X191161542Y-108092825D01*
X191688825Y-107565542D01*
X191695489Y-107554000D01*
X192129510Y-107554000D01*
X192136174Y-107565542D01*
X192663457Y-108092825D01*
X192674999Y-108099489D01*
X192686542Y-108092825D01*
X193115078Y-107664288D01*
X193121006Y-107654853D01*
X193107833Y-107641680D01*
X193075739Y-107586092D01*
X193075740Y-107521904D01*
X193107834Y-107466316D01*
X193121005Y-107453144D01*
X193115077Y-107443709D01*
X192686542Y-107015174D01*
X192675000Y-107008510D01*
X192663457Y-107015174D01*
X192136174Y-107542457D01*
X192129510Y-107554000D01*
X191695489Y-107554000D01*
X191688825Y-107542457D01*
X191161542Y-107015174D01*
X191150000Y-107008510D01*
X191138457Y-107015174D01*
X190611174Y-107542457D01*
X190604510Y-107554000D01*
X190170489Y-107554000D01*
X190163825Y-107542457D01*
X189636542Y-107015174D01*
X189625000Y-107008510D01*
X189613456Y-107015175D01*
X189184921Y-107443709D01*
X189178992Y-107453145D01*
X189192165Y-107466318D01*
X189224259Y-107521905D01*
X189224259Y-107586091D01*
X189192167Y-107641679D01*
X189178992Y-107654854D01*
X182770500Y-107654854D01*
X182770499Y-106798423D01*
X188820718Y-106798423D01*
X188839342Y-106963719D01*
X188842423Y-106977217D01*
X188897365Y-107134234D01*
X188903367Y-107146697D01*
X188955475Y-107229628D01*
X188963354Y-107237506D01*
X188972788Y-107231578D01*
X189401325Y-106803042D01*
X189407989Y-106791500D01*
X189842010Y-106791500D01*
X189848674Y-106803042D01*
X190375957Y-107330325D01*
X190387500Y-107336989D01*
X190399042Y-107330325D01*
X190926325Y-106803042D01*
X190932989Y-106791500D01*
X191367010Y-106791500D01*
X191373674Y-106803042D01*
X191900957Y-107330325D01*
X191912500Y-107336989D01*
X191924042Y-107330325D01*
X192451325Y-106803042D01*
X192457989Y-106791500D01*
X192892010Y-106791500D01*
X192898674Y-106803042D01*
X193327209Y-107231577D01*
X193336645Y-107237506D01*
X193344522Y-107229629D01*
X193396633Y-107146694D01*
X193402634Y-107134234D01*
X193457576Y-106977217D01*
X193460657Y-106963719D01*
X193479282Y-106798423D01*
X193479282Y-106784577D01*
X193460657Y-106619280D01*
X193457576Y-106605782D01*
X193402634Y-106448765D01*
X193396633Y-106436304D01*
X193344521Y-106353368D01*
X193336645Y-106345492D01*
X193327209Y-106351421D01*
X192898675Y-106779956D01*
X192892010Y-106791500D01*
X192457989Y-106791500D01*
X192451325Y-106779957D01*
X191924042Y-106252674D01*
X191912499Y-106246010D01*
X191900957Y-106252674D01*
X191373674Y-106779957D01*
X191367010Y-106791500D01*
X190932989Y-106791500D01*
X190926325Y-106779957D01*
X190399042Y-106252674D01*
X190387499Y-106246010D01*
X190375957Y-106252674D01*
X189848674Y-106779957D01*
X189842010Y-106791500D01*
X189407989Y-106791500D01*
X189401325Y-106779957D01*
X188972788Y-106351420D01*
X188963354Y-106345492D01*
X188955476Y-106353370D01*
X188903367Y-106436302D01*
X188897365Y-106448765D01*
X188842423Y-106605782D01*
X188839342Y-106619280D01*
X188820718Y-106784577D01*
X188820718Y-106798423D01*
X182770499Y-106798423D01*
X182770499Y-106779136D01*
X182767585Y-106754009D01*
X182738919Y-106689086D01*
X182728353Y-106638998D01*
X182738917Y-106588915D01*
X182767585Y-106523991D01*
X182770500Y-106498865D01*
X182770500Y-106129854D01*
X189178992Y-106129854D01*
X189184920Y-106139288D01*
X189613457Y-106567825D01*
X189625000Y-106574489D01*
X189636542Y-106567825D01*
X190163825Y-106040542D01*
X190170489Y-106029000D01*
X190604510Y-106029000D01*
X190611174Y-106040542D01*
X191138457Y-106567825D01*
X191150000Y-106574489D01*
X191161542Y-106567825D01*
X191688825Y-106040542D01*
X191695489Y-106029000D01*
X192129510Y-106029000D01*
X192136174Y-106040542D01*
X192663457Y-106567825D01*
X192675000Y-106574489D01*
X192686542Y-106567825D01*
X193115078Y-106139288D01*
X193121006Y-106129854D01*
X193113128Y-106121975D01*
X193030197Y-106069867D01*
X193017734Y-106063865D01*
X192860717Y-106008923D01*
X192847219Y-106005843D01*
X192811513Y-106001819D01*
X192759425Y-105983591D01*
X192720404Y-105944569D01*
X192702178Y-105892481D01*
X192698155Y-105856771D01*
X192695077Y-105843284D01*
X192640134Y-105686265D01*
X192634133Y-105673804D01*
X192582021Y-105590868D01*
X192574145Y-105582992D01*
X192564709Y-105588921D01*
X192136175Y-106017456D01*
X192129510Y-106029000D01*
X191695489Y-106029000D01*
X191688825Y-106017457D01*
X191260288Y-105588920D01*
X191250854Y-105582992D01*
X191237679Y-105596167D01*
X191182091Y-105628259D01*
X191117905Y-105628259D01*
X191062318Y-105596165D01*
X191049145Y-105582992D01*
X191039709Y-105588921D01*
X190611175Y-106017456D01*
X190604510Y-106029000D01*
X190170489Y-106029000D01*
X190163825Y-106017457D01*
X189735288Y-105588920D01*
X189725854Y-105582992D01*
X189717976Y-105590870D01*
X189665867Y-105673802D01*
X189659865Y-105686265D01*
X189604923Y-105843282D01*
X189601843Y-105856779D01*
X189597819Y-105892486D01*
X189579592Y-105944572D01*
X189540572Y-105983592D01*
X189488486Y-106001819D01*
X189452779Y-106005843D01*
X189439282Y-106008923D01*
X189282265Y-106063865D01*
X189269802Y-106069867D01*
X189186870Y-106121976D01*
X189178992Y-106129854D01*
X182770500Y-106129854D01*
X182770499Y-105509136D01*
X182767585Y-105484009D01*
X182738918Y-105419085D01*
X182728353Y-105369000D01*
X182728700Y-105367354D01*
X189941492Y-105367354D01*
X189947420Y-105376788D01*
X190375957Y-105805325D01*
X190387500Y-105811989D01*
X190399042Y-105805325D01*
X190827578Y-105376788D01*
X190833506Y-105367354D01*
X191466492Y-105367354D01*
X191472420Y-105376788D01*
X191900957Y-105805325D01*
X191912500Y-105811989D01*
X191924042Y-105805325D01*
X192352578Y-105376788D01*
X192358506Y-105367354D01*
X192350628Y-105359475D01*
X192267697Y-105307367D01*
X192255234Y-105301365D01*
X192098217Y-105246423D01*
X192084719Y-105243342D01*
X191919423Y-105224718D01*
X191905577Y-105224718D01*
X191740280Y-105243342D01*
X191726782Y-105246423D01*
X191569765Y-105301365D01*
X191557302Y-105307367D01*
X191474370Y-105359476D01*
X191466492Y-105367354D01*
X190833506Y-105367354D01*
X190825628Y-105359475D01*
X190742697Y-105307367D01*
X190730234Y-105301365D01*
X190573217Y-105246423D01*
X190559719Y-105243342D01*
X190394423Y-105224718D01*
X190380577Y-105224718D01*
X190215280Y-105243342D01*
X190201782Y-105246423D01*
X190044765Y-105301365D01*
X190032302Y-105307367D01*
X189949370Y-105359476D01*
X189941492Y-105367354D01*
X182728700Y-105367354D01*
X182738919Y-105318913D01*
X182744017Y-105307367D01*
X182767585Y-105253991D01*
X182770500Y-105228865D01*
X182770499Y-104239136D01*
X182767585Y-104214009D01*
X182738918Y-104149085D01*
X182728353Y-104099000D01*
X182738919Y-104048913D01*
X182767585Y-103983991D01*
X182770500Y-103958865D01*
X182770499Y-102969136D01*
X182767585Y-102944009D01*
X182738918Y-102879085D01*
X182728353Y-102829000D01*
X182738919Y-102778913D01*
X182748012Y-102758319D01*
X182767585Y-102713991D01*
X182768070Y-102709808D01*
X182791288Y-102665552D01*
X182833813Y-102633051D01*
X182886074Y-102621500D01*
X193685028Y-102621500D01*
X193698913Y-102622280D01*
X193732166Y-102626027D01*
X193785364Y-102615960D01*
X193789845Y-102615198D01*
X193843431Y-102607122D01*
X193850778Y-102603583D01*
X193858789Y-102602068D01*
X193867012Y-102597722D01*
X193906642Y-102576777D01*
X193910786Y-102574685D01*
X193951159Y-102555243D01*
X193951159Y-102555242D01*
X193959540Y-102551207D01*
X193965517Y-102545660D01*
X193972726Y-102541851D01*
X194011041Y-102503535D01*
X194014331Y-102500367D01*
X194047189Y-102469880D01*
X194047189Y-102469879D01*
X194054008Y-102463553D01*
X194057338Y-102457783D01*
X194061928Y-102452647D01*
X197957821Y-98556753D01*
X198007182Y-98526505D01*
X198064898Y-98521963D01*
X198118385Y-98544118D01*
G37*
%TD.AperFunction*%
%TA.AperFunction,Conductor*%
G36*
X208292259Y-96965491D02*
G01*
X208337920Y-97014243D01*
X208351666Y-97079610D01*
X208329506Y-97142623D01*
X208305304Y-97177185D01*
X208299913Y-97186523D01*
X208204656Y-97390802D01*
X208200968Y-97400936D01*
X208142630Y-97618656D01*
X208140759Y-97629267D01*
X208135268Y-97692023D01*
X208137840Y-97705465D01*
X208151009Y-97709200D01*
X211050591Y-97709200D01*
X211063759Y-97705465D01*
X211066330Y-97692024D01*
X211065236Y-97679511D01*
X211074621Y-97620253D01*
X211110727Y-97572337D01*
X211165103Y-97546980D01*
X211225018Y-97550120D01*
X211276445Y-97581021D01*
X211372181Y-97676757D01*
X211399061Y-97716985D01*
X211408500Y-97764438D01*
X211408500Y-107467561D01*
X211399061Y-107515014D01*
X211372181Y-107555242D01*
X208901243Y-110026181D01*
X208861015Y-110053061D01*
X208813562Y-110062500D01*
X204754973Y-110062500D01*
X204741090Y-110061720D01*
X204717068Y-110059013D01*
X204717065Y-110059013D01*
X204707834Y-110057973D01*
X204698707Y-110059699D01*
X204698702Y-110059700D01*
X204654652Y-110068035D01*
X204650082Y-110068812D01*
X204605755Y-110075493D01*
X204605752Y-110075493D01*
X204596569Y-110076878D01*
X204589224Y-110080414D01*
X204581211Y-110081931D01*
X204573001Y-110086269D01*
X204572998Y-110086271D01*
X204533363Y-110107219D01*
X204529226Y-110109307D01*
X204488827Y-110128762D01*
X204488818Y-110128767D01*
X204480460Y-110132793D01*
X204474482Y-110138338D01*
X204467274Y-110142149D01*
X204460716Y-110148706D01*
X204460713Y-110148709D01*
X204429006Y-110180416D01*
X204425671Y-110183628D01*
X204392800Y-110214129D01*
X204392797Y-110214132D01*
X204385992Y-110220447D01*
X204382664Y-110226209D01*
X204378061Y-110231360D01*
X203681614Y-110927808D01*
X203671249Y-110937071D01*
X203652347Y-110952145D01*
X203652341Y-110952151D01*
X203645080Y-110957942D01*
X203639847Y-110965615D01*
X203639843Y-110965621D01*
X203614583Y-111002669D01*
X203611904Y-111006445D01*
X203585287Y-111042511D01*
X203585285Y-111042513D01*
X203579771Y-111049986D01*
X203577077Y-111057682D01*
X203572485Y-111064419D01*
X203569747Y-111073292D01*
X203569746Y-111073296D01*
X203556525Y-111116153D01*
X203555078Y-111120550D01*
X203540276Y-111162854D01*
X203540274Y-111162859D01*
X203537208Y-111171625D01*
X203536903Y-111179774D01*
X203534500Y-111187565D01*
X203534500Y-111196852D01*
X203534500Y-111241680D01*
X203534413Y-111246317D01*
X203532736Y-111291117D01*
X203532736Y-111291120D01*
X203532389Y-111300405D01*
X203534112Y-111306838D01*
X203534500Y-111313730D01*
X203534500Y-111962842D01*
X203519098Y-112022696D01*
X203476718Y-112067681D01*
X203417889Y-112086622D01*
X203357224Y-112074814D01*
X203309794Y-112035190D01*
X203293100Y-111992292D01*
X203290255Y-111993012D01*
X203288307Y-111985306D01*
X203287359Y-111977410D01*
X203234364Y-111843025D01*
X203147078Y-111727922D01*
X203031975Y-111640636D01*
X203023366Y-111637241D01*
X202904988Y-111590558D01*
X202904985Y-111590557D01*
X202897590Y-111587641D01*
X202889699Y-111586693D01*
X202889694Y-111586692D01*
X202816821Y-111577941D01*
X202816811Y-111577940D01*
X202813144Y-111577500D01*
X202230856Y-111577500D01*
X202227189Y-111577940D01*
X202227178Y-111577941D01*
X202154305Y-111586692D01*
X202154298Y-111586693D01*
X202146410Y-111587641D01*
X202139016Y-111590556D01*
X202139011Y-111590558D01*
X202019920Y-111637522D01*
X202019916Y-111637523D01*
X202012025Y-111640636D01*
X202005266Y-111645761D01*
X202005265Y-111645762D01*
X201903674Y-111722801D01*
X201903670Y-111722804D01*
X201896922Y-111727922D01*
X201891804Y-111734670D01*
X201891799Y-111734676D01*
X201860232Y-111776303D01*
X201816416Y-111812518D01*
X201761044Y-111825375D01*
X201705753Y-111812174D01*
X201662163Y-111775688D01*
X201635859Y-111740551D01*
X201635858Y-111740550D01*
X201630546Y-111733454D01*
X201616315Y-111722801D01*
X201522431Y-111652519D01*
X201522430Y-111652518D01*
X201515331Y-111647204D01*
X201422553Y-111612600D01*
X201387752Y-111599620D01*
X201387750Y-111599619D01*
X201380483Y-111596909D01*
X201372770Y-111596079D01*
X201372767Y-111596079D01*
X201324180Y-111590855D01*
X201324169Y-111590854D01*
X201320873Y-111590500D01*
X201317550Y-111590500D01*
X200678439Y-111590500D01*
X200678420Y-111590500D01*
X200675128Y-111590501D01*
X200671850Y-111590853D01*
X200671838Y-111590854D01*
X200623231Y-111596079D01*
X200623225Y-111596080D01*
X200615517Y-111596909D01*
X200608252Y-111599618D01*
X200608246Y-111599620D01*
X200488980Y-111644104D01*
X200488978Y-111644104D01*
X200480669Y-111647204D01*
X200473573Y-111652515D01*
X200473560Y-111652523D01*
X200468801Y-111656086D01*
X200405544Y-111680320D01*
X200338990Y-111667695D01*
X200289002Y-111621978D01*
X200270499Y-111556816D01*
X200270499Y-110589136D01*
X200267585Y-110564009D01*
X200238919Y-110499086D01*
X200228353Y-110448998D01*
X200238919Y-110398913D01*
X200267585Y-110333991D01*
X200270500Y-110308865D01*
X200270499Y-109319136D01*
X200267585Y-109294009D01*
X200254651Y-109264717D01*
X200238919Y-109229086D01*
X200228353Y-109178998D01*
X200238919Y-109128913D01*
X200267585Y-109063991D01*
X200270500Y-109038865D01*
X200270499Y-108049136D01*
X200267585Y-108024009D01*
X200245400Y-107973765D01*
X200238919Y-107959086D01*
X200228353Y-107908998D01*
X200238919Y-107858913D01*
X200267585Y-107793991D01*
X200270500Y-107768865D01*
X200270499Y-106779136D01*
X200267585Y-106754009D01*
X200238919Y-106689086D01*
X200228353Y-106638998D01*
X200238917Y-106588915D01*
X200267585Y-106523991D01*
X200270500Y-106498865D01*
X200270499Y-105509136D01*
X200267585Y-105484009D01*
X200238918Y-105419085D01*
X200228353Y-105369000D01*
X200238919Y-105318913D01*
X200244017Y-105307367D01*
X200267585Y-105253991D01*
X200270500Y-105228865D01*
X200270499Y-104239136D01*
X200267585Y-104214009D01*
X200263810Y-104205459D01*
X200258126Y-104192585D01*
X200247966Y-104132485D01*
X200267670Y-104074804D01*
X200312477Y-104033481D01*
X200371561Y-104018500D01*
X206912410Y-104018500D01*
X206916644Y-104018572D01*
X206981239Y-104020779D01*
X207021501Y-104010966D01*
X207033973Y-104008597D01*
X207034321Y-104008549D01*
X207075009Y-104002957D01*
X207091652Y-103995727D01*
X207111694Y-103988987D01*
X207129333Y-103984689D01*
X207165452Y-103964379D01*
X207176803Y-103958741D01*
X207214818Y-103942230D01*
X207228900Y-103930772D01*
X207246378Y-103918876D01*
X207262199Y-103909982D01*
X207291493Y-103880686D01*
X207300908Y-103872188D01*
X207333058Y-103846034D01*
X207343527Y-103831201D01*
X207357138Y-103815041D01*
X207722165Y-103450016D01*
X207762391Y-103423139D01*
X207809844Y-103413700D01*
X208396880Y-103413700D01*
X208457219Y-103429371D01*
X208502307Y-103472422D01*
X208553748Y-103555502D01*
X208697393Y-103713072D01*
X208867545Y-103841566D01*
X209058411Y-103936605D01*
X209145094Y-103961269D01*
X209159733Y-103965434D01*
X209210738Y-103994360D01*
X209242749Y-104043488D01*
X209248609Y-104101832D01*
X209227006Y-104156344D01*
X209182772Y-104194836D01*
X209125798Y-104208700D01*
X208832698Y-104208700D01*
X208829033Y-104209140D01*
X208829018Y-104209141D01*
X208752131Y-104218374D01*
X208752124Y-104218375D01*
X208744236Y-104219323D01*
X208736840Y-104222239D01*
X208736838Y-104222240D01*
X208611351Y-104271726D01*
X208611348Y-104271727D01*
X208603458Y-104274839D01*
X208596699Y-104279964D01*
X208596698Y-104279965D01*
X208489635Y-104361153D01*
X208489630Y-104361157D01*
X208482878Y-104366278D01*
X208477757Y-104373030D01*
X208477753Y-104373035D01*
X208396565Y-104480098D01*
X208391439Y-104486858D01*
X208335923Y-104627636D01*
X208334975Y-104635524D01*
X208334974Y-104635531D01*
X208325741Y-104712418D01*
X208325740Y-104712433D01*
X208325300Y-104716098D01*
X208325300Y-106002302D01*
X208325740Y-106005967D01*
X208325741Y-106005981D01*
X208334974Y-106082868D01*
X208334975Y-106082874D01*
X208335923Y-106090764D01*
X208338839Y-106098160D01*
X208338840Y-106098161D01*
X208370300Y-106177938D01*
X208391439Y-106231542D01*
X208482878Y-106352122D01*
X208603458Y-106443561D01*
X208744236Y-106499077D01*
X208832698Y-106509700D01*
X210365201Y-106509700D01*
X210368902Y-106509700D01*
X210457364Y-106499077D01*
X210598142Y-106443561D01*
X210718722Y-106352122D01*
X210810161Y-106231542D01*
X210865677Y-106090764D01*
X210876300Y-106002302D01*
X210876300Y-104716098D01*
X210865677Y-104627636D01*
X210810161Y-104486858D01*
X210718722Y-104366278D01*
X210598142Y-104274839D01*
X210457364Y-104219323D01*
X210449474Y-104218375D01*
X210449468Y-104218374D01*
X210372581Y-104209141D01*
X210372567Y-104209140D01*
X210368902Y-104208700D01*
X210075802Y-104208700D01*
X210018828Y-104194836D01*
X209974594Y-104156344D01*
X209952991Y-104101832D01*
X209958851Y-104043488D01*
X209990862Y-103994360D01*
X210041867Y-103965434D01*
X210052481Y-103962414D01*
X210143189Y-103936605D01*
X210334055Y-103841566D01*
X210504207Y-103713072D01*
X210647852Y-103555502D01*
X210760098Y-103374219D01*
X210837121Y-103175398D01*
X210876300Y-102965810D01*
X210876300Y-102752590D01*
X210837121Y-102543002D01*
X210760098Y-102344181D01*
X210647852Y-102162898D01*
X210504207Y-102005328D01*
X210334055Y-101876834D01*
X210143189Y-101781795D01*
X210137676Y-101780226D01*
X210137670Y-101780224D01*
X209955760Y-101728466D01*
X209901207Y-101696067D01*
X209869822Y-101640924D01*
X209869822Y-101577476D01*
X209901207Y-101522333D01*
X209955760Y-101489934D01*
X210143189Y-101436605D01*
X210334055Y-101341566D01*
X210504207Y-101213072D01*
X210647852Y-101055502D01*
X210760098Y-100874219D01*
X210837121Y-100675398D01*
X210876300Y-100465810D01*
X210876300Y-100252590D01*
X210837121Y-100043002D01*
X210760098Y-99844181D01*
X210647852Y-99662898D01*
X210504207Y-99505328D01*
X210477528Y-99485181D01*
X210338626Y-99380286D01*
X210334055Y-99376834D01*
X210241066Y-99330531D01*
X210190495Y-99284132D01*
X210172348Y-99217941D01*
X210192187Y-99152237D01*
X210243934Y-99107150D01*
X210398463Y-99035092D01*
X210407817Y-99029691D01*
X210592442Y-98900415D01*
X210600707Y-98893480D01*
X210760078Y-98734109D01*
X210767015Y-98725843D01*
X210896298Y-98541208D01*
X210901686Y-98531876D01*
X210996943Y-98327597D01*
X211000631Y-98317463D01*
X211058969Y-98099743D01*
X211060840Y-98089132D01*
X211066331Y-98026376D01*
X211063759Y-98012934D01*
X211050591Y-98009200D01*
X208151009Y-98009200D01*
X208137840Y-98012934D01*
X208135268Y-98026376D01*
X208140759Y-98089132D01*
X208142630Y-98099743D01*
X208200968Y-98317463D01*
X208204656Y-98327597D01*
X208299910Y-98531867D01*
X208305308Y-98541217D01*
X208434584Y-98725842D01*
X208441519Y-98734107D01*
X208600892Y-98893480D01*
X208609157Y-98900415D01*
X208793782Y-99029691D01*
X208803132Y-99035089D01*
X208957666Y-99107150D01*
X209009412Y-99152237D01*
X209029251Y-99217941D01*
X209011105Y-99284132D01*
X208960533Y-99330532D01*
X208872671Y-99374281D01*
X208872666Y-99374283D01*
X208867545Y-99376834D01*
X208862977Y-99380283D01*
X208862973Y-99380286D01*
X208701964Y-99501875D01*
X208701956Y-99501881D01*
X208697393Y-99505328D01*
X208693539Y-99509554D01*
X208693534Y-99509560D01*
X208557603Y-99658668D01*
X208557597Y-99658675D01*
X208553748Y-99662898D01*
X208550740Y-99667755D01*
X208550734Y-99667764D01*
X208502307Y-99745978D01*
X208457219Y-99789029D01*
X208396880Y-99804700D01*
X208262390Y-99804700D01*
X208258156Y-99804628D01*
X208202035Y-99802710D01*
X208202031Y-99802710D01*
X208193561Y-99802421D01*
X208185328Y-99804426D01*
X208185319Y-99804428D01*
X208153300Y-99812231D01*
X208140832Y-99814601D01*
X208108190Y-99819088D01*
X208108186Y-99819088D01*
X208099791Y-99820243D01*
X208092020Y-99823617D01*
X208092013Y-99823620D01*
X208083134Y-99827477D01*
X208063107Y-99834211D01*
X208053709Y-99836501D01*
X208053701Y-99836504D01*
X208045467Y-99838511D01*
X208009341Y-99858822D01*
X207997992Y-99864458D01*
X207959982Y-99880970D01*
X207953402Y-99886322D01*
X207953400Y-99886324D01*
X207945896Y-99892429D01*
X207928427Y-99904318D01*
X207919994Y-99909059D01*
X207919984Y-99909066D01*
X207912601Y-99913218D01*
X207906608Y-99919210D01*
X207906601Y-99919216D01*
X207883302Y-99942514D01*
X207873882Y-99951015D01*
X207848323Y-99971809D01*
X207848312Y-99971820D01*
X207841742Y-99977166D01*
X207836856Y-99984087D01*
X207836848Y-99984096D01*
X207831270Y-99991999D01*
X207817652Y-100008165D01*
X206222638Y-101603181D01*
X206182410Y-101630061D01*
X206134957Y-101639500D01*
X200371561Y-101639500D01*
X200312477Y-101624519D01*
X200267670Y-101583196D01*
X200247966Y-101525515D01*
X200258126Y-101465415D01*
X200263817Y-101452525D01*
X200263818Y-101452523D01*
X200267585Y-101443991D01*
X200270500Y-101418865D01*
X200270499Y-100429136D01*
X200267585Y-100404009D01*
X200238918Y-100339085D01*
X200228353Y-100289000D01*
X200238919Y-100238913D01*
X200263817Y-100182524D01*
X200267585Y-100173991D01*
X200270500Y-100148865D01*
X200270499Y-99159136D01*
X200267585Y-99134009D01*
X200238918Y-99069085D01*
X200228353Y-99019000D01*
X200238919Y-98968913D01*
X200263817Y-98912524D01*
X200267585Y-98903991D01*
X200270500Y-98878865D01*
X200270499Y-97889136D01*
X200267585Y-97864009D01*
X200222206Y-97761235D01*
X200142765Y-97681794D01*
X200107865Y-97666384D01*
X200048522Y-97640181D01*
X200048517Y-97640179D01*
X200039991Y-97636415D01*
X200030726Y-97635340D01*
X200018414Y-97633911D01*
X200018401Y-97633910D01*
X200014865Y-97633500D01*
X200011290Y-97633500D01*
X199180437Y-97633500D01*
X199124142Y-97619985D01*
X199080119Y-97582385D01*
X199057964Y-97528898D01*
X199062506Y-97471182D01*
X199092756Y-97421819D01*
X199225131Y-97289445D01*
X199530756Y-96983819D01*
X199570985Y-96956939D01*
X199618438Y-96947500D01*
X208227931Y-96947500D01*
X208292259Y-96965491D01*
G37*
%TD.AperFunction*%
%TD*%
M02*
