%TF.GenerationSoftware,KiCad,Pcbnew,(7.0.0)*%
%TF.CreationDate,2023-12-20T20:41:28+01:00*%
%TF.ProjectId,board2,626f6172-6432-42e6-9b69-6361645f7063,rev?*%
%TF.SameCoordinates,Original*%
%TF.FileFunction,Legend,Top*%
%TF.FilePolarity,Positive*%
%FSLAX46Y46*%
G04 Gerber Fmt 4.6, Leading zero omitted, Abs format (unit mm)*
G04 Created by KiCad (PCBNEW (7.0.0)) date 2023-12-20 20:41:28*
%MOMM*%
%LPD*%
G01*
G04 APERTURE LIST*
%ADD10C,0.250000*%
%ADD11C,0.150000*%
%ADD12C,0.120000*%
%ADD13C,0.310000*%
G04 APERTURE END LIST*
D10*
X204601714Y-107457904D02*
X205601714Y-107457904D01*
X204649333Y-107457904D02*
X204601714Y-107362666D01*
X204601714Y-107362666D02*
X204601714Y-107172190D01*
X204601714Y-107172190D02*
X204649333Y-107076952D01*
X204649333Y-107076952D02*
X204696952Y-107029333D01*
X204696952Y-107029333D02*
X204792190Y-106981714D01*
X204792190Y-106981714D02*
X205077904Y-106981714D01*
X205077904Y-106981714D02*
X205173142Y-107029333D01*
X205173142Y-107029333D02*
X205220761Y-107076952D01*
X205220761Y-107076952D02*
X205268380Y-107172190D01*
X205268380Y-107172190D02*
X205268380Y-107362666D01*
X205268380Y-107362666D02*
X205220761Y-107457904D01*
X204601714Y-106648380D02*
X204601714Y-106124571D01*
X204601714Y-106124571D02*
X205268380Y-106648380D01*
X205268380Y-106648380D02*
X205268380Y-106124571D01*
X205220761Y-105362666D02*
X205268380Y-105457904D01*
X205268380Y-105457904D02*
X205268380Y-105648380D01*
X205268380Y-105648380D02*
X205220761Y-105743618D01*
X205220761Y-105743618D02*
X205125523Y-105791237D01*
X205125523Y-105791237D02*
X204744571Y-105791237D01*
X204744571Y-105791237D02*
X204649333Y-105743618D01*
X204649333Y-105743618D02*
X204601714Y-105648380D01*
X204601714Y-105648380D02*
X204601714Y-105457904D01*
X204601714Y-105457904D02*
X204649333Y-105362666D01*
X204649333Y-105362666D02*
X204744571Y-105315047D01*
X204744571Y-105315047D02*
X204839809Y-105315047D01*
X204839809Y-105315047D02*
X204935047Y-105791237D01*
X205268380Y-104886475D02*
X204601714Y-104886475D01*
X204696952Y-104886475D02*
X204649333Y-104838856D01*
X204649333Y-104838856D02*
X204601714Y-104743618D01*
X204601714Y-104743618D02*
X204601714Y-104600761D01*
X204601714Y-104600761D02*
X204649333Y-104505523D01*
X204649333Y-104505523D02*
X204744571Y-104457904D01*
X204744571Y-104457904D02*
X205268380Y-104457904D01*
X204744571Y-104457904D02*
X204649333Y-104410285D01*
X204649333Y-104410285D02*
X204601714Y-104315047D01*
X204601714Y-104315047D02*
X204601714Y-104172190D01*
X204601714Y-104172190D02*
X204649333Y-104076951D01*
X204649333Y-104076951D02*
X204744571Y-104029332D01*
X204744571Y-104029332D02*
X205268380Y-104029332D01*
X204887428Y-103553142D02*
X204887428Y-102791238D01*
X204268380Y-102124571D02*
X204268380Y-102029333D01*
X204268380Y-102029333D02*
X204316000Y-101934095D01*
X204316000Y-101934095D02*
X204363619Y-101886476D01*
X204363619Y-101886476D02*
X204458857Y-101838857D01*
X204458857Y-101838857D02*
X204649333Y-101791238D01*
X204649333Y-101791238D02*
X204887428Y-101791238D01*
X204887428Y-101791238D02*
X205077904Y-101838857D01*
X205077904Y-101838857D02*
X205173142Y-101886476D01*
X205173142Y-101886476D02*
X205220761Y-101934095D01*
X205220761Y-101934095D02*
X205268380Y-102029333D01*
X205268380Y-102029333D02*
X205268380Y-102124571D01*
X205268380Y-102124571D02*
X205220761Y-102219809D01*
X205220761Y-102219809D02*
X205173142Y-102267428D01*
X205173142Y-102267428D02*
X205077904Y-102315047D01*
X205077904Y-102315047D02*
X204887428Y-102362666D01*
X204887428Y-102362666D02*
X204649333Y-102362666D01*
X204649333Y-102362666D02*
X204458857Y-102315047D01*
X204458857Y-102315047D02*
X204363619Y-102267428D01*
X204363619Y-102267428D02*
X204316000Y-102219809D01*
X204316000Y-102219809D02*
X204268380Y-102124571D01*
X204268380Y-101172190D02*
X204268380Y-101076952D01*
X204268380Y-101076952D02*
X204316000Y-100981714D01*
X204316000Y-100981714D02*
X204363619Y-100934095D01*
X204363619Y-100934095D02*
X204458857Y-100886476D01*
X204458857Y-100886476D02*
X204649333Y-100838857D01*
X204649333Y-100838857D02*
X204887428Y-100838857D01*
X204887428Y-100838857D02*
X205077904Y-100886476D01*
X205077904Y-100886476D02*
X205173142Y-100934095D01*
X205173142Y-100934095D02*
X205220761Y-100981714D01*
X205220761Y-100981714D02*
X205268380Y-101076952D01*
X205268380Y-101076952D02*
X205268380Y-101172190D01*
X205268380Y-101172190D02*
X205220761Y-101267428D01*
X205220761Y-101267428D02*
X205173142Y-101315047D01*
X205173142Y-101315047D02*
X205077904Y-101362666D01*
X205077904Y-101362666D02*
X204887428Y-101410285D01*
X204887428Y-101410285D02*
X204649333Y-101410285D01*
X204649333Y-101410285D02*
X204458857Y-101362666D01*
X204458857Y-101362666D02*
X204363619Y-101315047D01*
X204363619Y-101315047D02*
X204316000Y-101267428D01*
X204316000Y-101267428D02*
X204268380Y-101172190D01*
X204601714Y-99981714D02*
X205268380Y-99981714D01*
X204220761Y-100219809D02*
X204935047Y-100457904D01*
X204935047Y-100457904D02*
X204935047Y-99838857D01*
X204601714Y-98857904D02*
X205601714Y-98857904D01*
X204649333Y-98857904D02*
X204601714Y-98762666D01*
X204601714Y-98762666D02*
X204601714Y-98572190D01*
X204601714Y-98572190D02*
X204649333Y-98476952D01*
X204649333Y-98476952D02*
X204696952Y-98429333D01*
X204696952Y-98429333D02*
X204792190Y-98381714D01*
X204792190Y-98381714D02*
X205077904Y-98381714D01*
X205077904Y-98381714D02*
X205173142Y-98429333D01*
X205173142Y-98429333D02*
X205220761Y-98476952D01*
X205220761Y-98476952D02*
X205268380Y-98572190D01*
X205268380Y-98572190D02*
X205268380Y-98762666D01*
X205268380Y-98762666D02*
X205220761Y-98857904D01*
X205268380Y-97810285D02*
X205220761Y-97905523D01*
X205220761Y-97905523D02*
X205173142Y-97953142D01*
X205173142Y-97953142D02*
X205077904Y-98000761D01*
X205077904Y-98000761D02*
X204792190Y-98000761D01*
X204792190Y-98000761D02*
X204696952Y-97953142D01*
X204696952Y-97953142D02*
X204649333Y-97905523D01*
X204649333Y-97905523D02*
X204601714Y-97810285D01*
X204601714Y-97810285D02*
X204601714Y-97667428D01*
X204601714Y-97667428D02*
X204649333Y-97572190D01*
X204649333Y-97572190D02*
X204696952Y-97524571D01*
X204696952Y-97524571D02*
X204792190Y-97476952D01*
X204792190Y-97476952D02*
X205077904Y-97476952D01*
X205077904Y-97476952D02*
X205173142Y-97524571D01*
X205173142Y-97524571D02*
X205220761Y-97572190D01*
X205220761Y-97572190D02*
X205268380Y-97667428D01*
X205268380Y-97667428D02*
X205268380Y-97810285D01*
X205268380Y-97048380D02*
X204601714Y-97048380D01*
X204792190Y-97048380D02*
X204696952Y-97000761D01*
X204696952Y-97000761D02*
X204649333Y-96953142D01*
X204649333Y-96953142D02*
X204601714Y-96857904D01*
X204601714Y-96857904D02*
X204601714Y-96762666D01*
X204601714Y-96572189D02*
X204601714Y-96191237D01*
X204268380Y-96429332D02*
X205125523Y-96429332D01*
X205125523Y-96429332D02*
X205220761Y-96381713D01*
X205220761Y-96381713D02*
X205268380Y-96286475D01*
X205268380Y-96286475D02*
X205268380Y-96191237D01*
X213142380Y-118205333D02*
X212142380Y-118205333D01*
X213094761Y-118205333D02*
X213142380Y-118300571D01*
X213142380Y-118300571D02*
X213142380Y-118491047D01*
X213142380Y-118491047D02*
X213094761Y-118586285D01*
X213094761Y-118586285D02*
X213047142Y-118633904D01*
X213047142Y-118633904D02*
X212951904Y-118681523D01*
X212951904Y-118681523D02*
X212666190Y-118681523D01*
X212666190Y-118681523D02*
X212570952Y-118633904D01*
X212570952Y-118633904D02*
X212523333Y-118586285D01*
X212523333Y-118586285D02*
X212475714Y-118491047D01*
X212475714Y-118491047D02*
X212475714Y-118300571D01*
X212475714Y-118300571D02*
X212523333Y-118205333D01*
X213094761Y-117776761D02*
X213142380Y-117681523D01*
X213142380Y-117681523D02*
X213142380Y-117491047D01*
X213142380Y-117491047D02*
X213094761Y-117395809D01*
X213094761Y-117395809D02*
X212999523Y-117348190D01*
X212999523Y-117348190D02*
X212951904Y-117348190D01*
X212951904Y-117348190D02*
X212856666Y-117395809D01*
X212856666Y-117395809D02*
X212809047Y-117491047D01*
X212809047Y-117491047D02*
X212809047Y-117633904D01*
X212809047Y-117633904D02*
X212761428Y-117729142D01*
X212761428Y-117729142D02*
X212666190Y-117776761D01*
X212666190Y-117776761D02*
X212618571Y-117776761D01*
X212618571Y-117776761D02*
X212523333Y-117729142D01*
X212523333Y-117729142D02*
X212475714Y-117633904D01*
X212475714Y-117633904D02*
X212475714Y-117491047D01*
X212475714Y-117491047D02*
X212523333Y-117395809D01*
X213142380Y-116395809D02*
X213142380Y-116967237D01*
X213142380Y-116681523D02*
X212142380Y-116681523D01*
X212142380Y-116681523D02*
X212285238Y-116776761D01*
X212285238Y-116776761D02*
X212380476Y-116871999D01*
X212380476Y-116871999D02*
X212428095Y-116967237D01*
X212570952Y-115824380D02*
X212523333Y-115919618D01*
X212523333Y-115919618D02*
X212475714Y-115967237D01*
X212475714Y-115967237D02*
X212380476Y-116014856D01*
X212380476Y-116014856D02*
X212332857Y-116014856D01*
X212332857Y-116014856D02*
X212237619Y-115967237D01*
X212237619Y-115967237D02*
X212190000Y-115919618D01*
X212190000Y-115919618D02*
X212142380Y-115824380D01*
X212142380Y-115824380D02*
X212142380Y-115633904D01*
X212142380Y-115633904D02*
X212190000Y-115538666D01*
X212190000Y-115538666D02*
X212237619Y-115491047D01*
X212237619Y-115491047D02*
X212332857Y-115443428D01*
X212332857Y-115443428D02*
X212380476Y-115443428D01*
X212380476Y-115443428D02*
X212475714Y-115491047D01*
X212475714Y-115491047D02*
X212523333Y-115538666D01*
X212523333Y-115538666D02*
X212570952Y-115633904D01*
X212570952Y-115633904D02*
X212570952Y-115824380D01*
X212570952Y-115824380D02*
X212618571Y-115919618D01*
X212618571Y-115919618D02*
X212666190Y-115967237D01*
X212666190Y-115967237D02*
X212761428Y-116014856D01*
X212761428Y-116014856D02*
X212951904Y-116014856D01*
X212951904Y-116014856D02*
X213047142Y-115967237D01*
X213047142Y-115967237D02*
X213094761Y-115919618D01*
X213094761Y-115919618D02*
X213142380Y-115824380D01*
X213142380Y-115824380D02*
X213142380Y-115633904D01*
X213142380Y-115633904D02*
X213094761Y-115538666D01*
X213094761Y-115538666D02*
X213047142Y-115491047D01*
X213047142Y-115491047D02*
X212951904Y-115443428D01*
X212951904Y-115443428D02*
X212761428Y-115443428D01*
X212761428Y-115443428D02*
X212666190Y-115491047D01*
X212666190Y-115491047D02*
X212618571Y-115538666D01*
X212618571Y-115538666D02*
X212570952Y-115633904D01*
X213142380Y-115014856D02*
X212142380Y-115014856D01*
X212523333Y-115014856D02*
X212475714Y-114919618D01*
X212475714Y-114919618D02*
X212475714Y-114729142D01*
X212475714Y-114729142D02*
X212523333Y-114633904D01*
X212523333Y-114633904D02*
X212570952Y-114586285D01*
X212570952Y-114586285D02*
X212666190Y-114538666D01*
X212666190Y-114538666D02*
X212951904Y-114538666D01*
X212951904Y-114538666D02*
X213047142Y-114586285D01*
X213047142Y-114586285D02*
X213094761Y-114633904D01*
X213094761Y-114633904D02*
X213142380Y-114729142D01*
X213142380Y-114729142D02*
X213142380Y-114919618D01*
X213142380Y-114919618D02*
X213094761Y-115014856D01*
X212237619Y-114157713D02*
X212190000Y-114110094D01*
X212190000Y-114110094D02*
X212142380Y-114014856D01*
X212142380Y-114014856D02*
X212142380Y-113776761D01*
X212142380Y-113776761D02*
X212190000Y-113681523D01*
X212190000Y-113681523D02*
X212237619Y-113633904D01*
X212237619Y-113633904D02*
X212332857Y-113586285D01*
X212332857Y-113586285D02*
X212428095Y-113586285D01*
X212428095Y-113586285D02*
X212570952Y-113633904D01*
X212570952Y-113633904D02*
X213142380Y-114205332D01*
X213142380Y-114205332D02*
X213142380Y-113586285D01*
X212142380Y-112967237D02*
X212142380Y-112871999D01*
X212142380Y-112871999D02*
X212190000Y-112776761D01*
X212190000Y-112776761D02*
X212237619Y-112729142D01*
X212237619Y-112729142D02*
X212332857Y-112681523D01*
X212332857Y-112681523D02*
X212523333Y-112633904D01*
X212523333Y-112633904D02*
X212761428Y-112633904D01*
X212761428Y-112633904D02*
X212951904Y-112681523D01*
X212951904Y-112681523D02*
X213047142Y-112729142D01*
X213047142Y-112729142D02*
X213094761Y-112776761D01*
X213094761Y-112776761D02*
X213142380Y-112871999D01*
X213142380Y-112871999D02*
X213142380Y-112967237D01*
X213142380Y-112967237D02*
X213094761Y-113062475D01*
X213094761Y-113062475D02*
X213047142Y-113110094D01*
X213047142Y-113110094D02*
X212951904Y-113157713D01*
X212951904Y-113157713D02*
X212761428Y-113205332D01*
X212761428Y-113205332D02*
X212523333Y-113205332D01*
X212523333Y-113205332D02*
X212332857Y-113157713D01*
X212332857Y-113157713D02*
X212237619Y-113110094D01*
X212237619Y-113110094D02*
X212190000Y-113062475D01*
X212190000Y-113062475D02*
X212142380Y-112967237D01*
X174280380Y-99329904D02*
X173280380Y-99329904D01*
X173661333Y-99329904D02*
X173613714Y-99234666D01*
X173613714Y-99234666D02*
X173613714Y-99044190D01*
X173613714Y-99044190D02*
X173661333Y-98948952D01*
X173661333Y-98948952D02*
X173708952Y-98901333D01*
X173708952Y-98901333D02*
X173804190Y-98853714D01*
X173804190Y-98853714D02*
X174089904Y-98853714D01*
X174089904Y-98853714D02*
X174185142Y-98901333D01*
X174185142Y-98901333D02*
X174232761Y-98948952D01*
X174232761Y-98948952D02*
X174280380Y-99044190D01*
X174280380Y-99044190D02*
X174280380Y-99234666D01*
X174280380Y-99234666D02*
X174232761Y-99329904D01*
X173613714Y-98567999D02*
X173613714Y-98187047D01*
X173280380Y-98425142D02*
X174137523Y-98425142D01*
X174137523Y-98425142D02*
X174232761Y-98377523D01*
X174232761Y-98377523D02*
X174280380Y-98282285D01*
X174280380Y-98282285D02*
X174280380Y-98187047D01*
X173613714Y-97853713D02*
X174280380Y-97853713D01*
X173708952Y-97853713D02*
X173661333Y-97806094D01*
X173661333Y-97806094D02*
X173613714Y-97710856D01*
X173613714Y-97710856D02*
X173613714Y-97567999D01*
X173613714Y-97567999D02*
X173661333Y-97472761D01*
X173661333Y-97472761D02*
X173756571Y-97425142D01*
X173756571Y-97425142D02*
X174280380Y-97425142D01*
X174280380Y-96348951D02*
X173613714Y-96348951D01*
X173280380Y-96348951D02*
X173328000Y-96396570D01*
X173328000Y-96396570D02*
X173375619Y-96348951D01*
X173375619Y-96348951D02*
X173328000Y-96301332D01*
X173328000Y-96301332D02*
X173280380Y-96348951D01*
X173280380Y-96348951D02*
X173375619Y-96348951D01*
X173613714Y-95872761D02*
X174280380Y-95872761D01*
X173708952Y-95872761D02*
X173661333Y-95825142D01*
X173661333Y-95825142D02*
X173613714Y-95729904D01*
X173613714Y-95729904D02*
X173613714Y-95587047D01*
X173613714Y-95587047D02*
X173661333Y-95491809D01*
X173661333Y-95491809D02*
X173756571Y-95444190D01*
X173756571Y-95444190D02*
X174280380Y-95444190D01*
X173359714Y-110839333D02*
X174026380Y-110839333D01*
X173359714Y-111267904D02*
X173883523Y-111267904D01*
X173883523Y-111267904D02*
X173978761Y-111220285D01*
X173978761Y-111220285D02*
X174026380Y-111125047D01*
X174026380Y-111125047D02*
X174026380Y-110982190D01*
X174026380Y-110982190D02*
X173978761Y-110886952D01*
X173978761Y-110886952D02*
X173931142Y-110839333D01*
X173978761Y-110410761D02*
X174026380Y-110315523D01*
X174026380Y-110315523D02*
X174026380Y-110125047D01*
X174026380Y-110125047D02*
X173978761Y-110029809D01*
X173978761Y-110029809D02*
X173883523Y-109982190D01*
X173883523Y-109982190D02*
X173835904Y-109982190D01*
X173835904Y-109982190D02*
X173740666Y-110029809D01*
X173740666Y-110029809D02*
X173693047Y-110125047D01*
X173693047Y-110125047D02*
X173693047Y-110267904D01*
X173693047Y-110267904D02*
X173645428Y-110363142D01*
X173645428Y-110363142D02*
X173550190Y-110410761D01*
X173550190Y-110410761D02*
X173502571Y-110410761D01*
X173502571Y-110410761D02*
X173407333Y-110363142D01*
X173407333Y-110363142D02*
X173359714Y-110267904D01*
X173359714Y-110267904D02*
X173359714Y-110125047D01*
X173359714Y-110125047D02*
X173407333Y-110029809D01*
X174026380Y-109125047D02*
X173502571Y-109125047D01*
X173502571Y-109125047D02*
X173407333Y-109172666D01*
X173407333Y-109172666D02*
X173359714Y-109267904D01*
X173359714Y-109267904D02*
X173359714Y-109458380D01*
X173359714Y-109458380D02*
X173407333Y-109553618D01*
X173978761Y-109125047D02*
X174026380Y-109220285D01*
X174026380Y-109220285D02*
X174026380Y-109458380D01*
X174026380Y-109458380D02*
X173978761Y-109553618D01*
X173978761Y-109553618D02*
X173883523Y-109601237D01*
X173883523Y-109601237D02*
X173788285Y-109601237D01*
X173788285Y-109601237D02*
X173693047Y-109553618D01*
X173693047Y-109553618D02*
X173645428Y-109458380D01*
X173645428Y-109458380D02*
X173645428Y-109220285D01*
X173645428Y-109220285D02*
X173597809Y-109125047D01*
X174026380Y-108648856D02*
X173359714Y-108648856D01*
X173550190Y-108648856D02*
X173454952Y-108601237D01*
X173454952Y-108601237D02*
X173407333Y-108553618D01*
X173407333Y-108553618D02*
X173359714Y-108458380D01*
X173359714Y-108458380D02*
X173359714Y-108363142D01*
X173359714Y-108172665D02*
X173359714Y-107791713D01*
X173026380Y-108029808D02*
X173883523Y-108029808D01*
X173883523Y-108029808D02*
X173978761Y-107982189D01*
X173978761Y-107982189D02*
X174026380Y-107886951D01*
X174026380Y-107886951D02*
X174026380Y-107791713D01*
X173359714Y-106858379D02*
X174359714Y-106858379D01*
X173407333Y-106858379D02*
X173359714Y-106763141D01*
X173359714Y-106763141D02*
X173359714Y-106572665D01*
X173359714Y-106572665D02*
X173407333Y-106477427D01*
X173407333Y-106477427D02*
X173454952Y-106429808D01*
X173454952Y-106429808D02*
X173550190Y-106382189D01*
X173550190Y-106382189D02*
X173835904Y-106382189D01*
X173835904Y-106382189D02*
X173931142Y-106429808D01*
X173931142Y-106429808D02*
X173978761Y-106477427D01*
X173978761Y-106477427D02*
X174026380Y-106572665D01*
X174026380Y-106572665D02*
X174026380Y-106763141D01*
X174026380Y-106763141D02*
X173978761Y-106858379D01*
X174026380Y-105810760D02*
X173978761Y-105905998D01*
X173978761Y-105905998D02*
X173931142Y-105953617D01*
X173931142Y-105953617D02*
X173835904Y-106001236D01*
X173835904Y-106001236D02*
X173550190Y-106001236D01*
X173550190Y-106001236D02*
X173454952Y-105953617D01*
X173454952Y-105953617D02*
X173407333Y-105905998D01*
X173407333Y-105905998D02*
X173359714Y-105810760D01*
X173359714Y-105810760D02*
X173359714Y-105667903D01*
X173359714Y-105667903D02*
X173407333Y-105572665D01*
X173407333Y-105572665D02*
X173454952Y-105525046D01*
X173454952Y-105525046D02*
X173550190Y-105477427D01*
X173550190Y-105477427D02*
X173835904Y-105477427D01*
X173835904Y-105477427D02*
X173931142Y-105525046D01*
X173931142Y-105525046D02*
X173978761Y-105572665D01*
X173978761Y-105572665D02*
X174026380Y-105667903D01*
X174026380Y-105667903D02*
X174026380Y-105810760D01*
X174026380Y-105048855D02*
X173359714Y-105048855D01*
X173550190Y-105048855D02*
X173454952Y-105001236D01*
X173454952Y-105001236D02*
X173407333Y-104953617D01*
X173407333Y-104953617D02*
X173359714Y-104858379D01*
X173359714Y-104858379D02*
X173359714Y-104763141D01*
X173359714Y-104572664D02*
X173359714Y-104191712D01*
X173026380Y-104429807D02*
X173883523Y-104429807D01*
X173883523Y-104429807D02*
X173978761Y-104382188D01*
X173978761Y-104382188D02*
X174026380Y-104286950D01*
X174026380Y-104286950D02*
X174026380Y-104191712D01*
X204601714Y-132238761D02*
X204601714Y-131857809D01*
X205268380Y-132095904D02*
X204411238Y-132095904D01*
X204411238Y-132095904D02*
X204316000Y-132048285D01*
X204316000Y-132048285D02*
X204268380Y-131953047D01*
X204268380Y-131953047D02*
X204268380Y-131857809D01*
X205268380Y-131095904D02*
X204744571Y-131095904D01*
X204744571Y-131095904D02*
X204649333Y-131143523D01*
X204649333Y-131143523D02*
X204601714Y-131238761D01*
X204601714Y-131238761D02*
X204601714Y-131429237D01*
X204601714Y-131429237D02*
X204649333Y-131524475D01*
X205220761Y-131095904D02*
X205268380Y-131191142D01*
X205268380Y-131191142D02*
X205268380Y-131429237D01*
X205268380Y-131429237D02*
X205220761Y-131524475D01*
X205220761Y-131524475D02*
X205125523Y-131572094D01*
X205125523Y-131572094D02*
X205030285Y-131572094D01*
X205030285Y-131572094D02*
X204935047Y-131524475D01*
X204935047Y-131524475D02*
X204887428Y-131429237D01*
X204887428Y-131429237D02*
X204887428Y-131191142D01*
X204887428Y-131191142D02*
X204839809Y-131095904D01*
X204601714Y-130619713D02*
X205268380Y-130619713D01*
X204696952Y-130619713D02*
X204649333Y-130572094D01*
X204649333Y-130572094D02*
X204601714Y-130476856D01*
X204601714Y-130476856D02*
X204601714Y-130333999D01*
X204601714Y-130333999D02*
X204649333Y-130238761D01*
X204649333Y-130238761D02*
X204744571Y-130191142D01*
X204744571Y-130191142D02*
X205268380Y-130191142D01*
X204601714Y-129114951D02*
X205601714Y-129114951D01*
X204649333Y-129114951D02*
X204601714Y-129019713D01*
X204601714Y-129019713D02*
X204601714Y-128829237D01*
X204601714Y-128829237D02*
X204649333Y-128733999D01*
X204649333Y-128733999D02*
X204696952Y-128686380D01*
X204696952Y-128686380D02*
X204792190Y-128638761D01*
X204792190Y-128638761D02*
X205077904Y-128638761D01*
X205077904Y-128638761D02*
X205173142Y-128686380D01*
X205173142Y-128686380D02*
X205220761Y-128733999D01*
X205220761Y-128733999D02*
X205268380Y-128829237D01*
X205268380Y-128829237D02*
X205268380Y-129019713D01*
X205268380Y-129019713D02*
X205220761Y-129114951D01*
X205268380Y-128067332D02*
X205220761Y-128162570D01*
X205220761Y-128162570D02*
X205173142Y-128210189D01*
X205173142Y-128210189D02*
X205077904Y-128257808D01*
X205077904Y-128257808D02*
X204792190Y-128257808D01*
X204792190Y-128257808D02*
X204696952Y-128210189D01*
X204696952Y-128210189D02*
X204649333Y-128162570D01*
X204649333Y-128162570D02*
X204601714Y-128067332D01*
X204601714Y-128067332D02*
X204601714Y-127924475D01*
X204601714Y-127924475D02*
X204649333Y-127829237D01*
X204649333Y-127829237D02*
X204696952Y-127781618D01*
X204696952Y-127781618D02*
X204792190Y-127733999D01*
X204792190Y-127733999D02*
X205077904Y-127733999D01*
X205077904Y-127733999D02*
X205173142Y-127781618D01*
X205173142Y-127781618D02*
X205220761Y-127829237D01*
X205220761Y-127829237D02*
X205268380Y-127924475D01*
X205268380Y-127924475D02*
X205268380Y-128067332D01*
X205268380Y-127305427D02*
X204601714Y-127305427D01*
X204792190Y-127305427D02*
X204696952Y-127257808D01*
X204696952Y-127257808D02*
X204649333Y-127210189D01*
X204649333Y-127210189D02*
X204601714Y-127114951D01*
X204601714Y-127114951D02*
X204601714Y-127019713D01*
X204601714Y-126829236D02*
X204601714Y-126448284D01*
X204268380Y-126686379D02*
X205125523Y-126686379D01*
X205125523Y-126686379D02*
X205220761Y-126638760D01*
X205220761Y-126638760D02*
X205268380Y-126543522D01*
X205268380Y-126543522D02*
X205268380Y-126448284D01*
X173105714Y-120919904D02*
X174105714Y-120919904D01*
X173153333Y-120919904D02*
X173105714Y-120824666D01*
X173105714Y-120824666D02*
X173105714Y-120634190D01*
X173105714Y-120634190D02*
X173153333Y-120538952D01*
X173153333Y-120538952D02*
X173200952Y-120491333D01*
X173200952Y-120491333D02*
X173296190Y-120443714D01*
X173296190Y-120443714D02*
X173581904Y-120443714D01*
X173581904Y-120443714D02*
X173677142Y-120491333D01*
X173677142Y-120491333D02*
X173724761Y-120538952D01*
X173724761Y-120538952D02*
X173772380Y-120634190D01*
X173772380Y-120634190D02*
X173772380Y-120824666D01*
X173772380Y-120824666D02*
X173724761Y-120919904D01*
X173105714Y-120110380D02*
X173772380Y-119919904D01*
X173772380Y-119919904D02*
X173296190Y-119729428D01*
X173296190Y-119729428D02*
X173772380Y-119538952D01*
X173772380Y-119538952D02*
X173105714Y-119348476D01*
X173772380Y-118967523D02*
X173105714Y-118967523D01*
X173296190Y-118967523D02*
X173200952Y-118919904D01*
X173200952Y-118919904D02*
X173153333Y-118872285D01*
X173153333Y-118872285D02*
X173105714Y-118777047D01*
X173105714Y-118777047D02*
X173105714Y-118681809D01*
X173772380Y-117748475D02*
X173105714Y-117748475D01*
X172772380Y-117748475D02*
X172820000Y-117796094D01*
X172820000Y-117796094D02*
X172867619Y-117748475D01*
X172867619Y-117748475D02*
X172820000Y-117700856D01*
X172820000Y-117700856D02*
X172772380Y-117748475D01*
X172772380Y-117748475D02*
X172867619Y-117748475D01*
X173105714Y-117272285D02*
X173772380Y-117272285D01*
X173200952Y-117272285D02*
X173153333Y-117224666D01*
X173153333Y-117224666D02*
X173105714Y-117129428D01*
X173105714Y-117129428D02*
X173105714Y-116986571D01*
X173105714Y-116986571D02*
X173153333Y-116891333D01*
X173153333Y-116891333D02*
X173248571Y-116843714D01*
X173248571Y-116843714D02*
X173772380Y-116843714D01*
D11*
%TO.C,J2*%
X204517380Y-125027333D02*
X205231666Y-125027333D01*
X205231666Y-125027333D02*
X205374523Y-125074952D01*
X205374523Y-125074952D02*
X205469761Y-125170190D01*
X205469761Y-125170190D02*
X205517380Y-125313047D01*
X205517380Y-125313047D02*
X205517380Y-125408285D01*
X204612619Y-124598761D02*
X204565000Y-124551142D01*
X204565000Y-124551142D02*
X204517380Y-124455904D01*
X204517380Y-124455904D02*
X204517380Y-124217809D01*
X204517380Y-124217809D02*
X204565000Y-124122571D01*
X204565000Y-124122571D02*
X204612619Y-124074952D01*
X204612619Y-124074952D02*
X204707857Y-124027333D01*
X204707857Y-124027333D02*
X204803095Y-124027333D01*
X204803095Y-124027333D02*
X204945952Y-124074952D01*
X204945952Y-124074952D02*
X205517380Y-124646380D01*
X205517380Y-124646380D02*
X205517380Y-124027333D01*
%TO.C,J3*%
X173103380Y-123015333D02*
X173817666Y-123015333D01*
X173817666Y-123015333D02*
X173960523Y-123062952D01*
X173960523Y-123062952D02*
X174055761Y-123158190D01*
X174055761Y-123158190D02*
X174103380Y-123301047D01*
X174103380Y-123301047D02*
X174103380Y-123396285D01*
X173103380Y-122634380D02*
X173103380Y-122015333D01*
X173103380Y-122015333D02*
X173484333Y-122348666D01*
X173484333Y-122348666D02*
X173484333Y-122205809D01*
X173484333Y-122205809D02*
X173531952Y-122110571D01*
X173531952Y-122110571D02*
X173579571Y-122062952D01*
X173579571Y-122062952D02*
X173674809Y-122015333D01*
X173674809Y-122015333D02*
X173912904Y-122015333D01*
X173912904Y-122015333D02*
X174008142Y-122062952D01*
X174008142Y-122062952D02*
X174055761Y-122110571D01*
X174055761Y-122110571D02*
X174103380Y-122205809D01*
X174103380Y-122205809D02*
X174103380Y-122491523D01*
X174103380Y-122491523D02*
X174055761Y-122586761D01*
X174055761Y-122586761D02*
X174008142Y-122634380D01*
%TO.C,J7*%
X173103380Y-113109333D02*
X173817666Y-113109333D01*
X173817666Y-113109333D02*
X173960523Y-113156952D01*
X173960523Y-113156952D02*
X174055761Y-113252190D01*
X174055761Y-113252190D02*
X174103380Y-113395047D01*
X174103380Y-113395047D02*
X174103380Y-113490285D01*
X173103380Y-112728380D02*
X173103380Y-112061714D01*
X173103380Y-112061714D02*
X174103380Y-112490285D01*
%TO.C,U1*%
X169824095Y-137231380D02*
X169824095Y-138040904D01*
X169824095Y-138040904D02*
X169871714Y-138136142D01*
X169871714Y-138136142D02*
X169919333Y-138183761D01*
X169919333Y-138183761D02*
X170014571Y-138231380D01*
X170014571Y-138231380D02*
X170205047Y-138231380D01*
X170205047Y-138231380D02*
X170300285Y-138183761D01*
X170300285Y-138183761D02*
X170347904Y-138136142D01*
X170347904Y-138136142D02*
X170395523Y-138040904D01*
X170395523Y-138040904D02*
X170395523Y-137231380D01*
X171395523Y-138231380D02*
X170824095Y-138231380D01*
X171109809Y-138231380D02*
X171109809Y-137231380D01*
X171109809Y-137231380D02*
X171014571Y-137374238D01*
X171014571Y-137374238D02*
X170919333Y-137469476D01*
X170919333Y-137469476D02*
X170824095Y-137517095D01*
%TO.C,J5*%
X173103380Y-102187333D02*
X173817666Y-102187333D01*
X173817666Y-102187333D02*
X173960523Y-102234952D01*
X173960523Y-102234952D02*
X174055761Y-102330190D01*
X174055761Y-102330190D02*
X174103380Y-102473047D01*
X174103380Y-102473047D02*
X174103380Y-102568285D01*
X173103380Y-101234952D02*
X173103380Y-101711142D01*
X173103380Y-101711142D02*
X173579571Y-101758761D01*
X173579571Y-101758761D02*
X173531952Y-101711142D01*
X173531952Y-101711142D02*
X173484333Y-101615904D01*
X173484333Y-101615904D02*
X173484333Y-101377809D01*
X173484333Y-101377809D02*
X173531952Y-101282571D01*
X173531952Y-101282571D02*
X173579571Y-101234952D01*
X173579571Y-101234952D02*
X173674809Y-101187333D01*
X173674809Y-101187333D02*
X173912904Y-101187333D01*
X173912904Y-101187333D02*
X174008142Y-101234952D01*
X174008142Y-101234952D02*
X174055761Y-101282571D01*
X174055761Y-101282571D02*
X174103380Y-101377809D01*
X174103380Y-101377809D02*
X174103380Y-101615904D01*
X174103380Y-101615904D02*
X174055761Y-101711142D01*
X174055761Y-101711142D02*
X174008142Y-101758761D01*
%TO.C,J1*%
X202059380Y-99139333D02*
X202773666Y-99139333D01*
X202773666Y-99139333D02*
X202916523Y-99186952D01*
X202916523Y-99186952D02*
X203011761Y-99282190D01*
X203011761Y-99282190D02*
X203059380Y-99425047D01*
X203059380Y-99425047D02*
X203059380Y-99520285D01*
X203059380Y-98139333D02*
X203059380Y-98710761D01*
X203059380Y-98425047D02*
X202059380Y-98425047D01*
X202059380Y-98425047D02*
X202202238Y-98520285D01*
X202202238Y-98520285D02*
X202297476Y-98615523D01*
X202297476Y-98615523D02*
X202345095Y-98710761D01*
D12*
%TO.C,C6*%
X175766000Y-126124580D02*
X175766000Y-125843420D01*
X176786000Y-126124580D02*
X176786000Y-125843420D01*
%TO.C,SW1*%
X198914000Y-127308000D02*
X198914000Y-126558000D01*
X198914000Y-127308000D02*
X198164000Y-127308000D01*
X198914000Y-123308000D02*
X198914000Y-124058000D01*
X198914000Y-123308000D02*
X198164000Y-123308000D01*
X192414000Y-127308000D02*
X193164000Y-127308000D01*
X192414000Y-127308000D02*
X192414000Y-126558000D01*
X192414000Y-123308000D02*
X193164000Y-123308000D01*
X192414000Y-123308000D02*
X192414000Y-124058000D01*
D13*
X199569000Y-126308000D02*
G75*
G03*
X199569000Y-126308000I-155000J0D01*
G01*
D12*
%TO.C,R39*%
X175467742Y-119619500D02*
X175942258Y-119619500D01*
X175467742Y-120664500D02*
X175942258Y-120664500D01*
%TO.C,C1*%
X176822580Y-134245500D02*
X176541420Y-134245500D01*
X176822580Y-133225500D02*
X176541420Y-133225500D01*
%TO.C,J2*%
X205940000Y-128854000D02*
X207190000Y-128854000D01*
X206240000Y-128554000D02*
X212860000Y-128554000D01*
X209550000Y-128554000D02*
X209550000Y-127544000D01*
X212860000Y-128554000D02*
X212860000Y-120834000D01*
X205940000Y-127604000D02*
X205940000Y-128854000D01*
X207850000Y-127544000D02*
X212150000Y-127544000D01*
X212150000Y-127544000D02*
X212150000Y-121844000D01*
X206240000Y-126294000D02*
X206240000Y-128554000D01*
X207240000Y-126294000D02*
X206240000Y-126294000D01*
X206640000Y-125094000D02*
X207240000Y-125094000D01*
X207240000Y-125094000D02*
X207240000Y-126294000D01*
X206640000Y-124294000D02*
X206640000Y-125094000D01*
X207240000Y-124294000D02*
X206640000Y-124294000D01*
X206240000Y-123094000D02*
X207240000Y-123094000D01*
X207240000Y-123094000D02*
X207240000Y-124294000D01*
X207850000Y-121844000D02*
X207850000Y-127544000D01*
X212150000Y-121844000D02*
X207850000Y-121844000D01*
X206240000Y-120834000D02*
X206240000Y-123094000D01*
X209550000Y-120834000D02*
X209550000Y-121844000D01*
X212860000Y-120834000D02*
X206240000Y-120834000D01*
%TO.C,Q1*%
X203375500Y-122834000D02*
X201700500Y-122834000D01*
X203375500Y-122834000D02*
X204025500Y-122834000D01*
X203375500Y-125954000D02*
X202725500Y-125954000D01*
X203375500Y-125954000D02*
X204025500Y-125954000D01*
%TO.C,C8*%
X177798000Y-126124580D02*
X177798000Y-125843420D01*
X178818000Y-126124580D02*
X178818000Y-125843420D01*
%TO.C,R38*%
X175942258Y-118886500D02*
X175467742Y-118886500D01*
X175942258Y-117841500D02*
X175467742Y-117841500D01*
%TO.C,C53*%
X201619420Y-115314000D02*
X201900580Y-115314000D01*
X201619420Y-116334000D02*
X201900580Y-116334000D01*
%TO.C,U19*%
X199590000Y-122504000D02*
X199590000Y-116089000D01*
X199590000Y-122504000D02*
X181350000Y-122504000D01*
X199590000Y-116089000D02*
X199970000Y-116089000D01*
X199590000Y-97544000D02*
X199590000Y-96764000D01*
X199590000Y-96764000D02*
X198590000Y-96764000D01*
X181350000Y-122504000D02*
X181350000Y-116089000D01*
X181350000Y-97544000D02*
X181350000Y-96764000D01*
X181350000Y-96764000D02*
X182350000Y-96764000D01*
%TO.C,SW3*%
X183016000Y-123308000D02*
X183016000Y-124058000D01*
X183016000Y-123308000D02*
X183766000Y-123308000D01*
X183016000Y-127308000D02*
X183016000Y-126558000D01*
X183016000Y-127308000D02*
X183766000Y-127308000D01*
X189516000Y-123308000D02*
X188766000Y-123308000D01*
X189516000Y-123308000D02*
X189516000Y-124058000D01*
X189516000Y-127308000D02*
X188766000Y-127308000D01*
X189516000Y-127308000D02*
X189516000Y-126558000D01*
D13*
X182671000Y-124308000D02*
G75*
G03*
X182671000Y-124308000I-155000J0D01*
G01*
D12*
%TO.C,C7*%
X176809580Y-135871100D02*
X176528420Y-135871100D01*
X176809580Y-134851100D02*
X176528420Y-134851100D01*
%TO.C,R86*%
X200475500Y-113353258D02*
X200475500Y-112878742D01*
X201520500Y-113353258D02*
X201520500Y-112878742D01*
%TO.C,J4*%
X213160000Y-109184000D02*
X211910000Y-109184000D01*
X212860000Y-109484000D02*
X206240000Y-109484000D01*
X209550000Y-109484000D02*
X209550000Y-110494000D01*
X206240000Y-109484000D02*
X206240000Y-119704000D01*
X213160000Y-110434000D02*
X213160000Y-109184000D01*
X211250000Y-110494000D02*
X206950000Y-110494000D01*
X206950000Y-110494000D02*
X206950000Y-118694000D01*
X212860000Y-112194000D02*
X212860000Y-109484000D01*
X211860000Y-112194000D02*
X212860000Y-112194000D01*
X212460000Y-113794000D02*
X211860000Y-113794000D01*
X211860000Y-113794000D02*
X211860000Y-112194000D01*
X212460000Y-115394000D02*
X212460000Y-113794000D01*
X211860000Y-115394000D02*
X212460000Y-115394000D01*
X212860000Y-116994000D02*
X211860000Y-116994000D01*
X211860000Y-116994000D02*
X211860000Y-115394000D01*
X211250000Y-118694000D02*
X211250000Y-110494000D01*
X206950000Y-118694000D02*
X211250000Y-118694000D01*
X212860000Y-119704000D02*
X212860000Y-116994000D01*
X209550000Y-119704000D02*
X209550000Y-118694000D01*
X206240000Y-119704000D02*
X212860000Y-119704000D01*
%TO.C,C4*%
X176835580Y-132670700D02*
X176554420Y-132670700D01*
X176835580Y-131650700D02*
X176554420Y-131650700D01*
%TO.C,C51*%
X175146580Y-129288000D02*
X174865420Y-129288000D01*
X175146580Y-128268000D02*
X174865420Y-128268000D01*
%TO.C,J3*%
X165554000Y-123266000D02*
X166804000Y-123266000D01*
X165854000Y-122966000D02*
X172474000Y-122966000D01*
X169164000Y-122966000D02*
X169164000Y-121956000D01*
X172474000Y-122966000D02*
X172474000Y-115246000D01*
X165554000Y-122016000D02*
X165554000Y-123266000D01*
X167464000Y-121956000D02*
X171764000Y-121956000D01*
X171764000Y-121956000D02*
X171764000Y-116256000D01*
X165854000Y-120706000D02*
X165854000Y-122966000D01*
X166854000Y-120706000D02*
X165854000Y-120706000D01*
X166254000Y-119506000D02*
X166854000Y-119506000D01*
X166854000Y-119506000D02*
X166854000Y-120706000D01*
X166254000Y-118706000D02*
X166254000Y-119506000D01*
X166854000Y-118706000D02*
X166254000Y-118706000D01*
X165854000Y-117506000D02*
X166854000Y-117506000D01*
X166854000Y-117506000D02*
X166854000Y-118706000D01*
X167464000Y-116256000D02*
X167464000Y-121956000D01*
X171764000Y-116256000D02*
X167464000Y-116256000D01*
X165854000Y-115246000D02*
X165854000Y-117506000D01*
X169164000Y-115246000D02*
X169164000Y-116256000D01*
X172474000Y-115246000D02*
X165854000Y-115246000D01*
%TO.C,J7*%
X172774000Y-103342000D02*
X171524000Y-103342000D01*
X172474000Y-103642000D02*
X165854000Y-103642000D01*
X169164000Y-103642000D02*
X169164000Y-104652000D01*
X165854000Y-103642000D02*
X165854000Y-113862000D01*
X172774000Y-104592000D02*
X172774000Y-103342000D01*
X170864000Y-104652000D02*
X166564000Y-104652000D01*
X166564000Y-104652000D02*
X166564000Y-112852000D01*
X172474000Y-106352000D02*
X172474000Y-103642000D01*
X171474000Y-106352000D02*
X172474000Y-106352000D01*
X172074000Y-107952000D02*
X171474000Y-107952000D01*
X171474000Y-107952000D02*
X171474000Y-106352000D01*
X172074000Y-109552000D02*
X172074000Y-107952000D01*
X171474000Y-109552000D02*
X172074000Y-109552000D01*
X172474000Y-111152000D02*
X171474000Y-111152000D01*
X171474000Y-111152000D02*
X171474000Y-109552000D01*
X170864000Y-112852000D02*
X170864000Y-104652000D01*
X166564000Y-112852000D02*
X170864000Y-112852000D01*
X172474000Y-113862000D02*
X172474000Y-111152000D01*
X169164000Y-113862000D02*
X169164000Y-112852000D01*
X165854000Y-113862000D02*
X172474000Y-113862000D01*
%TO.C,C3*%
X168146000Y-126124580D02*
X168146000Y-125843420D01*
X169166000Y-126124580D02*
X169166000Y-125843420D01*
%TO.C,U20*%
X173106500Y-124612000D02*
X171306500Y-124612000D01*
X173106500Y-124612000D02*
X173906500Y-124612000D01*
X173106500Y-127732000D02*
X172306500Y-127732000D01*
X173106500Y-127732000D02*
X173906500Y-127732000D01*
%TO.C,C2*%
X176822580Y-131045100D02*
X176541420Y-131045100D01*
X176822580Y-130025100D02*
X176541420Y-130025100D01*
%TO.C,R87*%
X180354500Y-97044742D02*
X180354500Y-97519258D01*
X179309500Y-97044742D02*
X179309500Y-97519258D01*
%TO.C,U1*%
X174686000Y-136774000D02*
X168676000Y-136774000D01*
X172436000Y-129954000D02*
X168676000Y-129954000D01*
X168676000Y-136774000D02*
X168676000Y-135514000D01*
X168676000Y-129954000D02*
X168676000Y-131214000D01*
%TO.C,C5*%
X169670000Y-126124580D02*
X169670000Y-125843420D01*
X170690000Y-126124580D02*
X170690000Y-125843420D01*
%TO.C,J5*%
X165554000Y-102986000D02*
X166804000Y-102986000D01*
X165854000Y-102686000D02*
X172474000Y-102686000D01*
X169164000Y-102686000D02*
X169164000Y-101676000D01*
X172474000Y-102686000D02*
X172474000Y-94966000D01*
X165554000Y-101736000D02*
X165554000Y-102986000D01*
X167464000Y-101676000D02*
X171764000Y-101676000D01*
X171764000Y-101676000D02*
X171764000Y-95976000D01*
X165854000Y-100426000D02*
X165854000Y-102686000D01*
X166854000Y-100426000D02*
X165854000Y-100426000D01*
X166254000Y-99226000D02*
X166854000Y-99226000D01*
X166854000Y-99226000D02*
X166854000Y-100426000D01*
X166254000Y-98426000D02*
X166254000Y-99226000D01*
X166854000Y-98426000D02*
X166254000Y-98426000D01*
X165854000Y-97226000D02*
X166854000Y-97226000D01*
X166854000Y-97226000D02*
X166854000Y-98426000D01*
X167464000Y-95976000D02*
X167464000Y-101676000D01*
X171764000Y-95976000D02*
X167464000Y-95976000D01*
X165854000Y-94966000D02*
X165854000Y-97226000D01*
X169164000Y-94966000D02*
X169164000Y-95976000D01*
X172474000Y-94966000D02*
X165854000Y-94966000D01*
%TO.C,R1*%
X203183258Y-122442500D02*
X202708742Y-122442500D01*
X203183258Y-121397500D02*
X202708742Y-121397500D01*
%TO.C,R2*%
X205500500Y-113999742D02*
X205500500Y-114474258D01*
X204455500Y-113999742D02*
X204455500Y-114474258D01*
%TO.C,C52*%
X203032000Y-112962420D02*
X203032000Y-113243580D01*
X202012000Y-112962420D02*
X202012000Y-113243580D01*
%TO.C,J1*%
X205990800Y-108269200D02*
X207240800Y-108269200D01*
X206290800Y-107969200D02*
X212910800Y-107969200D01*
X209600800Y-107969200D02*
X209600800Y-106959200D01*
X212910800Y-107969200D02*
X212910800Y-95249200D01*
X205990800Y-107019200D02*
X205990800Y-108269200D01*
X207900800Y-106959200D02*
X212200800Y-106959200D01*
X212200800Y-106959200D02*
X212200800Y-96259200D01*
X206290800Y-104309200D02*
X206290800Y-107969200D01*
X207290800Y-104309200D02*
X206290800Y-104309200D01*
X206690800Y-102409200D02*
X207290800Y-102409200D01*
X207290800Y-102409200D02*
X207290800Y-104309200D01*
X206690800Y-100809200D02*
X206690800Y-102409200D01*
X207290800Y-100809200D02*
X206690800Y-100809200D01*
X206290800Y-98909200D02*
X207290800Y-98909200D01*
X207290800Y-98909200D02*
X207290800Y-100809200D01*
X207900800Y-96259200D02*
X207900800Y-106959200D01*
X212200800Y-96259200D02*
X207900800Y-96259200D01*
X206290800Y-95249200D02*
X206290800Y-98909200D01*
X209600800Y-95249200D02*
X209600800Y-96259200D01*
X212910800Y-95249200D02*
X206290800Y-95249200D01*
%TD*%
M02*
